Ubuntu-RI.ufo
<glyph name="exclam" format="2">
	<unicode hex="0021"/>
	<advance width="250"/>
	<outline>
		<contour>
			<point x="338" y="693" type="line"/>
			<point x="293" y="504" type="line"/>
			<point x="287" y="480"/>
			<point x="266" y="403"/>
			<point x="241" y="321"/>
			<point x="214" y="242"/>
			<point x="203" y="216" type="qcurve"/>
			<point x="146" y="216" type="line"/>
			<point x="154" y="284"/>
			<point x="175" y="421"/>
			<point x="195" y="505" type="qcurve"/>
			<point x="240" y="693" type="line"/>
		</contour>
		<contour>
			<point x="133" y="-13" type="qcurve"/>
			<point x="105" y="-13"/>
			<point x="73" y="17"/>
			<point x="73" y="46" type="qcurve"/>
			<point x="73" y="82"/>
			<point x="116" y="121"/>
			<point x="144" y="121" type="qcurve"/>
			<point x="172" y="121"/>
			<point x="205" y="90"/>
			<point x="205" y="60" type="qcurve"/>
			<point x="205" y="43"/>
			<point x="192" y="16"/>
			<point x="172" y="-3"/>
			<point x="146" y="-13"/>
		</contour>
	</outline>
</glyph>
<glyph name="numbersign" format="2">
	<unicode hex="0023"/>
	<advance width="654"/>
	<outline>
		<contour>
			<point x="480" y="693" type="line"/>
			<point x="396" y="693" type="line"/>
			<point x="317" y="510" type="line"/>
			<point x="170" y="510" type="line"/>
			<point x="152" y="436" type="line"/>
			<point x="286" y="436" type="line"/>
			<point x="209" y="257" type="line"/>
			<point x="109" y="257" type="line"/>
			<point x="91" y="183" type="line"/>
			<point x="177" y="183" type="line"/>
			<point x="100" y="0" type="line"/>
			<point x="184" y="0" type="line"/>
			<point x="262" y="183" type="line"/>
			<point x="418" y="183" type="line"/>
			<point x="341" y="0" type="line"/>
			<point x="425" y="0" type="line"/>
			<point x="503" y="183" type="line"/>
			<point x="648" y="183" type="line"/>
			<point x="666" y="257" type="line"/>
			<point x="534" y="257" type="line"/>
			<point x="612" y="436" type="line"/>
			<point x="709" y="436" type="line"/>
			<point x="727" y="510" type="line"/>
			<point x="643" y="510" type="line"/>
			<point x="721" y="693" type="line"/>
			<point x="637" y="693" type="line"/>
			<point x="559" y="510" type="line"/>
			<point x="402" y="510" type="line"/>
		</contour>
		<contour>
			<point x="371" y="436" type="line"/>
			<point x="528" y="436" type="line"/>
			<point x="450" y="257" type="line"/>
			<point x="293" y="257" type="line"/>
		</contour>
	</outline>
</glyph>
<glyph name="dollar" format="2">
	<unicode hex="0024"/>
	<advance width="564"/>
	<outline>
		<contour>
			<point x="277" y="96" type="qcurve"/>
			<point x="306" y="96"/>
			<point x="364" y="107"/>
			<point x="410" y="133"/>
			<point x="438" y="176"/>
			<point x="438" y="208" type="qcurve"/>
			<point x="438" y="230"/>
			<point x="421" y="262"/>
			<point x="390" y="288"/>
			<point x="347" y="309"/>
			<point x="322" y="321" type="qcurve"/>
			<point x="300" y="331"/>
			<point x="257" y="357"/>
			<point x="223" y="394"/>
			<point x="202" y="445"/>
			<point x="202" y="481" type="qcurve"/>
			<point x="202" y="553"/>
			<point x="299" y="650"/>
			<point x="395" y="662" type="qcurve"/>
			<point x="422" y="776" type="line"/>
			<point x="503" y="776" type="line"/>
			<point x="476" y="664" type="line"/>
			<point x="519" y="660"/>
			<point x="588" y="633"/>
			<point x="606" y="621" type="qcurve"/>
			<point x="564" y="552" type="line"/>
			<point x="547" y="564"/>
			<point x="482" y="586"/>
			<point x="434" y="586" type="qcurve"/>
			<point x="405" y="586"/>
			<point x="354" y="575"/>
			<point x="315" y="551"/>
			<point x="293" y="514"/>
			<point x="293" y="489" type="qcurve"/>
			<point x="293" y="448"/>
			<point x="343" y="404"/>
			<point x="394" y="380" type="qcurve"/>
			<point x="421" y="368"/>
			<point x="471" y="340"/>
			<point x="508" y="302"/>
			<point x="530" y="251"/>
			<point x="530" y="216" type="qcurve"/>
			<point x="530" y="172"/>
			<point x="500" y="104"/>
			<point x="444" y="55"/>
			<point x="367" y="25"/>
			<point x="321" y="20" type="qcurve"/>
			<point x="291" y="-109" type="line"/>
			<point x="210" y="-109" type="line"/>
			<point x="241" y="21" type="line"/>
			<point x="215" y="22"/>
			<point x="167" y="32"/>
			<point x="125" y="46"/>
			<point x="93" y="61"/>
			<point x="84" y="67" type="qcurve"/>
			<point x="127" y="138" type="line"/>
			<point x="145" y="127"/>
			<point x="219" y="96"/>
		</contour>
	</outline>
</glyph>
<glyph name="percent" format="2">
	<unicode hex="0025"/>
	<advance width="836"/>
	<outline>
		<contour>
			<point x="269" y="0" type="line"/>
			<point x="174" y="0" type="line"/>
			<point x="723" y="693" type="line"/>
			<point x="818" y="693" type="line"/>
		</contour>
		<contour>
			<point x="158" y="476" type="qcurve"/>
			<point x="158" y="518"/>
			<point x="185" y="601"/>
			<point x="234" y="667"/>
			<point x="306" y="708"/>
			<point x="351" y="708" type="qcurve"/>
			<point x="411" y="708"/>
			<point x="478" y="639"/>
			<point x="478" y="572" type="qcurve"/>
			<point x="478" y="530"/>
			<point x="451" y="447"/>
			<point x="402" y="381"/>
			<point x="330" y="340"/>
			<point x="285" y="340" type="qcurve"/>
			<point x="225" y="340"/>
			<point x="158" y="409"/>
		</contour>
		<contour>
			<point x="404" y="565" type="qcurve"/>
			<point x="404" y="599"/>
			<point x="381" y="642"/>
			<point x="346" y="642" type="qcurve"/>
			<point x="317" y="642"/>
			<point x="274" y="610"/>
			<point x="246" y="563"/>
			<point x="232" y="507"/>
			<point x="232" y="483" type="qcurve"/>
			<point x="232" y="449"/>
			<point x="255" y="406"/>
			<point x="290" y="406" type="qcurve"/>
			<point x="319" y="406"/>
			<point x="362" y="438"/>
			<point x="390" y="485"/>
			<point x="404" y="541"/>
		</contour>
		<contour>
			<point x="514" y="121" type="qcurve"/>
			<point x="514" y="163"/>
			<point x="541" y="246"/>
			<point x="590" y="312"/>
			<point x="662" y="353"/>
			<point x="707" y="353" type="qcurve"/>
			<point x="767" y="353"/>
			<point x="834" y="284"/>
			<point x="834" y="217" type="qcurve"/>
			<point x="834" y="175"/>
			<point x="807" y="92"/>
			<point x="758" y="26"/>
			<point x="686" y="-15"/>
			<point x="641" y="-15" type="qcurve"/>
			<point x="581" y="-15"/>
			<point x="514" y="54"/>
		</contour>
		<contour>
			<point x="760" y="210" type="qcurve"/>
			<point x="760" y="244"/>
			<point x="737" y="287"/>
			<point x="702" y="287" type="qcurve"/>
			<point x="673" y="287"/>
			<point x="630" y="255"/>
			<point x="602" y="208"/>
			<point x="588" y="152"/>
			<point x="588" y="128" type="qcurve"/>
			<point x="588" y="94"/>
			<point x="611" y="51"/>
			<point x="646" y="51" type="qcurve"/>
			<point x="675" y="51"/>
			<point x="718" y="83"/>
			<point x="746" y="130"/>
			<point x="760" y="186"/>
		</contour>
	</outline>
</glyph>
<glyph name="ampersand" format="2">
	<unicode hex="0026"/>
	<advance width="640"/>
	<outline>
		<contour>
			<point x="78" y="147" type="curve" smooth="yes"/>
			<point x="78" y="56"/>
			<point x="132" y="-9"/>
			<point x="264" y="-9" type="curve" smooth="yes"/>
			<point x="360" y="-9"/>
			<point x="432" y="26"/>
			<point x="492" y="75" type="curve"/>
			<point x="511" y="48"/>
			<point x="526" y="24"/>
			<point x="537" y="0" type="curve"/>
			<point x="633" y="0" type="line"/>
			<point x="617" y="43"/>
			<point x="586" y="88"/>
			<point x="553" y="135" type="curve"/>
			<point x="609" y="200"/>
			<point x="645" y="273"/>
			<point x="664" y="329" type="curve"/>
			<point x="583" y="339" type="line"/>
			<point x="564" y="287"/>
			<point x="539" y="240"/>
			<point x="506" y="198" type="curve"/>
			<point x="390" y="359" type="line"/>
			<point x="502" y="410"/>
			<point x="581" y="473"/>
			<point x="581" y="576" type="curve" smooth="yes"/>
			<point x="581" y="663"/>
			<point x="516" y="709"/>
			<point x="440" y="709" type="curve" smooth="yes"/>
			<point x="311" y="709"/>
			<point x="228" y="634"/>
			<point x="228" y="514" type="curve" smooth="yes"/>
			<point x="228" y="461"/>
			<point x="246" y="421"/>
			<point x="269" y="384" type="curve"/>
			<point x="160" y="336"/>
			<point x="78" y="267"/>
		</contour>
		<contour>
			<point x="270" y="68" type="curve" smooth="yes"/>
			<point x="195" y="68"/>
			<point x="169" y="107"/>
			<point x="169" y="163" type="curve" smooth="yes"/>
			<point x="169" y="246"/>
			<point x="241" y="298"/>
			<point x="309" y="327" type="curve"/>
			<point x="447" y="137" type="line"/>
			<point x="398" y="92"/>
			<point x="334" y="68"/>
		</contour>
		<contour>
			<point x="315" y="520" type="curve" smooth="yes"/>
			<point x="315" y="597"/>
			<point x="367" y="635"/>
			<point x="427" y="635" type="curve" smooth="yes"/>
			<point x="470" y="635"/>
			<point x="496" y="610"/>
			<point x="496" y="565" type="curve" smooth="yes"/>
			<point x="496" y="493"/>
			<point x="422" y="442"/>
			<point x="352" y="415" type="curve"/>
			<point x="331" y="450"/>
			<point x="315" y="484"/>
		</contour>
	</outline>
</glyph>
<glyph name="quotesingle" format="2">
	<unicode hex="0027"/>
	<advance width="236"/>
	<outline>
		<contour>
			<point x="348" y="760" type="line"/>
			<point x="336" y="710" type="line"/>
			<point x="324" y="661"/>
			<point x="287" y="552"/>
			<point x="265" y="501" type="qcurve"/>
			<point x="211" y="501" type="line"/>
			<point x="215" y="555"/>
			<point x="229" y="660"/>
			<point x="241" y="711" type="qcurve"/>
			<point x="253" y="760" type="line"/>
		</contour>
	</outline>
</glyph>
<glyph name="parenleft" format="2">
	<unicode hex="0028"/>
	<advance width="317"/>
	<outline>
		<contour>
			<point x="491" y="739" type="line"/>
			<point x="428" y="676"/>
			<point x="326" y="535"/>
			<point x="255" y="384"/>
			<point x="216" y="225"/>
			<point x="216" y="143" type="qcurve"/>
			<point x="216" y="58"/>
			<point x="240" y="-78"/>
			<point x="269" y="-141" type="qcurve"/>
			<point x="198" y="-181" type="line"/>
			<point x="164" y="-121"/>
			<point x="126" y="37"/>
			<point x="126" y="124" type="qcurve"/>
			<point x="126" y="314"/>
			<point x="279" y="642"/>
			<point x="429" y="783" type="qcurve"/>
		</contour>
	</outline>
</glyph>
<glyph name="parenright" format="2">
	<unicode hex="0029"/>
	<advance width="317"/>
	<outline>
		<contour>
			<point x="-50" y="-141" type="line"/>
			<point x="13" y="-78"/>
			<point x="115" y="63"/>
			<point x="186" y="214"/>
			<point x="225" y="373"/>
			<point x="225" y="455" type="qcurve"/>
			<point x="225" y="540"/>
			<point x="201" y="676"/>
			<point x="172" y="739" type="qcurve"/>
			<point x="243" y="779" type="line"/>
			<point x="277" y="719"/>
			<point x="315" y="561"/>
			<point x="315" y="474" type="qcurve"/>
			<point x="315" y="284"/>
			<point x="162" y="-44"/>
			<point x="12" y="-185" type="qcurve"/>
		</contour>
	</outline>
</glyph>
<glyph name="asterisk" format="2">
	<unicode hex="002A"/>
	<advance width="470"/>
	<outline>
		<contour>
			<point x="396" y="693" type="line"/>
			<point x="306" y="693" type="line"/>
			<point x="306" y="685" type="line" smooth="yes"/>
			<point x="306" y="629"/>
			<point x="318" y="580"/>
			<point x="329" y="525" type="curve"/>
			<point x="281" y="552"/>
			<point x="237" y="578"/>
			<point x="182" y="597" type="curve" smooth="yes"/>
			<point x="176" y="599" type="line"/>
			<point x="148" y="515" type="line"/>
			<point x="156" y="512" type="line" smooth="yes"/>
			<point x="209" y="492"/>
			<point x="262" y="489"/>
			<point x="318" y="485" type="curve"/>
			<point x="274" y="448"/>
			<point x="235" y="416"/>
			<point x="202" y="369" type="curve" smooth="yes"/>
			<point x="197" y="362" type="line"/>
			<point x="270" y="311" type="line"/>
			<point x="274" y="317" type="line" smooth="yes"/>
			<point x="306" y="365"/>
			<point x="327" y="411"/>
			<point x="351" y="462" type="curve"/>
			<point x="375" y="411"/>
			<point x="396" y="365"/>
			<point x="428" y="317" type="curve" smooth="yes"/>
			<point x="432" y="311" type="line"/>
			<point x="505" y="362" type="line"/>
			<point x="500" y="369" type="line" smooth="yes"/>
			<point x="467" y="416"/>
			<point x="428" y="448"/>
			<point x="384" y="485" type="curve"/>
			<point x="440" y="489"/>
			<point x="493" y="492"/>
			<point x="546" y="512" type="curve" smooth="yes"/>
			<point x="554" y="515" type="line"/>
			<point x="526" y="599" type="line"/>
			<point x="520" y="597" type="line" smooth="yes"/>
			<point x="465" y="578"/>
			<point x="421" y="552"/>
			<point x="373" y="525" type="curve"/>
			<point x="384" y="580"/>
			<point x="396" y="629"/>
			<point x="396" y="685" type="curve" smooth="yes"/>
		</contour>
	</outline>
</glyph>
<glyph name="comma" format="2">
	<unicode hex="002C"/>
	<advance width="246"/>
	<outline>
		<contour>
			<point x="198" y="114" type="line"/>
			<point x="193" y="78"/>
			<point x="169" y="4"/>
			<point x="134" y="-67"/>
			<point x="90" y="-132"/>
			<point x="66" y="-159" type="qcurve"/>
			<point x="3" y="-133" type="line"/>
			<point x="23" y="-106"/>
			<point x="56" y="-42"/>
			<point x="80" y="24"/>
			<point x="96" y="87"/>
			<point x="99" y="114" type="qcurve"/>
		</contour>
	</outline>
</glyph>
<glyph name="hyphen" format="2">
	<unicode hex="002D"/>
	<advance width="293"/>
	<outline>
		<contour>
			<point x="107" y="343" type="line"/>
			<point x="349" y="343" type="line"/>
			<point x="329" y="256" type="line"/>
			<point x="87" y="256" type="line"/>
		</contour>
	</outline>
</glyph>
<glyph name="period" format="2">
	<unicode hex="002E"/>
	<advance width="246"/>
	<outline>
		<contour>
			<point x="128" y="-13" type="qcurve"/>
			<point x="100" y="-13"/>
			<point x="68" y="17"/>
			<point x="68" y="46" type="qcurve"/>
			<point x="68" y="82"/>
			<point x="111" y="121"/>
			<point x="139" y="121" type="qcurve"/>
			<point x="167" y="121"/>
			<point x="200" y="90"/>
			<point x="200" y="60" type="qcurve"/>
			<point x="200" y="43"/>
			<point x="187" y="16"/>
			<point x="167" y="-3"/>
			<point x="141" y="-13"/>
		</contour>
	</outline>
</glyph>
<glyph name="zero" format="2">
	<unicode hex="0030"/>
	<advance width="564"/>
	<outline>
		<contour>
			<point x="609" y="501" type="qcurve"/>
			<point x="609" y="452"/>
			<point x="591" y="337"/>
			<point x="556" y="222"/>
			<point x="502" y="116"/>
			<point x="429" y="34"/>
			<point x="337" y="-15"/>
			<point x="282" y="-15" type="qcurve"/>
			<point x="197" y="-15"/>
			<point x="116" y="90"/>
			<point x="116" y="193" type="qcurve"/>
			<point x="116" y="242"/>
			<point x="134" y="357"/>
			<point x="169" y="472"/>
			<point x="223" y="578"/>
			<point x="296" y="660"/>
			<point x="387" y="709"/>
			<point x="443" y="709" type="qcurve"/>
			<point x="528" y="709"/>
			<point x="609" y="604"/>
		</contour>
		<contour>
			<point x="514" y="489" type="qcurve"/>
			<point x="514" y="564"/>
			<point x="478" y="628"/>
			<point x="432" y="628" type="qcurve"/>
			<point x="401" y="628"/>
			<point x="343" y="590"/>
			<point x="294" y="526"/>
			<point x="254" y="441"/>
			<point x="226" y="347"/>
			<point x="211" y="249"/>
			<point x="211" y="205" type="qcurve"/>
			<point x="211" y="130"/>
			<point x="247" y="66"/>
			<point x="293" y="66" type="qcurve"/>
			<point x="325" y="66"/>
			<point x="382" y="104"/>
			<point x="431" y="168"/>
			<point x="471" y="253"/>
			<point x="499" y="347"/>
			<point x="514" y="444"/>
		</contour>
	</outline>
</glyph>
<glyph name="one" format="2">
	<unicode hex="0031"/>
	<advance width="564"/>
	<outline>
		<contour>
			<point x="408" y="555" type="line"/>
			<point x="394" y="544"/>
			<point x="355" y="521"/>
			<point x="310" y="499"/>
			<point x="262" y="480"/>
			<point x="240" y="473" type="qcurve"/>
			<point x="225" y="550" type="line"/>
			<point x="285" y="572"/>
			<point x="410" y="641"/>
			<point x="467" y="693" type="qcurve"/>
			<point x="534" y="693" type="line"/>
			<point x="368" y="0" type="line"/>
			<point x="275" y="0" type="line"/>
		</contour>
	</outline>
</glyph>
<glyph name="two" format="2">
	<unicode hex="0032"/>
	<advance width="564"/>
	<outline>
		<contour>
			<point x="589" y="552" type="qcurve"/>
			<point x="589" y="499"/>
			<point x="555" y="419"/>
			<point x="497" y="352"/>
			<point x="421" y="293"/>
			<point x="378" y="261" type="qcurve"/>
			<point x="353" y="242"/>
			<point x="297" y="198"/>
			<point x="247" y="151"/>
			<point x="209" y="102"/>
			<point x="201" y="78" type="qcurve"/>
			<point x="502" y="78" type="line"/>
			<point x="484" y="0" type="line"/>
			<point x="79" y="0" type="line"/>
			<point x="87" y="53"/>
			<point x="128" y="139"/>
			<point x="185" y="211"/>
			<point x="254" y="271"/>
			<point x="291" y="299" type="qcurve"/>
			<point x="330" y="328"/>
			<point x="403" y="383"/>
			<point x="459" y="440"/>
			<point x="493" y="502"/>
			<point x="493" y="539" type="qcurve"/>
			<point x="493" y="581"/>
			<point x="448" y="628"/>
			<point x="397" y="628" type="qcurve"/>
			<point x="369" y="628"/>
			<point x="319" y="614"/>
			<point x="279" y="594"/>
			<point x="248" y="571"/>
			<point x="239" y="562" type="qcurve"/>
			<point x="207" y="634" type="line"/>
			<point x="221" y="647"/>
			<point x="263" y="673"/>
			<point x="316" y="695"/>
			<point x="377" y="709"/>
			<point x="409" y="709" type="qcurve"/>
			<point x="457" y="709"/>
			<point x="526" y="682"/>
			<point x="569" y="638"/>
			<point x="589" y="582"/>
		</contour>
	</outline>
</glyph>
<glyph name="three" format="2">
	<unicode hex="0033"/>
	<advance width="564"/>
	<outline>
		<contour>
			<point x="249" y="67" type="qcurve"/>
			<point x="289" y="67"/>
			<point x="358" y="86"/>
			<point x="409" y="124"/>
			<point x="437" y="181"/>
			<point x="437" y="219" type="qcurve"/>
			<point x="437" y="279"/>
			<point x="350" y="331"/>
			<point x="278" y="331" type="qcurve"/>
			<point x="257" y="331" type="line"/>
			<point x="275" y="407" type="line"/>
			<point x="306" y="407" type="line"/>
			<point x="339" y="407"/>
			<point x="402" y="424"/>
			<point x="453" y="459"/>
			<point x="484" y="510"/>
			<point x="484" y="544" type="qcurve"/>
			<point x="484" y="586"/>
			<point x="433" y="629"/>
			<point x="385" y="629" type="qcurve"/>
			<point x="342" y="629"/>
			<point x="273" y="602"/>
			<point x="248" y="586" type="qcurve"/>
			<point x="226" y="658" type="line"/>
			<point x="239" y="667"/>
			<point x="277" y="685"/>
			<point x="323" y="700"/>
			<point x="374" y="709"/>
			<point x="400" y="709" type="qcurve"/>
			<point x="447" y="709"/>
			<point x="514" y="685"/>
			<point x="558" y="643"/>
			<point x="578" y="586"/>
			<point x="578" y="554" type="qcurve"/>
			<point x="578" y="488"/>
			<point x="501" y="395"/>
			<point x="435" y="369" type="qcurve"/>
			<point x="452" y="362"/>
			<point x="487" y="337"/>
			<point x="514" y="300"/>
			<point x="531" y="251"/>
			<point x="531" y="221" type="qcurve"/>
			<point x="531" y="168"/>
			<point x="494" y="81"/>
			<point x="422" y="19"/>
			<point x="316" y="-15"/>
			<point x="246" y="-15" type="qcurve"/>
			<point x="211" y="-15"/>
			<point x="152" y="-5"/>
			<point x="106" y="8"/>
			<point x="75" y="22"/>
			<point x="69" y="26" type="qcurve"/>
			<point x="104" y="105" type="line"/>
			<point x="111" y="101"/>
			<point x="136" y="88"/>
			<point x="172" y="76"/>
			<point x="219" y="67"/>
		</contour>
	</outline>
</glyph>
<glyph name="four" format="2">
	<unicode hex="0034"/>
	<advance width="564"/>
	<outline>
		<contour>
			<point x="481" y="177" type="line"/>
			<point x="439" y="0" type="line"/>
			<point x="349" y="0" type="line"/>
			<point x="391" y="177" type="line"/>
			<point x="87" y="177" type="line"/>
			<point x="102" y="240" type="line"/>
			<point x="130" y="287"/>
			<point x="221" y="407"/>
			<point x="332" y="531"/>
			<point x="454" y="648"/>
			<point x="514" y="693" type="qcurve"/>
			<point x="605" y="693" type="line"/>
			<point x="499" y="253" type="line"/>
			<point x="580" y="253" type="line"/>
			<point x="562" y="177" type="line"/>
		</contour>
		<contour>
			<point x="488" y="577" type="line"/>
			<point x="452" y="547"/>
			<point x="374" y="472"/>
			<point x="298" y="388"/>
			<point x="228" y="298"/>
			<point x="200" y="253" type="qcurve"/>
			<point x="410" y="253" type="line"/>
		</contour>
	</outline>
</glyph>
<glyph name="five" format="2">
	<unicode hex="0035"/>
	<advance width="564"/>
	<outline>
		<contour>
			<point x="368" y="615" type="line"/>
			<point x="362" y="595"/>
			<point x="345" y="543"/>
			<point x="327" y="490"/>
			<point x="311" y="442"/>
			<point x="306" y="426" type="qcurve"/>
			<point x="420" y="411"/>
			<point x="535" y="317"/>
			<point x="535" y="230" type="qcurve"/>
			<point x="535" y="179"/>
			<point x="501" y="89"/>
			<point x="429" y="23"/>
			<point x="318" y="-15"/>
			<point x="242" y="-15" type="qcurve"/>
			<point x="210" y="-15"/>
			<point x="153" y="-5"/>
			<point x="108" y="8"/>
			<point x="78" y="21"/>
			<point x="73" y="24" type="qcurve"/>
			<point x="109" y="102" type="line"/>
			<point x="123" y="94"/>
			<point x="192" y="67"/>
			<point x="247" y="67" type="qcurve"/>
			<point x="288" y="67"/>
			<point x="359" y="88"/>
			<point x="411" y="127"/>
			<point x="441" y="185"/>
			<point x="441" y="221" type="qcurve"/>
			<point x="441" y="267"/>
			<point x="391" y="320"/>
			<point x="317" y="347"/>
			<point x="231" y="355"/>
			<point x="195" y="357" type="qcurve"/>
			<point x="211" y="403"/>
			<point x="241" y="487"/>
			<point x="268" y="568"/>
			<point x="292" y="649"/>
			<point x="303" y="693" type="qcurve"/>
			<point x="627" y="693" type="line"/>
			<point x="609" y="615" type="line"/>
		</contour>
	</outline>
</glyph>
<glyph name="six" format="2">
	<unicode hex="0036"/>
	<advance width="564"/>
	<outline>
		<contour>
			<point x="236" y="318" type="qcurve"/>
			<point x="226" y="286"/>
			<point x="216" y="219"/>
			<point x="216" y="193" type="qcurve"/>
			<point x="216" y="130"/>
			<point x="261" y="61"/>
			<point x="318" y="61" type="qcurve"/>
			<point x="357" y="61"/>
			<point x="417" y="94"/>
			<point x="458" y="148"/>
			<point x="479" y="215"/>
			<point x="479" y="250" type="qcurve"/>
			<point x="479" y="298"/>
			<point x="432" y="348"/>
			<point x="378" y="348" type="qcurve"/>
			<point x="343" y="348"/>
			<point x="272" y="335"/>
		</contour>
		<contour>
			<point x="124" y="185" type="qcurve"/>
			<point x="124" y="290"/>
			<point x="195" y="476"/>
			<point x="324" y="615"/>
			<point x="507" y="696"/>
			<point x="620" y="696" type="qcurve"/>
			<point x="633" y="696" type="line"/>
			<point x="622" y="617" type="line"/>
			<point x="617" y="617" type="line"/>
			<point x="546" y="617"/>
			<point x="431" y="580"/>
			<point x="341" y="519"/>
			<point x="278" y="437"/>
			<point x="260" y="392" type="qcurve"/>
			<point x="292" y="408"/>
			<point x="366" y="425"/>
			<point x="400" y="425" type="qcurve"/>
			<point x="445" y="425"/>
			<point x="510" y="398"/>
			<point x="552" y="353"/>
			<point x="571" y="293"/>
			<point x="571" y="260" type="qcurve"/>
			<point x="571" y="210"/>
			<point x="540" y="111"/>
			<point x="476" y="33"/>
			<point x="375" y="-15"/>
			<point x="305" y="-15" type="qcurve"/>
			<point x="217" y="-15"/>
			<point x="124" y="92"/>
		</contour>
	</outline>
</glyph>
<glyph name="seven" format="2">
	<unicode hex="0037"/>
	<advance width="564"/>
	<outline>
		<contour>
			<point x="256" y="0" type="line"/>
			<point x="328" y="247"/>
			<point x="529" y="514"/>
			<point x="644" y="613" type="curve"/>
			<point x="663" y="693" type="line"/>
			<point x="228" y="693" type="line"/>
			<point x="209" y="612" type="line"/>
			<point x="538" y="612" type="line"/>
			<point x="401" y="491"/>
			<point x="218" y="212"/>
			<point x="158" y="0" type="curve"/>
		</contour>
	</outline>
</glyph>
<glyph name="eight" format="2">
	<unicode hex="0038"/>
	<advance width="564"/>
	<outline>
		<contour>
			<point x="469" y="349" type="qcurve"/>
			<point x="503" y="326"/>
			<point x="550" y="259"/>
			<point x="550" y="206" type="qcurve"/>
			<point x="550" y="162"/>
			<point x="517" y="82"/>
			<point x="451" y="21"/>
			<point x="351" y="-15"/>
			<point x="285" y="-15" type="qcurve"/>
			<point x="235" y="-15"/>
			<point x="165" y="13"/>
			<point x="121" y="57"/>
			<point x="101" y="113"/>
			<point x="101" y="141" type="qcurve"/>
			<point x="101" y="213"/>
			<point x="186" y="325"/>
			<point x="261" y="362" type="qcurve"/>
			<point x="200" y="410"/>
			<point x="200" y="486" type="qcurve"/>
			<point x="200" y="531"/>
			<point x="233" y="611"/>
			<point x="295" y="673"/>
			<point x="384" y="709"/>
			<point x="440" y="709" type="qcurve"/>
			<point x="486" y="709"/>
			<point x="553" y="683"/>
			<point x="595" y="639"/>
			<point x="615" y="584"/>
			<point x="615" y="555" type="qcurve"/>
			<point x="615" y="486"/>
			<point x="538" y="383"/>
		</contour>
		<contour>
			<point x="330" y="327" type="qcurve"/>
			<point x="303" y="315"/>
			<point x="253" y="279"/>
			<point x="215" y="235"/>
			<point x="193" y="184"/>
			<point x="193" y="157" type="qcurve"/>
			<point x="193" y="137"/>
			<point x="203" y="103"/>
			<point x="227" y="76"/>
			<point x="267" y="61"/>
			<point x="297" y="61" type="qcurve"/>
			<point x="330" y="61"/>
			<point x="389" y="81"/>
			<point x="433" y="117"/>
			<point x="458" y="167"/>
			<point x="458" y="197" type="qcurve"/>
			<point x="458" y="246"/>
			<point x="390" y="306"/>
		</contour>
		<contour>
			<point x="396" y="381" type="qcurve"/>
			<point x="421" y="393"/>
			<point x="467" y="425"/>
			<point x="502" y="466"/>
			<point x="523" y="515"/>
			<point x="523" y="545" type="qcurve"/>
			<point x="523" y="560"/>
			<point x="515" y="592"/>
			<point x="494" y="617"/>
			<point x="457" y="633"/>
			<point x="429" y="633" type="qcurve"/>
			<point x="399" y="633"/>
			<point x="349" y="612"/>
			<point x="312" y="576"/>
			<point x="291" y="525"/>
			<point x="291" y="495" type="qcurve"/>
			<point x="291" y="453"/>
			<point x="341" y="399"/>
		</contour>
	</outline>
</glyph>
<glyph name="nine" format="2">
	<unicode hex="0039"/>
	<advance width="564"/>
	<outline>
		<contour>
			<point x="326" y="272" type="qcurve"/>
			<point x="281" y="272"/>
			<point x="216" y="298"/>
			<point x="174" y="343"/>
			<point x="154" y="403"/>
			<point x="154" y="436" type="qcurve"/>
			<point x="154" y="486"/>
			<point x="185" y="584"/>
			<point x="250" y="661"/>
			<point x="348" y="708"/>
			<point x="414" y="708" type="qcurve"/>
			<point x="507" y="708"/>
			<point x="601" y="601"/>
			<point x="601" y="508" type="qcurve"/>
			<point x="601" y="401"/>
			<point x="534" y="215"/>
			<point x="408" y="77"/>
			<point x="226" y="-2"/>
			<point x="111" y="-2" type="qcurve"/>
			<point x="106" y="-2"/>
			<point x="95" y="-2"/>
			<point x="85" y="-1" type="qcurve"/>
			<point x="102" y="78" type="line"/>
			<point x="105" y="77"/>
			<point x="118" y="77"/>
			<point x="120" y="77" type="qcurve"/>
			<point x="190" y="77"/>
			<point x="301" y="112"/>
			<point x="386" y="174"/>
			<point x="446" y="256"/>
			<point x="466" y="304" type="qcurve"/>
			<point x="434" y="288"/>
			<point x="360" y="272"/>
		</contour>
		<contour>
			<point x="348" y="349" type="qcurve"/>
			<point x="383" y="349"/>
			<point x="454" y="362"/>
			<point x="490" y="379" type="qcurve"/>
			<point x="499" y="409"/>
			<point x="509" y="476"/>
			<point x="509" y="509" type="qcurve"/>
			<point x="509" y="564"/>
			<point x="461" y="632"/>
			<point x="407" y="632" type="qcurve"/>
			<point x="368" y="632"/>
			<point x="308" y="599"/>
			<point x="267" y="547"/>
			<point x="246" y="480"/>
			<point x="246" y="446" type="qcurve"/>
			<point x="246" y="398"/>
			<point x="294" y="349"/>
		</contour>
	</outline>
</glyph>
<glyph name="less" format="2">
	<unicode hex="003C"/>
	<advance width="564"/>
	<outline>
		<contour>
			<point x="499" y="74" type="line"/>
			<point x="119" y="257" type="line"/>
			<point x="138" y="337" type="line"/>
			<point x="606" y="520" type="line"/>
			<point x="612" y="438" type="line"/>
			<point x="230" y="292" type="line"/>
			<point x="541" y="147" type="line"/>
		</contour>
	</outline>
</glyph>
<glyph name="equal" format="2">
	<unicode hex="003D"/>
	<advance width="564"/>
	<outline>
		<contour>
			<point x="145" y="364" type="line"/>
			<point x="594" y="364" type="line"/>
			<point x="613" y="443" type="line"/>
			<point x="164" y="443" type="line"/>
		</contour>
		<contour>
			<point x="94" y="151" type="line"/>
			<point x="543" y="151" type="line"/>
			<point x="562" y="230" type="line"/>
			<point x="113" y="230" type="line"/>
		</contour>
	</outline>
</glyph>
<glyph name="question" format="2">
	<unicode hex="003F"/>
	<advance width="384"/>
	<outline>
		<contour>
			<point x="488" y="567" type="qcurve"/>
			<point x="488" y="534"/>
			<point x="464" y="478"/>
			<point x="425" y="431"/>
			<point x="377" y="390"/>
			<point x="352" y="371" type="qcurve"/>
			<point x="315" y="342"/>
			<point x="254" y="279"/>
			<point x="243" y="235" type="qcurve"/>
			<point x="241" y="229"/>
			<point x="240" y="218"/>
			<point x="240" y="216" type="qcurve"/>
			<point x="159" y="216" type="line"/>
			<point x="160" y="228"/>
			<point x="162" y="248"/>
			<point x="164" y="258" type="qcurve"/>
			<point x="176" y="309"/>
			<point x="246" y="382"/>
			<point x="291" y="417" type="qcurve"/>
			<point x="311" y="433"/>
			<point x="349" y="465"/>
			<point x="378" y="499"/>
			<point x="395" y="538"/>
			<point x="395" y="561" type="qcurve"/>
			<point x="395" y="572"/>
			<point x="389" y="598"/>
			<point x="370" y="619"/>
			<point x="336" y="633"/>
			<point x="308" y="633" type="qcurve"/>
			<point x="260" y="633"/>
			<point x="196" y="611"/>
			<point x="178" y="602" type="qcurve"/>
			<point x="168" y="674" type="line"/>
			<point x="192" y="688"/>
			<point x="275" y="709"/>
			<point x="320" y="709" type="qcurve"/>
			<point x="367" y="709"/>
			<point x="431" y="687"/>
			<point x="471" y="649"/>
			<point x="488" y="597"/>
		</contour>
		<contour>
			<point x="176" y="-13" type="qcurve"/>
			<point x="148" y="-13"/>
			<point x="116" y="17"/>
			<point x="116" y="46" type="qcurve"/>
			<point x="116" y="82"/>
			<point x="159" y="121"/>
			<point x="187" y="121" type="qcurve"/>
			<point x="215" y="121"/>
			<point x="248" y="90"/>
			<point x="248" y="60" type="qcurve"/>
			<point x="248" y="43"/>
			<point x="235" y="16"/>
			<point x="215" y="-3"/>
			<point x="189" y="-13"/>
		</contour>
	</outline>
</glyph>
<glyph name="at" format="2">
	<unicode hex="0040"/>
	<advance width="931"/>
	<outline>
		<contour>
			<point x="694" y="43" type="qcurve"/>
			<point x="631" y="43"/>
			<point x="605" y="78" type="qcurve"/>
			<point x="582" y="64"/>
			<point x="520" y="47"/>
			<point x="485" y="47" type="qcurve"/>
			<point x="410" y="47"/>
			<point x="320" y="132"/>
			<point x="320" y="217" type="qcurve"/>
			<point x="320" y="274"/>
			<point x="359" y="381"/>
			<point x="433" y="462"/>
			<point x="539" y="511"/>
			<point x="607" y="511" type="qcurve"/>
			<point x="659" y="511"/>
			<point x="736" y="493"/>
			<point x="756" y="485" type="qcurve"/>
			<point x="683" y="181" type="line"/>
			<point x="678" y="166"/>
			<point x="678" y="152" type="qcurve"/>
			<point x="678" y="140"/>
			<point x="691" y="122"/>
			<point x="711" y="122" type="qcurve"/>
			<point x="753" y="122"/>
			<point x="813" y="171"/>
			<point x="853" y="248"/>
			<point x="872" y="340"/>
			<point x="872" y="383" type="qcurve"/>
			<point x="872" y="438"/>
			<point x="844" y="530"/>
			<point x="781" y="596"/>
			<point x="679" y="633"/>
			<point x="605" y="633" type="qcurve"/>
			<point x="518" y="633"/>
			<point x="368" y="558"/>
			<point x="258" y="433"/>
			<point x="196" y="268"/>
			<point x="196" y="178" type="qcurve"/>
			<point x="196" y="111"/>
			<point x="235" y="15"/>
			<point x="305" y="-47"/>
			<point x="403" y="-77"/>
			<point x="462" y="-77" type="qcurve"/>
			<point x="520" y="-77"/>
			<point x="599" y="-62"/>
			<point x="610" y="-58" type="qcurve"/>
			<point x="603" y="-132" type="line"/>
			<point x="594" y="-135"/>
			<point x="560" y="-142"/>
			<point x="517" y="-149"/>
			<point x="468" y="-153"/>
			<point x="444" y="-153" type="qcurve"/>
			<point x="372" y="-153"/>
			<point x="250" y="-112"/>
			<point x="161" y="-31"/>
			<point x="111" y="89"/>
			<point x="111" y="168" type="qcurve"/>
			<point x="111" y="268"/>
			<point x="178" y="463"/>
			<point x="308" y="615"/>
			<point x="496" y="709"/>
			<point x="618" y="709" type="qcurve"/>
			<point x="781" y="709"/>
			<point x="957" y="547"/>
			<point x="957" y="389" type="qcurve"/>
			<point x="957" y="342"/>
			<point x="936" y="223"/>
			<point x="878" y="116"/>
			<point x="775" y="43"/>
		</contour>
		<contour>
			<point x="498" y="122" type="qcurve"/>
			<point x="552" y="122"/>
			<point x="590" y="142" type="qcurve"/>
			<point x="590" y="159"/>
			<point x="594" y="182"/>
			<point x="597" y="193" type="qcurve"/>
			<point x="654" y="428" type="line"/>
			<point x="649" y="430"/>
			<point x="615" y="434"/>
			<point x="595" y="434" type="qcurve"/>
			<point x="552" y="434"/>
			<point x="484" y="400"/>
			<point x="436" y="342"/>
			<point x="410" y="266"/>
			<point x="410" y="225" type="qcurve"/>
			<point x="410" y="171"/>
			<point x="455" y="122"/>
		</contour>
	</outline>
</glyph>
<glyph name="A" format="2">
	<unicode hex="0041"/>
	<advance width="636"/>
	<outline>
		<contour>
			<point x="516" y="178" type="line"/>
			<point x="523" y="122"/>
			<point x="527" y="60"/>
			<point x="534" y="0" type="curve"/>
			<point x="632" y="0" type="line"/>
			<point x="600" y="292"/>
			<point x="574" y="493"/>
			<point x="534" y="693" type="curve"/>
			<point x="439" y="693" type="line"/>
			<point x="300" y="492"/>
			<point x="159" y="269"/>
			<point x="10" y="0" type="curve"/>
			<point x="116" y="0" type="line"/>
			<point x="214" y="178" type="line"/>
		</contour>
		<contour>
			<point x="259" y="256" type="line"/>
			<point x="347" y="407"/>
			<point x="417" y="514"/>
			<point x="464" y="582" type="curve"/>
			<point x="483" y="469"/>
			<point x="496" y="363"/>
			<point x="507" y="256" type="curve"/>
		</contour>
	</outline>
</glyph>
<glyph name="B" format="2">
	<unicode hex="0042"/>
	<advance width="618"/>
	<outline>
		<contour>
			<point x="263" y="-7" type="qcurve"/>
			<point x="243" y="-7"/>
			<point x="196" y="-5"/>
			<point x="148" y="-1"/>
			<point x="102" y="6"/>
			<point x="84" y="11" type="qcurve"/>
			<point x="245" y="683" type="line"/>
			<point x="287" y="693"/>
			<point x="390" y="700"/>
			<point x="431" y="700" type="qcurve"/>
			<point x="482" y="700"/>
			<point x="567" y="683"/>
			<point x="628" y="646"/>
			<point x="663" y="586"/>
			<point x="663" y="544" type="qcurve"/>
			<point x="663" y="483"/>
			<point x="590" y="390"/>
			<point x="526" y="367" type="qcurve"/>
			<point x="569" y="351"/>
			<point x="622" y="285"/>
			<point x="622" y="237" type="qcurve"/>
			<point x="622" y="168"/>
			<point x="566" y="74"/>
			<point x="469" y="17"/>
			<point x="338" y="-7"/>
		</contour>
		<contour>
			<point x="254" y="324" type="line"/>
			<point x="196" y="78" type="line"/>
			<point x="207" y="76"/>
			<point x="251" y="73"/>
			<point x="285" y="73" type="qcurve"/>
			<point x="322" y="73"/>
			<point x="406" y="84"/>
			<point x="476" y="117"/>
			<point x="523" y="177"/>
			<point x="523" y="227" type="qcurve"/>
			<point x="523" y="276"/>
			<point x="453" y="324"/>
			<point x="375" y="324" type="qcurve"/>
		</contour>
		<contour>
			<point x="273" y="400" type="line"/>
			<point x="368" y="400" type="line"/>
			<point x="401" y="400"/>
			<point x="470" y="411"/>
			<point x="527" y="440"/>
			<point x="564" y="490"/>
			<point x="564" y="529" type="qcurve"/>
			<point x="564" y="580"/>
			<point x="488" y="620"/>
			<point x="410" y="620" type="qcurve"/>
			<point x="384" y="620"/>
			<point x="334" y="616"/>
			<point x="325" y="614" type="qcurve"/>
		</contour>
	</outline>
</glyph>
<glyph name="C" format="2">
	<unicode hex="0043"/>
	<advance width="600"/>
	<outline>
		<contour>
			<point x="387" y="-15" type="qcurve"/>
			<point x="322" y="-15"/>
			<point x="223" y="23"/>
			<point x="157" y="93"/>
			<point x="124" y="192"/>
			<point x="124" y="254" type="qcurve"/>
			<point x="124" y="344"/>
			<point x="181" y="508"/>
			<point x="286" y="634"/>
			<point x="434" y="709"/>
			<point x="525" y="709" type="qcurve"/>
			<point x="603" y="709"/>
			<point x="696" y="677"/>
			<point x="716" y="663" type="qcurve"/>
			<point x="676" y="583" type="line"/>
			<point x="653" y="598"/>
			<point x="574" y="625"/>
			<point x="520" y="625" type="qcurve"/>
			<point x="451" y="625"/>
			<point x="341" y="560"/>
			<point x="265" y="457"/>
			<point x="225" y="328"/>
			<point x="225" y="265" type="qcurve"/>
			<point x="225" y="70"/>
			<point x="394" y="70" type="qcurve"/>
			<point x="430" y="70"/>
			<point x="487" y="80"/>
			<point x="531" y="93"/>
			<point x="565" y="109"/>
			<point x="578" y="115" type="qcurve"/>
			<point x="590" y="31" type="line"/>
			<point x="578" y="24"/>
			<point x="539" y="8"/>
			<point x="487" y="-6"/>
			<point x="423" y="-15"/>
		</contour>
	</outline>
</glyph>
<glyph name="D" format="2">
	<unicode hex="0044"/>
	<advance width="691"/>
	<outline>
		<contour>
			<point x="415" y="618" type="qcurve"/>
			<point x="340" y="618"/>
			<point x="325" y="614" type="qcurve"/>
			<point x="197" y="80" type="line"/>
			<point x="205" y="78"/>
			<point x="243" y="75"/>
			<point x="286" y="75" type="qcurve"/>
			<point x="365" y="75"/>
			<point x="492" y="128"/>
			<point x="580" y="223"/>
			<point x="628" y="354"/>
			<point x="628" y="432" type="qcurve"/>
			<point x="628" y="520"/>
			<point x="526" y="618"/>
		</contour>
		<contour>
			<point x="423" y="700" type="qcurve"/>
			<point x="577" y="700"/>
			<point x="729" y="555"/>
			<point x="729" y="432" type="qcurve"/>
			<point x="729" y="346"/>
			<point x="675" y="187"/>
			<point x="561" y="65"/>
			<point x="384" y="-7"/>
			<point x="261" y="-7" type="qcurve"/>
			<point x="219" y="-7"/>
			<point x="121" y="1"/>
			<point x="84" y="11" type="qcurve"/>
			<point x="245" y="684" type="line"/>
			<point x="287" y="694"/>
			<point x="381" y="700"/>
		</contour>
	</outline>
</glyph>
<glyph name="F" format="2">
	<unicode hex="0046"/>
	<advance width="524"/>
	<outline>
		<contour>
			<point x="178" y="0" type="line"/>
			<point x="255" y="321" type="line"/>
			<point x="528" y="321" type="line"/>
			<point x="547" y="400" type="line"/>
			<point x="273" y="400" type="line"/>
			<point x="324" y="612" type="line"/>
			<point x="633" y="612" type="line"/>
			<point x="652" y="693" type="line"/>
			<point x="247" y="693" type="line"/>
			<point x="81" y="0" type="line"/>
		</contour>
	</outline>
</glyph>
<glyph name="G" format="2">
	<unicode hex="0047"/>
	<advance width="651"/>
	<outline>
		<contour>
			<point x="380" y="-14" type="curve" smooth="yes"/>
			<point x="471" y="-14"/>
			<point x="558" y="4"/>
			<point x="589" y="22" type="curve"/>
			<point x="665" y="338" type="line"/>
			<point x="570" y="338" type="line"/>
			<point x="510" y="84" type="line"/>
			<point x="493" y="77"/>
			<point x="449" y="69"/>
			<point x="400" y="69" type="curve" smooth="yes"/>
			<point x="280" y="69"/>
			<point x="225" y="134"/>
			<point x="225" y="265" type="curve" smooth="yes"/>
			<point x="225" y="434"/>
			<point x="335" y="625"/>
			<point x="525" y="625" type="curve" smooth="yes"/>
			<point x="612" y="625"/>
			<point x="664" y="593"/>
			<point x="686" y="579" type="curve"/>
			<point x="729" y="658" type="line"/>
			<point x="706" y="673"/>
			<point x="651" y="709"/>
			<point x="529" y="709" type="curve" smooth="yes"/>
			<point x="282" y="709"/>
			<point x="124" y="493"/>
			<point x="124" y="254" type="curve" smooth="yes"/>
			<point x="124" y="90"/>
			<point x="212" y="-14"/>
		</contour>
	</outline>
</glyph>
<glyph name="K" format="2">
	<unicode hex="004B"/>
	<advance width="614"/>
	<outline>
		<contour>
			<point x="628" y="693" type="line"/>
			<point x="554" y="624"/>
			<point x="389" y="478"/>
			<point x="271" y="390" type="curve"/>
			<point x="344" y="693" type="line"/>
			<point x="247" y="693" type="line"/>
			<point x="81" y="0" type="line"/>
			<point x="178" y="0" type="line"/>
			<point x="258" y="334" type="line"/>
			<point x="346" y="262"/>
			<point x="436" y="123"/>
			<point x="506" y="0" type="curve"/>
			<point x="614" y="0" type="line"/>
			<point x="553" y="122"/>
			<point x="446" y="283"/>
			<point x="363" y="361" type="curve"/>
			<point x="489" y="460"/>
			<point x="648" y="602"/>
			<point x="750" y="693" type="curve"/>
		</contour>
	</outline>
</glyph>
<glyph name="M" format="2">
	<unicode hex="004D"/>
	<advance width="847"/>
	<outline>
		<contour>
			<point x="783" y="544" type="qcurve"/>
			<point x="767" y="522"/>
			<point x="719" y="452"/>
			<point x="663" y="368"/>
			<point x="603" y="277"/>
			<point x="547" y="192"/>
			<point x="499" y="119"/>
			<point x="484" y="96" type="qcurve"/>
			<point x="406" y="96" type="line"/>
			<point x="402" y="120"/>
			<point x="389" y="193"/>
			<point x="373" y="278"/>
			<point x="356" y="369"/>
			<point x="339" y="453"/>
			<point x="325" y="522"/>
			<point x="320" y="544" type="qcurve"/>
			<point x="278" y="415"/>
			<point x="198" y="141"/>
			<point x="160" y="0" type="qcurve"/>
			<point x="64" y="0" type="line"/>
			<point x="88" y="90"/>
			<point x="141" y="273"/>
			<point x="196" y="450"/>
			<point x="251" y="618"/>
			<point x="277" y="693" type="qcurve"/>
			<point x="372" y="693" type="line"/>
			<point x="384" y="649"/>
			<point x="411" y="529"/>
			<point x="438" y="398"/>
			<point x="461" y="268"/>
			<point x="469" y="215" type="qcurve"/>
			<point x="505" y="269"/>
			<point x="592" y="399"/>
			<point x="680" y="530"/>
			<point x="763" y="649"/>
			<point x="796" y="693" type="qcurve"/>
			<point x="889" y="693" type="line"/>
			<point x="872" y="524"/>
			<point x="815" y="175"/>
			<point x="781" y="0" type="qcurve"/>
			<point x="684" y="0" type="line"/>
			<point x="714" y="144"/>
			<point x="764" y="415"/>
		</contour>
	</outline>
</glyph>
<glyph name="N" format="2">
	<unicode hex="004E"/>
	<advance width="698"/>
	<outline>
		<contour>
			<point x="528" y="0" type="line"/>
			<point x="510" y="58"/>
			<point x="460" y="206"/>
			<point x="401" y="358"/>
			<point x="339" y="501"/>
			<point x="309" y="554" type="qcurve"/>
			<point x="176" y="0" type="line"/>
			<point x="81" y="0" type="line"/>
			<point x="247" y="693" type="line"/>
			<point x="330" y="693" type="line"/>
			<point x="362" y="639"/>
			<point x="429" y="502"/>
			<point x="490" y="358"/>
			<point x="542" y="220"/>
			<point x="559" y="165" type="qcurve"/>
			<point x="683" y="693" type="line"/>
			<point x="778" y="693" type="line"/>
			<point x="613" y="0" type="line"/>
		</contour>
	</outline>
</glyph>
<glyph name="O" format="2">
	<unicode hex="004F"/>
	<advance width="739"/>
	<outline>
		<contour>
			<point x="525" y="709" type="curve" smooth="yes"/>
			<point x="258" y="709"/>
			<point x="124" y="469"/>
			<point x="124" y="249" type="curve" smooth="yes"/>
			<point x="124" y="73"/>
			<point x="228" y="-15"/>
			<point x="376" y="-15" type="curve" smooth="yes"/>
			<point x="642" y="-15"/>
			<point x="777" y="225"/>
			<point x="777" y="445" type="curve" smooth="yes"/>
			<point x="777" y="621"/>
			<point x="673" y="709"/>
		</contour>
		<contour>
			<point x="386" y="69" type="curve" smooth="yes"/>
			<point x="274" y="69"/>
			<point x="225" y="142"/>
			<point x="225" y="261" type="curve" smooth="yes"/>
			<point x="225" y="434"/>
			<point x="335" y="625"/>
			<point x="515" y="625" type="curve" smooth="yes"/>
			<point x="627" y="625"/>
			<point x="676" y="552"/>
			<point x="676" y="433" type="curve" smooth="yes"/>
			<point x="676" y="260"/>
			<point x="566" y="69"/>
		</contour>
	</outline>
</glyph>
<glyph name="P" format="2">
	<unicode hex="0050"/>
	<advance width="590"/>
	<outline>
		<contour>
			<point x="423" y="700" type="qcurve"/>
			<point x="544" y="700"/>
			<point x="667" y="608"/>
			<point x="667" y="520" type="qcurve"/>
			<point x="667" y="452"/>
			<point x="616" y="353"/>
			<point x="522" y="289"/>
			<point x="390" y="258"/>
			<point x="309" y="258" type="qcurve"/>
			<point x="240" y="258" type="line"/>
			<point x="178" y="0" type="line"/>
			<point x="81" y="0" type="line"/>
			<point x="245" y="684" type="line"/>
			<point x="287" y="694"/>
			<point x="381" y="700"/>
		</contour>
		<contour>
			<point x="411" y="618" type="qcurve"/>
			<point x="340" y="618"/>
			<point x="325" y="614" type="qcurve"/>
			<point x="259" y="339" type="line"/>
			<point x="322" y="339" type="line"/>
			<point x="364" y="339"/>
			<point x="452" y="354"/>
			<point x="522" y="392"/>
			<point x="567" y="459"/>
			<point x="567" y="512" type="qcurve"/>
			<point x="567" y="569"/>
			<point x="483" y="618"/>
		</contour>
	</outline>
</glyph>
<glyph name="Q" format="2">
	<unicode hex="0051"/>
	<advance width="739"/>
	<outline>
		<contour>
			<point x="433" y="-11" type="qcurve"/>
			<point x="432" y="-14"/>
			<point x="432" y="-22"/>
			<point x="432" y="-24" type="qcurve"/>
			<point x="432" y="-44"/>
			<point x="463" y="-72"/>
			<point x="514" y="-92"/>
			<point x="581" y="-105"/>
			<point x="617" y="-109" type="qcurve"/>
			<point x="583" y="-185" type="line"/>
			<point x="548" y="-181"/>
			<point x="462" y="-165"/>
			<point x="387" y="-130"/>
			<point x="337" y="-72"/>
			<point x="337" y="-26" type="qcurve"/>
			<point x="337" y="-24"/>
			<point x="337" y="-18"/>
			<point x="338" y="-13" type="qcurve"/>
			<point x="242" y="-3"/>
			<point x="124" y="129"/>
			<point x="124" y="249" type="qcurve"/>
			<point x="124" y="331"/>
			<point x="174" y="496"/>
			<point x="275" y="627"/>
			<point x="425" y="709"/>
			<point x="525" y="709" type="qcurve"/>
			<point x="580" y="709"/>
			<point x="673" y="676"/>
			<point x="740" y="610"/>
			<point x="777" y="511"/>
			<point x="777" y="445" type="qcurve"/>
			<point x="777" y="368"/>
			<point x="734" y="216"/>
			<point x="647" y="89"/>
			<point x="518" y="1"/>
		</contour>
		<contour>
			<point x="386" y="69" type="qcurve"/>
			<point x="453" y="69"/>
			<point x="561" y="134"/>
			<point x="636" y="238"/>
			<point x="676" y="368"/>
			<point x="676" y="433" type="qcurve"/>
			<point x="676" y="522"/>
			<point x="599" y="625"/>
			<point x="515" y="625" type="qcurve"/>
			<point x="447" y="625"/>
			<point x="340" y="560"/>
			<point x="265" y="456"/>
			<point x="225" y="326"/>
			<point x="225" y="261" type="qcurve"/>
			<point x="225" y="172"/>
			<point x="302" y="69"/>
		</contour>
	</outline>
</glyph>
<glyph name="R" format="2">
	<unicode hex="0052"/>
	<advance width="609"/>
	<outline>
		<contour>
			<point x="423" y="700" type="qcurve"/>
			<point x="534" y="700"/>
			<point x="664" y="610"/>
			<point x="664" y="523" type="qcurve"/>
			<point x="664" y="435"/>
			<point x="561" y="316"/>
			<point x="468" y="290" type="qcurve"/>
			<point x="480" y="269"/>
			<point x="512" y="204"/>
			<point x="546" y="125"/>
			<point x="578" y="40"/>
			<point x="590" y="0" type="qcurve"/>
			<point x="491" y="0" type="line"/>
			<point x="477" y="38"/>
			<point x="447" y="116"/>
			<point x="416" y="188"/>
			<point x="385" y="251"/>
			<point x="372" y="275" type="qcurve"/>
			<point x="359" y="274"/>
			<point x="333" y="273"/>
			<point x="320" y="273" type="qcurve"/>
			<point x="243" y="273" type="line"/>
			<point x="178" y="0" type="line"/>
			<point x="81" y="0" type="line"/>
			<point x="245" y="684" type="line"/>
			<point x="287" y="694"/>
			<point x="381" y="700"/>
		</contour>
		<contour>
			<point x="411" y="618" type="qcurve"/>
			<point x="340" y="618"/>
			<point x="325" y="614" type="qcurve"/>
			<point x="262" y="352" type="line"/>
			<point x="321" y="352" type="line"/>
			<point x="362" y="352"/>
			<point x="448" y="364"/>
			<point x="519" y="399"/>
			<point x="564" y="462"/>
			<point x="564" y="514" type="qcurve"/>
			<point x="564" y="570"/>
			<point x="479" y="618"/>
		</contour>
	</outline>
</glyph>
<glyph name="S" format="2">
	<unicode hex="0053"/>
	<advance width="517"/>
	<outline>
		<contour>
			<point x="246" y="69" type="qcurve"/>
			<point x="277" y="69"/>
			<point x="338" y="82"/>
			<point x="386" y="112"/>
			<point x="416" y="161"/>
			<point x="416" y="197" type="qcurve"/>
			<point x="416" y="222"/>
			<point x="397" y="259"/>
			<point x="364" y="288"/>
			<point x="319" y="313"/>
			<point x="292" y="327" type="qcurve"/>
			<point x="269" y="339"/>
			<point x="222" y="367"/>
			<point x="185" y="408"/>
			<point x="162" y="464"/>
			<point x="162" y="503" type="qcurve"/>
			<point x="162" y="548"/>
			<point x="197" y="624"/>
			<point x="265" y="679"/>
			<point x="364" y="709"/>
			<point x="428" y="709" type="qcurve"/>
			<point x="458" y="709"/>
			<point x="512" y="700"/>
			<point x="557" y="686"/>
			<point x="591" y="671"/>
			<point x="599" y="665" type="qcurve"/>
			<point x="554" y="589" type="line"/>
			<point x="537" y="603"/>
			<point x="462" y="626"/>
			<point x="411" y="626" type="qcurve"/>
			<point x="379" y="626"/>
			<point x="324" y="613"/>
			<point x="284" y="585"/>
			<point x="260" y="542"/>
			<point x="260" y="512" type="qcurve"/>
			<point x="260" y="486"/>
			<point x="276" y="451"/>
			<point x="304" y="424"/>
			<point x="345" y="402"/>
			<point x="369" y="390" type="qcurve"/>
			<point x="399" y="375"/>
			<point x="452" y="344"/>
			<point x="492" y="302"/>
			<point x="515" y="246"/>
			<point x="515" y="206" type="qcurve"/>
			<point x="515" y="151"/>
			<point x="472" y="68"/>
			<point x="397" y="13"/>
			<point x="294" y="-15"/>
			<point x="234" y="-15" type="qcurve"/>
			<point x="194" y="-15"/>
			<point x="129" y="-4"/>
			<point x="80" y="12"/>
			<point x="46" y="29"/>
			<point x="37" y="36" type="qcurve"/>
			<point x="82" y="115" type="line"/>
			<point x="101" y="102"/>
			<point x="183" y="69"/>
		</contour>
	</outline>
</glyph>
<glyph name="T" format="2">
	<unicode hex="0054"/>
	<advance width="555"/>
	<outline>
		<contour>
			<point x="184" y="693" type="line"/>
			<point x="165" y="612" type="line"/>
			<point x="374" y="612" type="line"/>
			<point x="227" y="0" type="line"/>
			<point x="324" y="0" type="line"/>
			<point x="471" y="612" type="line"/>
			<point x="680" y="612" type="line"/>
			<point x="699" y="693" type="line"/>
		</contour>
	</outline>
</glyph>
<glyph name="U" format="2">
	<unicode hex="0055"/>
	<advance width="666"/>
	<outline>
		<contour>
			<point x="334" y="-15" type="qcurve"/>
			<point x="282" y="-15"/>
			<point x="206" y="16"/>
			<point x="156" y="69"/>
			<point x="132" y="142"/>
			<point x="132" y="184" type="qcurve"/>
			<point x="132" y="206"/>
			<point x="140" y="260"/>
			<point x="145" y="283" type="qcurve"/>
			<point x="243" y="693" type="line"/>
			<point x="340" y="693" type="line"/>
			<point x="240" y="277" type="line"/>
			<point x="235" y="258"/>
			<point x="229" y="212"/>
			<point x="229" y="192" type="qcurve"/>
			<point x="229" y="166"/>
			<point x="241" y="122"/>
			<point x="270" y="89"/>
			<point x="316" y="70"/>
			<point x="349" y="70" type="qcurve"/>
			<point x="434" y="70"/>
			<point x="528" y="165"/>
			<point x="552" y="269" type="qcurve"/>
			<point x="654" y="693" type="line"/>
			<point x="751" y="693" type="line"/>
			<point x="647" y="258" type="line"/>
			<point x="633" y="201"/>
			<point x="596" y="101"/>
			<point x="528" y="28"/>
			<point x="419" y="-15"/>
		</contour>
	</outline>
</glyph>
<glyph name="V" format="2">
	<unicode hex="0056"/>
	<advance width="623"/>
	<outline>
		<contour>
			<point x="331" y="115" type="qcurve"/>
			<point x="373" y="175"/>
			<point x="460" y="313"/>
			<point x="547" y="462"/>
			<point x="630" y="616"/>
			<point x="668" y="693" type="qcurve"/>
			<point x="775" y="693" type="line"/>
			<point x="720" y="589"/>
			<point x="615" y="402"/>
			<point x="512" y="231"/>
			<point x="409" y="74"/>
			<point x="355" y="0" type="qcurve"/>
			<point x="260" y="0" type="line"/>
			<point x="245" y="75"/>
			<point x="219" y="228"/>
			<point x="197" y="396"/>
			<point x="176" y="583"/>
			<point x="166" y="693" type="qcurve"/>
			<point x="266" y="693" type="line"/>
			<point x="282" y="515"/>
			<point x="311" y="233"/>
		</contour>
	</outline>
</glyph>
<glyph name="W" format="2">
	<unicode hex="0057"/>
	<advance width="916"/>
	<outline>
		<contour>
			<point x="637" y="609" type="line"/>
			<point x="645" y="475"/>
			<point x="674" y="223"/>
			<point x="688" y="124" type="qcurve"/>
			<point x="718" y="180"/>
			<point x="783" y="314"/>
			<point x="848" y="461"/>
			<point x="913" y="616"/>
			<point x="943" y="693" type="qcurve"/>
			<point x="1046" y="693" type="line"/>
			<point x="966" y="495"/>
			<point x="807" y="153"/>
			<point x="719" y="0" type="qcurve"/>
			<point x="621" y="0" type="line"/>
			<point x="604" y="106"/>
			<point x="572" y="331"/>
			<point x="562" y="464" type="qcurve"/>
			<point x="494" y="340"/>
			<point x="363" y="115"/>
			<point x="289" y="0" type="qcurve"/>
			<point x="191" y="0" type="line"/>
			<point x="183" y="81"/>
			<point x="177" y="243"/>
			<point x="177" y="330" type="qcurve"/>
			<point x="177" y="417"/>
			<point x="183" y="594"/>
			<point x="189" y="693" type="qcurve"/>
			<point x="285" y="693" type="line"/>
			<point x="278" y="588"/>
			<point x="270" y="383"/>
			<point x="270" y="277" type="qcurve"/>
			<point x="270" y="200"/>
			<point x="273" y="124" type="qcurve"/>
			<point x="342" y="230"/>
			<point x="479" y="476"/>
			<point x="548" y="609" type="qcurve"/>
		</contour>
	</outline>
</glyph>
<glyph name="X" format="2">
	<unicode hex="0058"/>
	<advance width="605"/>
	<outline>
		<contour>
			<point x="484" y="0" type="line"/>
			<point x="461" y="70"/>
			<point x="406" y="215"/>
			<point x="372" y="290" type="qcurve"/>
			<point x="127" y="0" type="line"/>
			<point x="13" y="0" type="line"/>
			<point x="332" y="370" type="line"/>
			<point x="191" y="693" type="line"/>
			<point x="298" y="693" type="line"/>
			<point x="403" y="438" type="line"/>
			<point x="457" y="501"/>
			<point x="561" y="629"/>
			<point x="606" y="693" type="qcurve"/>
			<point x="717" y="693" type="line"/>
			<point x="657" y="611"/>
			<point x="513" y="442"/>
			<point x="443" y="364" type="qcurve"/>
			<point x="481" y="274"/>
			<point x="556" y="88"/>
			<point x="585" y="0" type="qcurve"/>
		</contour>
	</outline>
</glyph>
<glyph name="Y" format="2">
	<unicode hex="0059"/>
	<advance width="572"/>
	<outline>
		<contour>
			<point x="232" y="0" type="line"/>
			<point x="298" y="278" type="line"/>
			<point x="259" y="383"/>
			<point x="192" y="594"/>
			<point x="164" y="693" type="qcurve"/>
			<point x="269" y="693" type="line"/>
			<point x="288" y="612"/>
			<point x="335" y="444"/>
			<point x="364" y="366" type="qcurve"/>
			<point x="430" y="443"/>
			<point x="565" y="613"/>
			<point x="617" y="693" type="qcurve"/>
			<point x="728" y="693" type="line"/>
			<point x="653" y="591"/>
			<point x="489" y="386"/>
			<point x="395" y="278" type="qcurve"/>
			<point x="329" y="0" type="line"/>
		</contour>
	</outline>
</glyph>
<glyph name="Z" format="2">
	<unicode hex="005A"/>
	<advance width="561"/>
	<outline>
		<contour>
			<point x="666" y="616" type="line"/>
			<point x="638" y="591"/>
			<point x="562" y="517"/>
			<point x="474" y="428"/>
			<point x="381" y="329"/>
			<point x="289" y="226"/>
			<point x="205" y="126"/>
			<point x="171" y="81" type="qcurve"/>
			<point x="545" y="81" type="line"/>
			<point x="526" y="0" type="line"/>
			<point x="35" y="0" type="line"/>
			<point x="50" y="65" type="line"/>
			<point x="79" y="104"/>
			<point x="155" y="197"/>
			<point x="241" y="298"/>
			<point x="333" y="400"/>
			<point x="423" y="496"/>
			<point x="507" y="580"/>
			<point x="542" y="612" type="qcurve"/>
			<point x="199" y="612" type="line"/>
			<point x="218" y="693" type="line"/>
			<point x="684" y="693" type="line"/>
		</contour>
	</outline>
</glyph>
<glyph name="backslash" format="2">
	<unicode hex="005C"/>
	<advance width="376"/>
	<outline>
		<contour>
			<point x="165" y="783" type="line"/>
			<point x="250" y="783" type="line"/>
			<point x="356" y="-185" type="line"/>
			<point x="269" y="-185" type="line"/>
		</contour>
	</outline>
</glyph>
<glyph name="bracketright" format="2">
	<unicode hex="005D"/>
	<advance width="322"/>
	<outline>
		<contour>
			<point x="180" y="-185" type="line"/>
			<point x="-41" y="-185" type="line"/>
			<point x="-24" y="-112" type="line"/>
			<point x="110" y="-112" type="line"/>
			<point x="308" y="710" type="line"/>
			<point x="174" y="710" type="line"/>
			<point x="192" y="783" type="line"/>
			<point x="413" y="783" type="line"/>
		</contour>
	</outline>
</glyph>
<glyph name="asciicircum" format="2">
	<unicode hex="005E"/>
	<advance width="564"/>
	<outline>
		<contour>
			<point x="421" y="600" type="line"/>
			<point x="198" y="321" type="line"/>
			<point x="130" y="362" type="line"/>
			<point x="398" y="696" type="line"/>
			<point x="477" y="696" type="line"/>
			<point x="586" y="353" type="line"/>
			<point x="510" y="320" type="line"/>
		</contour>
	</outline>
</glyph>
<glyph name="underscore" format="2">
	<unicode hex="005F"/>
	<advance width="496"/>
	<outline>
		<contour>
			<point x="-46" y="-185" type="line"/>
			<point x="454" y="-185" type="line"/>
			<point x="473" y="-106" type="line"/>
			<point x="-27" y="-106" type="line"/>
		</contour>
	</outline>
</glyph>
<glyph name="grave" format="2">
	<unicode hex="0060"/>
	<advance width="376"/>
	<outline>
		<contour>
			<point x="230" y="722" type="line"/>
			<point x="376" y="576" type="line"/>
			<point x="425" y="619" type="line"/>
			<point x="298" y="779" type="line"/>
		</contour>
	</outline>
</glyph>
<glyph name="a" format="2">
	<unicode hex="0061"/>
	<advance width="544"/>
	<outline>
		<contour>
			<point x="514" y="6" type="line"/>
			<point x="501" y="42"/>
			<point x="496" y="72"/>
			<point x="496" y="103" type="curve" smooth="yes"/>
			<point x="496" y="134"/>
			<point x="501" y="160"/>
			<point x="508" y="191" type="curve" smooth="yes"/>
			<point x="585" y="505" type="line"/>
			<point x="550" y="524"/>
			<point x="496" y="531"/>
			<point x="460" y="531" type="curve" smooth="yes"/>
			<point x="217" y="531"/>
			<point x="98" y="352"/>
			<point x="98" y="174" type="curve" smooth="yes"/>
			<point x="98" y="66"/>
			<point x="147" y="-13"/>
			<point x="264" y="-13" type="curve" smooth="yes"/>
			<point x="335" y="-13"/>
			<point x="385" y="20"/>
			<point x="414" y="47" type="curve"/>
			<point x="418" y="27"/>
			<point x="425" y="9"/>
			<point x="432" y="-6" type="curve"/>
		</contour>
		<contour>
			<point x="283" y="66" type="curve" smooth="yes"/>
			<point x="209" y="66"/>
			<point x="191" y="127"/>
			<point x="191" y="184" type="curve" smooth="yes"/>
			<point x="191" y="325"/>
			<point x="288" y="451"/>
			<point x="440" y="451" type="curve" smooth="yes"/>
			<point x="452" y="451"/>
			<point x="470" y="450"/>
			<point x="477" y="447" type="curve"/>
			<point x="417" y="199" type="line"/>
			<point x="412" y="174"/>
			<point x="408" y="149"/>
			<point x="407" y="126" type="curve"/>
			<point x="378" y="94"/>
			<point x="339" y="66"/>
		</contour>
	</outline>
</glyph>
<glyph name="b" format="2">
	<unicode hex="0062"/>
	<advance width="555"/>
	<outline>
		<contour>
			<point x="289" y="499" type="line"/>
			<point x="312" y="513"/>
			<point x="372" y="533"/>
			<point x="406" y="533" type="qcurve"/>
			<point x="449" y="533"/>
			<point x="514" y="505"/>
			<point x="556" y="456"/>
			<point x="577" y="388"/>
			<point x="577" y="349" type="qcurve"/>
			<point x="577" y="280"/>
			<point x="533" y="151"/>
			<point x="443" y="50"/>
			<point x="308" y="-11"/>
			<point x="217" y="-11" type="qcurve"/>
			<point x="202" y="-11"/>
			<point x="166" y="-8"/>
			<point x="129" y="0"/>
			<point x="94" y="12"/>
			<point x="81" y="20" type="qcurve"/>
			<point x="258" y="760" type="line"/>
			<point x="355" y="776" type="line"/>
		</contour>
		<contour>
			<point x="383" y="454" type="qcurve"/>
			<point x="353" y="454"/>
			<point x="294" y="433"/>
			<point x="268" y="414" type="qcurve"/>
			<point x="187" y="75" type="line"/>
			<point x="197" y="73"/>
			<point x="223" y="69"/>
			<point x="236" y="69" type="qcurve"/>
			<point x="293" y="69"/>
			<point x="385" y="114"/>
			<point x="449" y="189"/>
			<point x="484" y="286"/>
			<point x="484" y="339" type="qcurve"/>
			<point x="484" y="361"/>
			<point x="475" y="403"/>
			<point x="452" y="435"/>
			<point x="413" y="454"/>
		</contour>
	</outline>
</glyph>
<glyph name="c" format="2">
	<unicode hex="0063"/>
	<advance width="451"/>
	<outline>
		<contour>
			<point x="100" y="186" type="qcurve"/>
			<point x="100" y="254"/>
			<point x="141" y="380"/>
			<point x="221" y="476"/>
			<point x="337" y="533"/>
			<point x="412" y="533" type="qcurve"/>
			<point x="445" y="533"/>
			<point x="505" y="524"/>
			<point x="532" y="511" type="qcurve"/>
			<point x="497" y="433" type="line"/>
			<point x="481" y="442"/>
			<point x="438" y="452"/>
			<point x="404" y="452" type="qcurve"/>
			<point x="355" y="452"/>
			<point x="277" y="409"/>
			<point x="222" y="338"/>
			<point x="193" y="245"/>
			<point x="193" y="195" type="qcurve"/>
			<point x="193" y="169"/>
			<point x="204" y="123"/>
			<point x="232" y="88"/>
			<point x="279" y="68"/>
			<point x="315" y="68" type="qcurve"/>
			<point x="333" y="68"/>
			<point x="373" y="75"/>
			<point x="407" y="85"/>
			<point x="434" y="96"/>
			<point x="440" y="101" type="qcurve"/>
			<point x="448" y="22" type="line"/>
			<point x="429" y="10"/>
			<point x="349" y="-13"/>
			<point x="298" y="-13" type="qcurve"/>
			<point x="250" y="-13"/>
			<point x="176" y="16"/>
			<point x="126" y="69"/>
			<point x="100" y="142"/>
		</contour>
	</outline>
</glyph>
<glyph name="d" format="2">
	<unicode hex="0064"/>
	<advance width="547"/>
	<outline>
		<contour>
			<point x="499" y="103" type="qcurve"/>
			<point x="499" y="80"/>
			<point x="507" y="33"/>
			<point x="517" y="6" type="qcurve"/>
			<point x="435" y="-6" type="line"/>
			<point x="424" y="16"/>
			<point x="418" y="47" type="qcurve"/>
			<point x="396" y="27"/>
			<point x="322" y="-13"/>
			<point x="268" y="-13" type="qcurve"/>
			<point x="224" y="-13"/>
			<point x="160" y="14"/>
			<point x="118" y="64"/>
			<point x="98" y="133"/>
			<point x="98" y="174" type="qcurve"/>
			<point x="98" y="241"/>
			<point x="143" y="369"/>
			<point x="232" y="469"/>
			<point x="366" y="530"/>
			<point x="455" y="530" type="qcurve"/>
			<point x="466" y="530"/>
			<point x="488" y="528"/>
			<point x="500" y="526" type="qcurve"/>
			<point x="556" y="760" type="line"/>
			<point x="653" y="776" type="line"/>
			<point x="512" y="191" type="line"/>
			<point x="507" y="168"/>
			<point x="499" y="126"/>
		</contour>
		<contour>
			<point x="287" y="66" type="qcurve"/>
			<point x="329" y="66"/>
			<point x="388" y="101"/>
			<point x="410" y="124" type="qcurve"/>
			<point x="411" y="140"/>
			<point x="416" y="177"/>
			<point x="421" y="199" type="qcurve"/>
			<point x="481" y="449" type="line"/>
			<point x="472" y="451"/>
			<point x="450" y="452"/>
			<point x="440" y="452" type="qcurve"/>
			<point x="383" y="452"/>
			<point x="291" y="408"/>
			<point x="226" y="334"/>
			<point x="191" y="237"/>
			<point x="191" y="184" type="qcurve"/>
			<point x="191" y="161"/>
			<point x="201" y="119"/>
			<point x="223" y="86"/>
			<point x="260" y="66"/>
		</contour>
	</outline>
</glyph>
<glyph name="e" format="2">
	<unicode hex="0065"/>
	<advance width="518"/>
	<outline>
		<contour>
			<point x="204" y="273" type="qcurve"/>
			<point x="262" y="275"/>
			<point x="358" y="286"/>
			<point x="428" y="313"/>
			<point x="467" y="359"/>
			<point x="467" y="396" type="qcurve"/>
			<point x="467" y="405"/>
			<point x="460" y="425"/>
			<point x="443" y="442"/>
			<point x="413" y="453"/>
			<point x="391" y="453" type="qcurve"/>
			<point x="356" y="453"/>
			<point x="295" y="423"/>
			<point x="247" y="374"/>
			<point x="213" y="309"/>
		</contour>
		<contour>
			<point x="299" y="-13" type="qcurve"/>
			<point x="248" y="-13"/>
			<point x="174" y="16"/>
			<point x="124" y="67"/>
			<point x="100" y="135"/>
			<point x="100" y="173" type="qcurve"/>
			<point x="100" y="243"/>
			<point x="142" y="373"/>
			<point x="220" y="473"/>
			<point x="332" y="532"/>
			<point x="403" y="532" type="qcurve"/>
			<point x="444" y="532"/>
			<point x="503" y="511"/>
			<point x="540" y="475"/>
			<point x="558" y="428"/>
			<point x="558" y="403" type="qcurve"/>
			<point x="558" y="356"/>
			<point x="524" y="291"/>
			<point x="468" y="247"/>
			<point x="393" y="223"/>
			<point x="312" y="209"/>
			<point x="229" y="204"/>
			<point x="192" y="202" type="qcurve"/>
			<point x="191" y="194"/>
			<point x="191" y="184"/>
			<point x="191" y="181" type="qcurve"/>
			<point x="191" y="158"/>
			<point x="202" y="117"/>
			<point x="232" y="86"/>
			<point x="285" y="68"/>
			<point x="328" y="68" type="qcurve"/>
			<point x="347" y="68"/>
			<point x="388" y="75"/>
			<point x="425" y="86"/>
			<point x="454" y="97"/>
			<point x="460" y="102" type="qcurve"/>
			<point x="468" y="23" type="line"/>
			<point x="448" y="12"/>
			<point x="359" y="-13"/>
		</contour>
	</outline>
</glyph>
<glyph name="f" format="2">
	<unicode hex="0066"/>
	<advance width="368"/>
	<outline>
		<contour>
			<point x="294" y="520" type="line"/>
			<point x="468" y="520" type="line"/>
			<point x="450" y="442" type="line"/>
			<point x="276" y="442" type="line"/>
			<point x="196" y="112" type="line"/>
			<point x="184" y="61"/>
			<point x="166" y="-19"/>
			<point x="141" y="-89"/>
			<point x="100" y="-154"/>
			<point x="65" y="-189" type="qcurve"/>
			<point x="-17" y="-177" type="line"/>
			<point x="13" y="-138"/>
			<point x="47" y="-84"/>
			<point x="70" y="-28"/>
			<point x="87" y="45"/>
			<point x="101" y="103" type="qcurve"/>
			<point x="212" y="567" type="line"/>
			<point x="224" y="617"/>
			<point x="261" y="695"/>
			<point x="318" y="748"/>
			<point x="396" y="776"/>
			<point x="450" y="776" type="qcurve"/>
			<point x="485" y="776"/>
			<point x="548" y="762"/>
			<point x="564" y="754" type="qcurve"/>
			<point x="527" y="680" type="line"/>
			<point x="519" y="684"/>
			<point x="480" y="696"/>
			<point x="442" y="696" type="qcurve"/>
			<point x="409" y="696"/>
			<point x="363" y="677"/>
			<point x="331" y="643"/>
			<point x="312" y="595"/>
			<point x="305" y="565" type="qcurve"/>
		</contour>
	</outline>
</glyph>
<glyph name="g" format="2">
	<unicode hex="0067"/>
	<advance width="550"/>
	<outline>
		<contour>
			<point x="202" y="-108" type="qcurve"/>
			<point x="243" y="-108"/>
			<point x="305" y="-88"/>
			<point x="350" y="-50"/>
			<point x="378" y="2"/>
			<point x="386" y="35" type="qcurve"/>
			<point x="390" y="54" type="line"/>
			<point x="370" y="43"/>
			<point x="302" y="21"/>
			<point x="266" y="21" type="qcurve"/>
			<point x="185" y="21"/>
			<point x="98" y="102"/>
			<point x="98" y="175" type="qcurve"/>
			<point x="98" y="242"/>
			<point x="142" y="370"/>
			<point x="232" y="470"/>
			<point x="366" y="531"/>
			<point x="456" y="531" type="qcurve"/>
			<point x="470" y="531"/>
			<point x="505" y="527"/>
			<point x="542" y="520"/>
			<point x="577" y="508"/>
			<point x="590" y="500" type="qcurve"/>
			<point x="481" y="45" type="line"/>
			<point x="468" y="-9"/>
			<point x="430" y="-95"/>
			<point x="364" y="-155"/>
			<point x="260" y="-188"/>
			<point x="182" y="-188" type="qcurve"/>
			<point x="139" y="-188"/>
			<point x="55" y="-165"/>
			<point x="26" y="-148" type="qcurve"/>
			<point x="61" y="-70" type="line"/>
			<point x="84" y="-87"/>
			<point x="160" y="-108"/>
		</contour>
		<contour>
			<point x="286" y="99" type="qcurve"/>
			<point x="326" y="99"/>
			<point x="393" y="128"/>
			<point x="411" y="141" type="qcurve"/>
			<point x="484" y="445" type="line"/>
			<point x="474" y="447"/>
			<point x="448" y="451"/>
			<point x="436" y="451" type="qcurve"/>
			<point x="382" y="451"/>
			<point x="292" y="410"/>
			<point x="227" y="341"/>
			<point x="191" y="250"/>
			<point x="191" y="201" type="qcurve"/>
			<point x="191" y="147"/>
			<point x="238" y="99"/>
		</contour>
	</outline>
</glyph>
<glyph name="h" format="2">
	<unicode hex="0068"/>
	<advance width="552"/>
	<outline>
		<contour>
			<point x="76" y="0" type="line"/>
			<point x="259" y="760" type="line"/>
			<point x="356" y="776" type="line"/>
			<point x="292" y="513" type="line"/>
			<point x="315" y="521"/>
			<point x="366" y="531"/>
			<point x="392" y="531" type="qcurve"/>
			<point x="437" y="531"/>
			<point x="502" y="506"/>
			<point x="542" y="463"/>
			<point x="561" y="402"/>
			<point x="561" y="366" type="qcurve"/>
			<point x="561" y="322"/>
			<point x="547" y="266" type="qcurve"/>
			<point x="483" y="0" type="line"/>
			<point x="390" y="0" type="line"/>
			<point x="449" y="246" type="line"/>
			<point x="456" y="274"/>
			<point x="469" y="332"/>
			<point x="469" y="358" type="qcurve"/>
			<point x="469" y="398"/>
			<point x="425" y="451"/>
			<point x="365" y="451" type="qcurve"/>
			<point x="341" y="451"/>
			<point x="290" y="442"/>
			<point x="273" y="434" type="qcurve"/>
			<point x="169" y="0" type="line"/>
		</contour>
	</outline>
</glyph>
<glyph name="i" format="2">
	<unicode hex="0069"/>
	<advance width="249"/>
	<outline>
		<contour>
			<point x="169" y="0" type="line"/>
			<point x="76" y="0" type="line"/>
			<point x="201" y="520" type="line"/>
			<point x="294" y="520" type="line"/>
		</contour>
		<contour>
			<point x="277" y="614" type="qcurve"/>
			<point x="254" y="614"/>
			<point x="223" y="642"/>
			<point x="223" y="667" type="qcurve"/>
			<point x="223" y="699"/>
			<point x="263" y="736"/>
			<point x="288" y="736" type="qcurve"/>
			<point x="311" y="736"/>
			<point x="343" y="707"/>
			<point x="343" y="681" type="qcurve"/>
			<point x="343" y="651"/>
			<point x="301" y="614"/>
		</contour>
	</outline>
</glyph>
<glyph name="j" format="2">
	<unicode hex="006A"/>
	<advance width="249"/>
	<outline>
		<contour>
			<point x="294" y="520" type="line"/>
			<point x="201" y="520" type="line"/>
			<point x="81" y="19" type="line"/>
			<point x="62" y="-57"/>
			<point x="35" y="-108"/>
			<point x="-25" y="-108" type="curve" smooth="yes"/>
			<point x="-52" y="-108"/>
			<point x="-75" y="-102"/>
			<point x="-90" y="-93" type="curve"/>
			<point x="-111" y="-170" type="line"/>
			<point x="-95" y="-181"/>
			<point x="-62" y="-188"/>
			<point x="-39" y="-188" type="curve" smooth="yes"/>
			<point x="91" y="-188"/>
			<point x="137" y="-129"/>
			<point x="174" y="20" type="curve"/>
		</contour>
		<contour>
			<point x="278" y="614" type="curve" smooth="yes"/>
			<point x="310" y="614"/>
			<point x="344" y="641"/>
			<point x="344" y="681" type="curve" smooth="yes"/>
			<point x="344" y="716"/>
			<point x="320" y="736"/>
			<point x="289" y="736" type="curve" smooth="yes"/>
			<point x="256" y="736"/>
			<point x="224" y="710"/>
			<point x="224" y="667" type="curve" smooth="yes"/>
			<point x="224" y="634"/>
			<point x="247" y="614"/>
		</contour>
	</outline>
</glyph>
<glyph name="k" format="2">
	<unicode hex="006B"/>
	<advance width="517"/>
	<outline>
		<contour>
			<point x="76" y="0" type="line"/>
			<point x="259" y="760" type="line"/>
			<point x="356" y="776" type="line"/>
			<point x="244" y="313" type="line"/>
			<point x="277" y="337"/>
			<point x="347" y="394"/>
			<point x="410" y="450"/>
			<point x="463" y="501"/>
			<point x="480" y="520" type="qcurve"/>
			<point x="590" y="520" type="line"/>
			<point x="569" y="494"/>
			<point x="504" y="430"/>
			<point x="432" y="365"/>
			<point x="359" y="305"/>
			<point x="330" y="284" type="qcurve"/>
			<point x="357" y="259"/>
			<point x="412" y="190"/>
			<point x="463" y="113"/>
			<point x="505" y="34"/>
			<point x="519" y="0" type="qcurve"/>
			<point x="418" y="0" type="line"/>
			<point x="383" y="81"/>
			<point x="286" y="217"/>
			<point x="232" y="260" type="qcurve"/>
			<point x="169" y="0" type="line"/>
		</contour>
	</outline>
</glyph>
<glyph name="l" format="2">
	<unicode hex="006C"/>
	<advance width="276"/>
	<outline>
		<contour>
			<point x="215" y="229" type="line"/>
			<point x="210" y="207"/>
			<point x="200" y="165"/>
			<point x="200" y="146" type="qcurve"/>
			<point x="200" y="112"/>
			<point x="233" y="72"/>
			<point x="278" y="67" type="qcurve"/>
			<point x="257" y="-9" type="line"/>
			<point x="216" y="-8"/>
			<point x="159" y="15"/>
			<point x="124" y="53"/>
			<point x="108" y="105"/>
			<point x="108" y="136" type="qcurve"/>
			<point x="108" y="159"/>
			<point x="116" y="209"/>
			<point x="123" y="236" type="qcurve"/>
			<point x="249" y="760" type="line"/>
			<point x="346" y="776" type="line"/>
		</contour>
	</outline>
</glyph>
<glyph name="n" format="2">
	<unicode hex="006E"/>
	<advance width="551"/>
	<outline>
		<contour>
			<point x="169" y="0" type="line"/>
			<point x="76" y="0" type="line"/>
			<point x="196" y="500" type="line"/>
			<point x="242" y="514"/>
			<point x="349" y="531"/>
			<point x="391" y="531" type="qcurve"/>
			<point x="436" y="531"/>
			<point x="501" y="506"/>
			<point x="541" y="463"/>
			<point x="560" y="402"/>
			<point x="560" y="366" type="qcurve"/>
			<point x="560" y="343"/>
			<point x="552" y="292"/>
			<point x="546" y="266" type="qcurve"/>
			<point x="482" y="0" type="line"/>
			<point x="389" y="0" type="line"/>
			<point x="448" y="246" type="line"/>
			<point x="455" y="274"/>
			<point x="468" y="332"/>
			<point x="468" y="358" type="qcurve"/>
			<point x="468" y="398"/>
			<point x="424" y="451"/>
			<point x="364" y="451" type="qcurve"/>
			<point x="339" y="451"/>
			<point x="291" y="445"/>
			<point x="275" y="440" type="qcurve"/>
		</contour>
	</outline>
</glyph>
<glyph name="q" format="2">
	<unicode hex="0071"/>
	<advance width="551"/>
	<outline>
		<contour>
			<point x="426" y="-185" type="line"/>
			<point x="591" y="502" type="line"/>
			<point x="551" y="523"/>
			<point x="497" y="531"/>
			<point x="460" y="531" type="curve" smooth="yes"/>
			<point x="217" y="531"/>
			<point x="98" y="352"/>
			<point x="98" y="174" type="curve" smooth="yes"/>
			<point x="98" y="64"/>
			<point x="151" y="-13"/>
			<point x="268" y="-13" type="curve" smooth="yes"/>
			<point x="311" y="-13"/>
			<point x="350" y="0"/>
			<point x="381" y="16" type="curve"/>
			<point x="333" y="-185" type="line"/>
		</contour>
		<contour>
			<point x="291" y="66" type="curve" smooth="yes"/>
			<point x="211" y="66"/>
			<point x="191" y="124"/>
			<point x="191" y="184" type="curve" smooth="yes"/>
			<point x="191" y="325"/>
			<point x="288" y="451"/>
			<point x="440" y="451" type="curve" smooth="yes"/>
			<point x="453" y="451"/>
			<point x="468" y="449"/>
			<point x="485" y="446" type="curve"/>
			<point x="402" y="103" type="line"/>
			<point x="370" y="79"/>
			<point x="330" y="66"/>
		</contour>
	</outline>
</glyph>
<glyph name="r" format="2">
	<unicode hex="0072"/>
	<advance width="372"/>
	<outline>
		<contour>
			<point x="374" y="531" type="curve" smooth="yes"/>
			<point x="313" y="531"/>
			<point x="249" y="519"/>
			<point x="196" y="500" type="curve"/>
			<point x="76" y="0" type="line"/>
			<point x="169" y="0" type="line"/>
			<point x="275" y="440" type="line"/>
			<point x="295" y="447"/>
			<point x="324" y="451"/>
			<point x="352" y="451" type="curve" smooth="yes"/>
			<point x="384" y="451"/>
			<point x="421" y="446"/>
			<point x="448" y="435" type="curve"/>
			<point x="475" y="516" type="line"/>
			<point x="460" y="524"/>
			<point x="405" y="531"/>
		</contour>
	</outline>
</glyph>
<glyph name="s" format="2">
	<unicode hex="0073"/>
	<advance width="412"/>
	<outline>
		<contour>
			<point x="206" y="65" type="qcurve"/>
			<point x="227" y="65"/>
			<point x="270" y="73"/>
			<point x="303" y="91"/>
			<point x="324" y="122"/>
			<point x="324" y="145" type="qcurve"/>
			<point x="324" y="160"/>
			<point x="314" y="183"/>
			<point x="292" y="203"/>
			<point x="259" y="222"/>
			<point x="236" y="234" type="qcurve"/>
			<point x="213" y="245"/>
			<point x="175" y="267"/>
			<point x="146" y="297"/>
			<point x="130" y="338"/>
			<point x="130" y="367" type="qcurve"/>
			<point x="130" y="442"/>
			<point x="238" y="533"/>
			<point x="341" y="533" type="qcurve"/>
			<point x="389" y="533"/>
			<point x="462" y="514"/>
			<point x="476" y="506" type="qcurve"/>
			<point x="441" y="430" type="line"/>
			<point x="427" y="438"/>
			<point x="365" y="456"/>
			<point x="327" y="456" type="qcurve"/>
			<point x="308" y="456"/>
			<point x="270" y="448"/>
			<point x="239" y="429"/>
			<point x="220" y="398"/>
			<point x="220" y="376" type="qcurve"/>
			<point x="220" y="349"/>
			<point x="262" y="314"/>
			<point x="304" y="295" type="qcurve"/>
			<point x="330" y="283"/>
			<point x="371" y="258"/>
			<point x="400" y="227"/>
			<point x="415" y="185"/>
			<point x="415" y="156" type="qcurve"/>
			<point x="415" y="114"/>
			<point x="383" y="50"/>
			<point x="326" y="8"/>
			<point x="248" y="-13"/>
			<point x="202" y="-13" type="qcurve"/>
			<point x="168" y="-13"/>
			<point x="113" y="-4"/>
			<point x="72" y="8"/>
			<point x="45" y="21"/>
			<point x="38" y="25" type="qcurve"/>
			<point x="74" y="101" type="line"/>
			<point x="81" y="97"/>
			<point x="106" y="85"/>
			<point x="141" y="73"/>
			<point x="183" y="65"/>
		</contour>
	</outline>
</glyph>
<glyph name="t" format="2">
	<unicode hex="0074"/>
	<advance width="389"/>
	<outline>
		<contour>
			<point x="254" y="-14" type="curve" smooth="yes"/>
			<point x="315" y="-14"/>
			<point x="367" y="4"/>
			<point x="387" y="16" type="curve"/>
			<point x="380" y="95" type="line"/>
			<point x="360" y="84"/>
			<point x="319" y="68"/>
			<point x="280" y="68" type="curve" smooth="yes"/>
			<point x="224" y="68"/>
			<point x="202" y="86"/>
			<point x="202" y="130" type="curve" smooth="yes"/>
			<point x="202" y="153"/>
			<point x="206" y="181"/>
			<point x="214" y="212" type="curve" smooth="yes"/>
			<point x="269" y="442" type="line"/>
			<point x="446" y="442" type="line"/>
			<point x="465" y="520" type="line"/>
			<point x="288" y="520" type="line"/>
			<point x="327" y="681" type="line"/>
			<point x="230" y="665" type="line"/>
			<point x="123" y="220" type="line"/>
			<point x="114" y="179"/>
			<point x="109" y="144"/>
			<point x="109" y="115" type="curve" smooth="yes"/>
			<point x="109" y="31"/>
			<point x="155" y="-14"/>
		</contour>
	</outline>
</glyph>
<glyph name="v" format="2">
	<unicode hex="0076"/>
	<advance width="481"/>
	<outline>
		<contour>
			<point x="193" y="0" type="line"/>
			<point x="181" y="51"/>
			<point x="159" y="173"/>
			<point x="141" y="306"/>
			<point x="129" y="448"/>
			<point x="127" y="520" type="qcurve"/>
			<point x="221" y="520" type="line"/>
			<point x="222" y="471"/>
			<point x="229" y="360"/>
			<point x="239" y="249"/>
			<point x="253" y="146"/>
			<point x="261" y="104" type="qcurve"/>
			<point x="291" y="142"/>
			<point x="356" y="245"/>
			<point x="416" y="358"/>
			<point x="466" y="472"/>
			<point x="481" y="520" type="qcurve"/>
			<point x="575" y="520" type="line"/>
			<point x="553" y="454"/>
			<point x="485" y="312"/>
			<point x="406" y="175"/>
			<point x="319" y="49"/>
			<point x="278" y="0" type="qcurve"/>
		</contour>
	</outline>
</glyph>
<glyph name="w" format="2">
	<unicode hex="0077"/>
	<advance width="787"/>
	<outline>
		<contour>
			<point x="573" y="108" type="qcurve"/>
			<point x="598" y="139"/>
			<point x="660" y="240"/>
			<point x="720" y="355"/>
			<point x="772" y="472"/>
			<point x="786" y="520" type="qcurve"/>
			<point x="881" y="520" type="line"/>
			<point x="859" y="451"/>
			<point x="791" y="305"/>
			<point x="712" y="168"/>
			<point x="627" y="46"/>
			<point x="588" y="0" type="qcurve"/>
			<point x="505" y="0" type="line"/>
			<point x="494" y="87"/>
			<point x="477" y="263"/>
			<point x="475" y="354" type="qcurve"/>
			<point x="455" y="309"/>
			<point x="405" y="213"/>
			<point x="349" y="120"/>
			<point x="293" y="34"/>
			<point x="267" y="0" type="qcurve"/>
			<point x="184" y="0" type="line"/>
			<point x="163" y="103"/>
			<point x="137" y="366"/>
			<point x="135" y="520" type="qcurve"/>
			<point x="228" y="520" type="line"/>
			<point x="229" y="473"/>
			<point x="233" y="363"/>
			<point x="239" y="252"/>
			<point x="247" y="148"/>
			<point x="253" y="108" type="qcurve"/>
			<point x="284" y="151"/>
			<point x="345" y="255"/>
			<point x="400" y="363"/>
			<point x="447" y="471"/>
			<point x="464" y="520" type="qcurve"/>
			<point x="548" y="520" type="line"/>
			<point x="548" y="475"/>
			<point x="551" y="372"/>
			<point x="558" y="264"/>
			<point x="567" y="157"/>
		</contour>
	</outline>
</glyph>
<glyph name="x" format="2">
	<unicode hex="0078"/>
	<advance width="473"/>
	<outline>
		<contour>
			<point x="316" y="333" type="line"/>
			<point x="358" y="384"/>
			<point x="429" y="478"/>
			<point x="455" y="520" type="qcurve"/>
			<point x="556" y="520" type="line"/>
			<point x="513" y="457"/>
			<point x="410" y="328"/>
			<point x="356" y="265" type="qcurve"/>
			<point x="388" y="202"/>
			<point x="452" y="67"/>
			<point x="475" y="0" type="qcurve"/>
			<point x="378" y="0" type="line"/>
			<point x="363" y="45"/>
			<point x="316" y="149"/>
			<point x="293" y="197" type="qcurve"/>
			<point x="120" y="0" type="line"/>
			<point x="12" y="0" type="line"/>
			<point x="252" y="268" type="line"/>
			<point x="123" y="520" type="line"/>
			<point x="226" y="520" type="line"/>
		</contour>
	</outline>
</glyph>
<glyph name="y" format="2">
	<unicode hex="0079"/>
	<advance width="478"/>
	<outline>
		<contour>
			<point x="281" y="84" type="qcurve"/>
			<point x="319" y="144"/>
			<point x="381" y="273"/>
			<point x="428" y="391"/>
			<point x="460" y="490"/>
			<point x="467" y="520" type="qcurve"/>
			<point x="564" y="520" type="line"/>
			<point x="553" y="482"/>
			<point x="513" y="369"/>
			<point x="456" y="238"/>
			<point x="385" y="101"/>
			<point x="343" y="38" type="qcurve"/>
			<point x="311" y="-9"/>
			<point x="247" y="-92"/>
			<point x="174" y="-153"/>
			<point x="86" y="-188"/>
			<point x="31" y="-188" type="qcurve"/>
			<point x="3" y="-188"/>
			<point x="-45" y="-174"/>
			<point x="-56" y="-166" type="qcurve"/>
			<point x="-24" y="-90" type="line"/>
			<point x="-14" y="-98"/>
			<point x="20" y="-109"/>
			<point x="41" y="-109" type="qcurve"/>
			<point x="99" y="-109"/>
			<point x="180" y="-53"/>
			<point x="216" y="-7" type="qcurve"/>
			<point x="179" y="114"/>
			<point x="132" y="382"/>
			<point x="127" y="520" type="qcurve"/>
			<point x="222" y="520" type="line"/>
			<point x="223" y="475"/>
			<point x="231" y="368"/>
			<point x="246" y="253"/>
			<point x="267" y="137"/>
		</contour>
	</outline>
</glyph>
<glyph name="z" format="2">
	<unicode hex="007A"/>
	<advance width="454"/>
	<outline>
		<contour>
			<point x="524" y="453" type="line"/>
			<point x="495" y="427"/>
			<point x="396" y="332"/>
			<point x="288" y="223"/>
			<point x="189" y="116"/>
			<point x="160" y="78" type="qcurve"/>
			<point x="439" y="78" type="line"/>
			<point x="421" y="0" type="line"/>
			<point x="33" y="0" type="line"/>
			<point x="47" y="60" type="line"/>
			<point x="77" y="104"/>
			<point x="169" y="211"/>
			<point x="268" y="317"/>
			<point x="364" y="411"/>
			<point x="400" y="442" type="qcurve"/>
			<point x="151" y="442" type="line"/>
			<point x="169" y="520" type="line"/>
			<point x="540" y="520" type="line"/>
		</contour>
	</outline>
</glyph>
<glyph name="braceleft" format="2">
	<unicode hex="007B"/>
	<advance width="326"/>
	<outline>
		<contour>
			<point x="120" y="335" type="line"/>
			<point x="142" y="335"/>
			<point x="180" y="352"/>
			<point x="209" y="379"/>
			<point x="228" y="414"/>
			<point x="232" y="432" type="qcurve"/>
			<point x="275" y="612" type="line"/>
			<point x="286" y="658"/>
			<point x="319" y="723"/>
			<point x="372" y="764"/>
			<point x="449" y="783"/>
			<point x="503" y="783" type="qcurve"/>
			<point x="507" y="783" type="line"/>
			<point x="489" y="710" type="line"/>
			<point x="462" y="710"/>
			<point x="420" y="703"/>
			<point x="389" y="681"/>
			<point x="367" y="642"/>
			<point x="360" y="611" type="qcurve"/>
			<point x="323" y="457" type="line"/>
			<point x="307" y="391"/>
			<point x="262" y="317"/>
			<point x="220" y="299" type="qcurve"/>
			<point x="241" y="282"/>
			<point x="258" y="235"/>
			<point x="258" y="209" type="qcurve"/>
			<point x="258" y="192"/>
			<point x="252" y="158"/>
			<point x="248" y="141" type="qcurve"/>
			<point x="211" y="-13" type="line"/>
			<point x="208" y="-27"/>
			<point x="204" y="-49"/>
			<point x="204" y="-58" type="qcurve"/>
			<point x="204" y="-90"/>
			<point x="246" y="-110"/>
			<point x="291" y="-112" type="qcurve"/>
			<point x="272" y="-185" type="line"/>
			<point x="268" y="-185" type="line"/>
			<point x="196" y="-185"/>
			<point x="118" y="-134"/>
			<point x="118" y="-74" type="qcurve"/>
			<point x="118" y="-51"/>
			<point x="126" y="-14" type="qcurve"/>
			<point x="169" y="166" type="line"/>
			<point x="173" y="181"/>
			<point x="173" y="195" type="qcurve"/>
			<point x="173" y="223"/>
			<point x="140" y="261"/>
			<point x="102" y="263" type="qcurve"/>
		</contour>
	</outline>
</glyph>
<glyph name="bar" format="2">
	<unicode hex="007C"/>
	<advance width="275"/>
	<outline>
		<contour>
			<point x="281" y="783" type="line"/>
			<point x="366" y="783" type="line"/>
			<point x="133" y="-185" type="line"/>
			<point x="48" y="-185" type="line"/>
		</contour>
	</outline>
</glyph>
<glyph name="braceright" format="2">
	<unicode hex="007D"/>
	<advance width="326"/>
	<outline>
		<contour>
			<point x="345" y="263" type="line"/>
			<point x="322" y="263"/>
			<point x="284" y="246"/>
			<point x="256" y="219"/>
			<point x="237" y="184"/>
			<point x="233" y="166" type="qcurve"/>
			<point x="190" y="-14" type="line"/>
			<point x="179" y="-60"/>
			<point x="146" y="-125"/>
			<point x="93" y="-166"/>
			<point x="16" y="-185"/>
			<point x="-38" y="-185" type="qcurve"/>
			<point x="-42" y="-185" type="line"/>
			<point x="-24" y="-112" type="line"/>
			<point x="4" y="-112"/>
			<point x="45" y="-105"/>
			<point x="76" y="-83"/>
			<point x="97" y="-45"/>
			<point x="105" y="-13" type="qcurve"/>
			<point x="142" y="141" type="line"/>
			<point x="158" y="207"/>
			<point x="203" y="281"/>
			<point x="245" y="299" type="qcurve"/>
			<point x="224" y="316"/>
			<point x="207" y="363"/>
			<point x="207" y="389" type="qcurve"/>
			<point x="207" y="406"/>
			<point x="213" y="440"/>
			<point x="217" y="457" type="qcurve"/>
			<point x="254" y="611" type="line"/>
			<point x="257" y="625"/>
			<point x="261" y="647"/>
			<point x="261" y="656" type="qcurve"/>
			<point x="261" y="688"/>
			<point x="219" y="708"/>
			<point x="174" y="710" type="qcurve"/>
			<point x="193" y="783" type="line"/>
			<point x="197" y="783" type="line"/>
			<point x="269" y="783"/>
			<point x="347" y="732"/>
			<point x="347" y="672" type="qcurve"/>
			<point x="347" y="649"/>
			<point x="339" y="612" type="qcurve"/>
			<point x="296" y="432" type="line"/>
			<point x="292" y="417"/>
			<point x="292" y="403" type="qcurve"/>
			<point x="292" y="375"/>
			<point x="325" y="337"/>
			<point x="363" y="335" type="qcurve"/>
		</contour>
	</outline>
</glyph>
<glyph name="asciitilde" format="2">
	<unicode hex="007E"/>
	<advance width="564"/>
	<outline>
		<contour>
			<point x="367" y="339" type="qcurve"/>
			<point x="390" y="323"/>
			<point x="426" y="296"/>
			<point x="453" y="296" type="qcurve"/>
			<point x="469" y="296"/>
			<point x="496" y="312"/>
			<point x="516" y="335"/>
			<point x="532" y="363"/>
			<point x="538" y="375" type="qcurve"/>
			<point x="602" y="355" type="line"/>
			<point x="594" y="333"/>
			<point x="567" y="284"/>
			<point x="527" y="242"/>
			<point x="474" y="215"/>
			<point x="440" y="215" type="qcurve"/>
			<point x="405" y="215"/>
			<point x="360" y="242"/>
			<point x="341" y="256" type="qcurve"/>
			<point x="318" y="272"/>
			<point x="282" y="299"/>
			<point x="255" y="299" type="qcurve"/>
			<point x="238" y="299"/>
			<point x="212" y="283"/>
			<point x="191" y="260"/>
			<point x="176" y="232"/>
			<point x="170" y="220" type="qcurve"/>
			<point x="106" y="240" type="line"/>
			<point x="114" y="262"/>
			<point x="141" y="311"/>
			<point x="181" y="353"/>
			<point x="234" y="380"/>
			<point x="268" y="380" type="qcurve"/>
			<point x="303" y="380"/>
			<point x="348" y="353"/>
		</contour>
	</outline>
</glyph>
<glyph name="exclamdown" format="2">
	<unicode hex="00A1"/>
	<advance width="250"/>
	<outline>
		<contour>
			<point x="127" y="-185" type="line"/>
			<point x="172" y="2" type="line" smooth="yes"/>
			<point x="199" y="114"/>
			<point x="210" y="200"/>
			<point x="221" y="291" type="curve"/>
			<point x="164" y="291" type="line"/>
			<point x="134" y="221"/>
			<point x="90" y="68"/>
			<point x="74" y="3" type="curve" smooth="yes"/>
			<point x="29" y="-185" type="line"/>
		</contour>
		<contour>
			<point x="222" y="386" type="curve" smooth="yes"/>
			<point x="257" y="386"/>
			<point x="294" y="414"/>
			<point x="294" y="459" type="curve" smooth="yes"/>
			<point x="294" y="499"/>
			<point x="270" y="520"/>
			<point x="233" y="520" type="curve" smooth="yes"/>
			<point x="196" y="520"/>
			<point x="162" y="493"/>
			<point x="162" y="445" type="curve" smooth="yes"/>
			<point x="162" y="406"/>
			<point x="185" y="386"/>
		</contour>
	</outline>
</glyph>
<glyph name="cent" format="2">
	<unicode hex="00A2"/>
	<advance width="564"/>
	<outline>
		<contour>
			<point x="458" y="475" type="qcurve"/>
			<point x="411" y="475"/>
			<point x="334" y="432"/>
			<point x="280" y="362"/>
			<point x="250" y="274"/>
			<point x="250" y="228" type="qcurve"/>
			<point x="250" y="204"/>
			<point x="261" y="161"/>
			<point x="288" y="129"/>
			<point x="333" y="110"/>
			<point x="368" y="110" type="qcurve"/>
			<point x="386" y="110"/>
			<point x="425" y="116"/>
			<point x="459" y="126"/>
			<point x="485" y="137"/>
			<point x="491" y="142" type="qcurve"/>
			<point x="498" y="65" type="line"/>
			<point x="482" y="54"/>
			<point x="411" y="33"/>
			<point x="366" y="31" type="qcurve"/>
			<point x="333" y="-109" type="line"/>
			<point x="252" y="-109" type="line"/>
			<point x="286" y="36" type="line"/>
			<point x="159" y="64"/>
			<point x="159" y="225" type="qcurve"/>
			<point x="159" y="279"/>
			<point x="191" y="385"/>
			<point x="255" y="474"/>
			<point x="349" y="538"/>
			<point x="411" y="549" type="qcurve"/>
			<point x="445" y="693" type="line"/>
			<point x="526" y="693" type="line"/>
			<point x="493" y="554" type="line"/>
			<point x="517" y="552"/>
			<point x="563" y="541"/>
			<point x="584" y="530" type="qcurve"/>
			<point x="550" y="456" type="line"/>
			<point x="534" y="465"/>
			<point x="491" y="475"/>
		</contour>
	</outline>
</glyph>
<glyph name="sterling" format="2">
	<unicode hex="00A3"/>
	<advance width="564"/>
	<outline>
		<contour>
			<point x="357" y="458" type="line"/>
			<point x="389" y="586"/>
			<point x="439" y="625"/>
			<point x="516" y="625" type="curve" smooth="yes"/>
			<point x="557" y="625"/>
			<point x="588" y="615"/>
			<point x="619" y="599" type="curve"/>
			<point x="661" y="674" type="line"/>
			<point x="630" y="691"/>
			<point x="597" y="706"/>
			<point x="528" y="706" type="curve" smooth="yes"/>
			<point x="391" y="706"/>
			<point x="312" y="656"/>
			<point x="264" y="456" type="curve" smooth="yes"/>
			<point x="244" y="373" type="line"/>
			<point x="151" y="373" type="line"/>
			<point x="133" y="298" type="line"/>
			<point x="226" y="298" type="line"/>
			<point x="222" y="283" type="line" smooth="yes"/>
			<point x="199" y="188"/>
			<point x="164" y="95"/>
			<point x="127" y="0" type="curve"/>
			<point x="521" y="0" type="line"/>
			<point x="540" y="80" type="line"/>
			<point x="250" y="80" type="line"/>
			<point x="277" y="147"/>
			<point x="301" y="223"/>
			<point x="317" y="290" type="curve" smooth="yes"/>
			<point x="319" y="298" type="line"/>
			<point x="508" y="298" type="line"/>
			<point x="526" y="373" type="line"/>
			<point x="337" y="373" type="line"/>
		</contour>
	</outline>
</glyph>
<glyph name="currency" format="2">
	<unicode hex="00A4"/>
	<advance width="564"/>
	<outline>
		<contour>
			<point x="166" y="347" type="qcurve"/>
			<point x="166" y="409"/>
			<point x="194" y="453" type="qcurve"/>
			<point x="121" y="527" type="line"/>
			<point x="179" y="585" type="line"/>
			<point x="253" y="510" type="line"/>
			<point x="300" y="539"/>
			<point x="359" y="539" type="qcurve"/>
			<point x="417" y="539"/>
			<point x="464" y="510" type="qcurve"/>
			<point x="539" y="585" type="line"/>
			<point x="597" y="527" type="line"/>
			<point x="523" y="453" type="line"/>
			<point x="552" y="409"/>
			<point x="552" y="347" type="qcurve"/>
			<point x="552" y="285"/>
			<point x="523" y="241" type="qcurve"/>
			<point x="597" y="167" type="line"/>
			<point x="539" y="109" type="line"/>
			<point x="464" y="183" type="line"/>
			<point x="417" y="155"/>
			<point x="359" y="155" type="qcurve"/>
			<point x="299" y="155"/>
			<point x="253" y="183" type="qcurve"/>
			<point x="179" y="109" type="line"/>
			<point x="121" y="167" type="line"/>
			<point x="194" y="240" type="line"/>
			<point x="166" y="284"/>
		</contour>
		<contour>
			<point x="477" y="347" type="qcurve"/>
			<point x="477" y="375"/>
			<point x="458" y="421"/>
			<point x="426" y="454"/>
			<point x="383" y="471"/>
			<point x="359" y="471" type="qcurve"/>
			<point x="335" y="471"/>
			<point x="292" y="454"/>
			<point x="260" y="421"/>
			<point x="241" y="375"/>
			<point x="241" y="347" type="qcurve"/>
			<point x="241" y="318"/>
			<point x="260" y="273"/>
			<point x="292" y="240"/>
			<point x="335" y="223"/>
			<point x="359" y="223" type="qcurve"/>
			<point x="383" y="223"/>
			<point x="426" y="240"/>
			<point x="458" y="273"/>
			<point x="477" y="318"/>
		</contour>
	</outline>
</glyph>
<glyph name="yen" format="2">
	<unicode hex="00A5"/>
	<advance width="564"/>
	<outline>
		<contour>
			<point x="514" y="106" type="line"/>
			<point x="351" y="106" type="line"/>
			<point x="326" y="0" type="line"/>
			<point x="236" y="0" type="line"/>
			<point x="261" y="106" type="line"/>
			<point x="99" y="106" type="line"/>
			<point x="116" y="177" type="line"/>
			<point x="278" y="177" type="line"/>
			<point x="302" y="279" type="line"/>
			<point x="141" y="279" type="line"/>
			<point x="158" y="350" type="line"/>
			<point x="294" y="350" type="line"/>
			<point x="223" y="526"/>
			<point x="183" y="693" type="qcurve"/>
			<point x="279" y="693" type="line"/>
			<point x="286" y="658"/>
			<point x="306" y="580"/>
			<point x="329" y="500"/>
			<point x="356" y="421"/>
			<point x="371" y="386" type="qcurve"/>
			<point x="399" y="419"/>
			<point x="461" y="496"/>
			<point x="522" y="576"/>
			<point x="579" y="656"/>
			<point x="602" y="693" type="qcurve"/>
			<point x="707" y="693" type="line"/>
			<point x="647" y="606"/>
			<point x="505" y="427"/>
			<point x="436" y="350" type="qcurve"/>
			<point x="572" y="350" type="line"/>
			<point x="555" y="279" type="line"/>
			<point x="392" y="279" type="line"/>
			<point x="368" y="177" type="line"/>
			<point x="531" y="177" type="line"/>
		</contour>
	</outline>
</glyph>
<glyph name="section" format="2">
	<unicode hex="00A7"/>
	<advance width="486"/>
	<outline>
		<contour>
			<point x="249" y="135" type="qcurve"/>
			<point x="221" y="145"/>
			<point x="172" y="167"/>
			<point x="135" y="200"/>
			<point x="113" y="249"/>
			<point x="113" y="285" type="qcurve"/>
			<point x="113" y="339"/>
			<point x="184" y="428"/>
			<point x="235" y="456" type="qcurve"/>
			<point x="206" y="485"/>
			<point x="206" y="537" type="qcurve"/>
			<point x="206" y="578"/>
			<point x="238" y="642"/>
			<point x="296" y="686"/>
			<point x="377" y="709"/>
			<point x="425" y="709" type="qcurve"/>
			<point x="476" y="709"/>
			<point x="549" y="688"/>
			<point x="572" y="677" type="qcurve"/>
			<point x="537" y="605" type="line"/>
			<point x="520" y="613"/>
			<point x="463" y="634"/>
			<point x="418" y="634" type="qcurve"/>
			<point x="365" y="634"/>
			<point x="297" y="595"/>
			<point x="297" y="551" type="qcurve"/>
			<point x="297" y="522"/>
			<point x="335" y="490"/>
			<point x="380" y="474" type="qcurve"/>
			<point x="408" y="463"/>
			<point x="457" y="441"/>
			<point x="493" y="409"/>
			<point x="514" y="361"/>
			<point x="514" y="324" type="qcurve"/>
			<point x="514" y="267"/>
			<point x="444" y="182"/>
			<point x="392" y="153" type="qcurve"/>
			<point x="406" y="140"/>
			<point x="431" y="97"/>
			<point x="431" y="59" type="qcurve"/>
			<point x="431" y="23"/>
			<point x="401" y="-39"/>
			<point x="342" y="-84"/>
			<point x="256" y="-109"/>
			<point x="200" y="-109" type="qcurve"/>
			<point x="146" y="-109"/>
			<point x="61" y="-90"/>
			<point x="32" y="-74" type="qcurve"/>
			<point x="68" y="-1" type="line"/>
			<point x="87" y="-12"/>
			<point x="159" y="-34"/>
			<point x="207" y="-34" type="qcurve"/>
			<point x="273" y="-34"/>
			<point x="340" y="12"/>
			<point x="340" y="50" type="qcurve"/>
			<point x="340" y="69"/>
			<point x="327" y="95"/>
			<point x="304" y="113"/>
			<point x="270" y="127"/>
		</contour>
		<contour>
			<point x="335" y="191" type="qcurve"/>
			<point x="352" y="199"/>
			<point x="385" y="223"/>
			<point x="411" y="255"/>
			<point x="427" y="292"/>
			<point x="427" y="313" type="qcurve"/>
			<point x="427" y="332"/>
			<point x="409" y="361"/>
			<point x="378" y="383"/>
			<point x="335" y="401"/>
			<point x="311" y="410" type="qcurve"/>
			<point x="298" y="415"/>
			<point x="294" y="418" type="qcurve"/>
			<point x="277" y="410"/>
			<point x="244" y="385"/>
			<point x="217" y="354"/>
			<point x="200" y="317"/>
			<point x="200" y="296" type="qcurve"/>
			<point x="200" y="276"/>
			<point x="219" y="248"/>
			<point x="250" y="226"/>
			<point x="292" y="208"/>
			<point x="316" y="199" type="qcurve"/>
			<point x="322" y="197"/>
			<point x="331" y="193"/>
		</contour>
	</outline>
</glyph>
<glyph name="dieresis" format="2">
	<unicode hex="00A8"/>
	<advance width="376"/>
	<outline>
		<contour>
			<point x="249" y="616" type="qcurve"/>
			<point x="227" y="616"/>
			<point x="197" y="644"/>
			<point x="197" y="667" type="qcurve"/>
			<point x="197" y="697"/>
			<point x="237" y="734"/>
			<point x="260" y="734" type="qcurve"/>
			<point x="282" y="734"/>
			<point x="313" y="705"/>
			<point x="313" y="681" type="qcurve"/>
			<point x="313" y="652"/>
			<point x="272" y="616"/>
		</contour>
		<contour>
			<point x="439" y="616" type="qcurve"/>
			<point x="417" y="616"/>
			<point x="387" y="644"/>
			<point x="387" y="667" type="qcurve"/>
			<point x="387" y="697"/>
			<point x="427" y="734"/>
			<point x="450" y="734" type="qcurve"/>
			<point x="472" y="734"/>
			<point x="503" y="705"/>
			<point x="503" y="681" type="qcurve"/>
			<point x="503" y="652"/>
			<point x="462" y="616"/>
		</contour>
	</outline>
</glyph>
<glyph name="copyright" format="2">
	<unicode hex="00A9"/>
	<advance width="814"/>
	<outline>
		<contour>
			<point x="826" y="347" type="qcurve"/>
			<point x="826" y="261"/>
			<point x="770" y="127"/>
			<point x="676" y="34"/>
			<point x="552" y="-15"/>
			<point x="484" y="-15" type="qcurve"/>
			<point x="416" y="-15"/>
			<point x="292" y="34"/>
			<point x="198" y="127"/>
			<point x="142" y="261"/>
			<point x="142" y="347" type="qcurve"/>
			<point x="142" y="432"/>
			<point x="198" y="567"/>
			<point x="292" y="660"/>
			<point x="416" y="709"/>
			<point x="484" y="709" type="qcurve"/>
			<point x="552" y="709"/>
			<point x="676" y="660"/>
			<point x="770" y="567"/>
			<point x="826" y="432"/>
		</contour>
		<contour>
			<point x="753" y="347" type="qcurve"/>
			<point x="753" y="413"/>
			<point x="713" y="522"/>
			<point x="642" y="600"/>
			<point x="543" y="642"/>
			<point x="484" y="642" type="qcurve"/>
			<point x="425" y="642"/>
			<point x="326" y="600"/>
			<point x="255" y="522"/>
			<point x="215" y="413"/>
			<point x="215" y="347" type="qcurve"/>
			<point x="215" y="281"/>
			<point x="255" y="172"/>
			<point x="326" y="94"/>
			<point x="425" y="52"/>
			<point x="484" y="52" type="qcurve"/>
			<point x="543" y="52"/>
			<point x="642" y="94"/>
			<point x="713" y="172"/>
			<point x="753" y="281"/>
		</contour>
		<contour>
			<point x="496" y="140" type="qcurve"/>
			<point x="453" y="140"/>
			<point x="383" y="168"/>
			<point x="332" y="220"/>
			<point x="304" y="297"/>
			<point x="304" y="347" type="qcurve"/>
			<point x="304" y="396"/>
			<point x="335" y="472"/>
			<point x="387" y="525"/>
			<point x="457" y="553"/>
			<point x="496" y="553" type="qcurve"/>
			<point x="522" y="553"/>
			<point x="565" y="545"/>
			<point x="597" y="534"/>
			<point x="618" y="523"/>
			<point x="622" y="520" type="qcurve"/>
			<point x="599" y="460" type="line"/>
			<point x="587" y="467"/>
			<point x="534" y="486"/>
			<point x="499" y="486" type="qcurve"/>
			<point x="448" y="486"/>
			<point x="380" y="416"/>
			<point x="380" y="347" type="qcurve"/>
			<point x="380" y="284"/>
			<point x="442" y="206"/>
			<point x="502" y="206" type="qcurve"/>
			<point x="541" y="206"/>
			<point x="592" y="223"/>
			<point x="606" y="230" type="qcurve"/>
			<point x="625" y="170" type="line"/>
			<point x="614" y="164"/>
			<point x="545" y="140"/>
		</contour>
	</outline>
</glyph>
<glyph name="ordfeminine" format="2">
	<unicode hex="00AA"/>
	<advance width="415"/>
	<outline>
		<contour>
			<point x="281" y="330" type="qcurve"/>
			<point x="216" y="330"/>
			<point x="158" y="403"/>
			<point x="158" y="462" type="qcurve"/>
			<point x="158" y="508"/>
			<point x="190" y="596"/>
			<point x="254" y="665"/>
			<point x="350" y="708"/>
			<point x="415" y="708" type="qcurve"/>
			<point x="433" y="708"/>
			<point x="486" y="699"/>
			<point x="508" y="690" type="qcurve"/>
			<point x="453" y="487" type="line"/>
			<point x="444" y="455"/>
			<point x="444" y="425" type="qcurve"/>
			<point x="444" y="400"/>
			<point x="454" y="365"/>
			<point x="462" y="344" type="qcurve"/>
			<point x="393" y="332" type="line"/>
			<point x="389" y="337"/>
			<point x="380" y="357"/>
			<point x="378" y="367" type="qcurve"/>
			<point x="364" y="353"/>
			<point x="315" y="330"/>
		</contour>
		<contour>
			<point x="422" y="644" type="line"/>
			<point x="420" y="645"/>
			<point x="409" y="647"/>
			<point x="401" y="647" type="qcurve"/>
			<point x="363" y="647"/>
			<point x="300" y="618"/>
			<point x="255" y="568"/>
			<point x="231" y="504"/>
			<point x="231" y="469" type="qcurve"/>
			<point x="231" y="454"/>
			<point x="236" y="426"/>
			<point x="251" y="404"/>
			<point x="277" y="391"/>
			<point x="297" y="391" type="qcurve"/>
			<point x="319" y="391"/>
			<point x="357" y="413"/>
			<point x="372" y="429" type="qcurve"/>
			<point x="372" y="444"/>
			<point x="379" y="479"/>
			<point x="382" y="492" type="qcurve"/>
		</contour>
	</outline>
</glyph>
<glyph name="registered" format="2">
	<unicode hex="00AE"/>
	<advance width="814"/>
	<outline>
		<contour>
			<point x="826" y="347" type="qcurve"/>
			<point x="826" y="261"/>
			<point x="770" y="127"/>
			<point x="676" y="34"/>
			<point x="552" y="-15"/>
			<point x="484" y="-15" type="qcurve"/>
			<point x="416" y="-15"/>
			<point x="292" y="34"/>
			<point x="198" y="127"/>
			<point x="142" y="261"/>
			<point x="142" y="347" type="qcurve"/>
			<point x="142" y="432"/>
			<point x="198" y="567"/>
			<point x="292" y="660"/>
			<point x="416" y="709"/>
			<point x="484" y="709" type="qcurve"/>
			<point x="552" y="709"/>
			<point x="676" y="660"/>
			<point x="770" y="567"/>
			<point x="826" y="432"/>
		</contour>
		<contour>
			<point x="753" y="347" type="qcurve"/>
			<point x="753" y="413"/>
			<point x="713" y="522"/>
			<point x="642" y="600"/>
			<point x="543" y="642"/>
			<point x="484" y="642" type="qcurve"/>
			<point x="425" y="642"/>
			<point x="326" y="600"/>
			<point x="255" y="522"/>
			<point x="215" y="413"/>
			<point x="215" y="347" type="qcurve"/>
			<point x="215" y="281"/>
			<point x="255" y="172"/>
			<point x="326" y="94"/>
			<point x="425" y="52"/>
			<point x="484" y="52" type="qcurve"/>
			<point x="543" y="52"/>
			<point x="642" y="94"/>
			<point x="713" y="172"/>
			<point x="753" y="281"/>
		</contour>
		<contour>
			<point x="583" y="148" type="line"/>
			<point x="560" y="193"/>
			<point x="503" y="274"/>
			<point x="482" y="298" type="qcurve"/>
			<point x="415" y="298" type="line"/>
			<point x="415" y="148" type="line"/>
			<point x="344" y="148" type="line"/>
			<point x="344" y="536" type="line"/>
			<point x="371" y="542"/>
			<point x="431" y="548"/>
			<point x="456" y="548" type="qcurve"/>
			<point x="543" y="548"/>
			<point x="632" y="485"/>
			<point x="632" y="419" type="qcurve"/>
			<point x="632" y="382"/>
			<point x="593" y="327"/>
			<point x="557" y="312" type="qcurve"/>
			<point x="567" y="300"/>
			<point x="593" y="264"/>
			<point x="622" y="221"/>
			<point x="649" y="172"/>
			<point x="660" y="148" type="qcurve"/>
		</contour>
		<contour>
			<point x="415" y="356" type="line"/>
			<point x="453" y="356" type="line"/>
			<point x="498" y="356"/>
			<point x="558" y="381"/>
			<point x="558" y="420" type="qcurve"/>
			<point x="558" y="457"/>
			<point x="501" y="486"/>
			<point x="461" y="486" type="qcurve"/>
			<point x="450" y="486"/>
			<point x="426" y="485"/>
			<point x="415" y="484" type="qcurve"/>
		</contour>
	</outline>
</glyph>
<glyph name="macron" format="2">
	<unicode hex="00AF"/>
	<advance width="376"/>
	<outline>
		<contour>
			<point x="218" y="711" type="line"/>
			<point x="498" y="711" type="line"/>
			<point x="481" y="639" type="line"/>
			<point x="201" y="639" type="line"/>
		</contour>
	</outline>
</glyph>
<glyph name="degree" format="2">
	<unicode hex="00B0"/>
	<advance width="332"/>
	<outline>
		<contour>
			<point x="432" y="637" type="qcurve"/>
			<point x="432" y="605"/>
			<point x="409" y="553"/>
			<point x="371" y="517"/>
			<point x="320" y="498"/>
			<point x="292" y="498" type="qcurve"/>
			<point x="264" y="498"/>
			<point x="213" y="517"/>
			<point x="175" y="553"/>
			<point x="152" y="605"/>
			<point x="152" y="637" type="qcurve"/>
			<point x="152" y="669"/>
			<point x="175" y="721"/>
			<point x="213" y="757"/>
			<point x="264" y="776"/>
			<point x="292" y="776" type="qcurve"/>
			<point x="320" y="776"/>
			<point x="371" y="757"/>
			<point x="409" y="721"/>
			<point x="432" y="669"/>
		</contour>
		<contour>
			<point x="365" y="637" type="qcurve"/>
			<point x="365" y="672"/>
			<point x="322" y="713"/>
			<point x="292" y="713" type="qcurve"/>
			<point x="262" y="713"/>
			<point x="219" y="672"/>
			<point x="219" y="637" type="qcurve"/>
			<point x="219" y="602"/>
			<point x="262" y="561"/>
			<point x="292" y="561" type="qcurve"/>
			<point x="322" y="561"/>
			<point x="365" y="602"/>
		</contour>
	</outline>
</glyph>
<glyph name="twosuperior" format="2">
	<unicode hex="00B2"/>
	<advance width="359"/>
	<outline>
		<contour>
			<point x="402" y="378" type="line"/>
			<point x="387" y="315" type="line"/>
			<point x="124" y="315" type="line"/>
			<point x="128" y="351"/>
			<point x="152" y="404"/>
			<point x="188" y="446"/>
			<point x="234" y="480"/>
			<point x="260" y="496" type="qcurve"/>
			<point x="286" y="512"/>
			<point x="325" y="538"/>
			<point x="351" y="562"/>
			<point x="364" y="589"/>
			<point x="364" y="606" type="qcurve"/>
			<point x="364" y="627"/>
			<point x="335" y="647"/>
			<point x="315" y="647" type="qcurve"/>
			<point x="273" y="647"/>
			<point x="224" y="618"/>
			<point x="211" y="607" type="qcurve"/>
			<point x="187" y="656" type="line"/>
			<point x="207" y="675"/>
			<point x="277" y="709"/>
			<point x="323" y="709" type="qcurve"/>
			<point x="380" y="709"/>
			<point x="435" y="656"/>
			<point x="435" y="611" type="qcurve"/>
			<point x="435" y="582"/>
			<point x="408" y="534"/>
			<point x="366" y="494"/>
			<point x="316" y="461"/>
			<point x="293" y="447" type="qcurve"/>
			<point x="272" y="433"/>
			<point x="222" y="401"/>
			<point x="213" y="378" type="qcurve"/>
		</contour>
	</outline>
</glyph>
<glyph name="threesuperior" format="2">
	<unicode hex="00B3"/>
	<advance width="359"/>
	<outline>
		<contour>
			<point x="232" y="368" type="qcurve"/>
			<point x="253" y="368"/>
			<point x="292" y="374"/>
			<point x="322" y="391"/>
			<point x="341" y="419"/>
			<point x="341" y="440" type="qcurve"/>
			<point x="341" y="468"/>
			<point x="289" y="492"/>
			<point x="246" y="492" type="qcurve"/>
			<point x="225" y="492" type="line"/>
			<point x="239" y="548" type="line"/>
			<point x="264" y="548" type="line"/>
			<point x="278" y="548"/>
			<point x="313" y="554"/>
			<point x="343" y="568"/>
			<point x="364" y="590"/>
			<point x="364" y="607" type="qcurve"/>
			<point x="364" y="630"/>
			<point x="337" y="648"/>
			<point x="308" y="648" type="qcurve"/>
			<point x="281" y="648"/>
			<point x="230" y="632"/>
			<point x="214" y="624" type="qcurve"/>
			<point x="200" y="676" type="line"/>
			<point x="209" y="682"/>
			<point x="238" y="693"/>
			<point x="273" y="703"/>
			<point x="309" y="709"/>
			<point x="325" y="709" type="qcurve"/>
			<point x="384" y="709"/>
			<point x="433" y="661"/>
			<point x="433" y="627" type="qcurve"/>
			<point x="433" y="587"/>
			<point x="392" y="539"/>
			<point x="356" y="522" type="qcurve"/>
			<point x="380" y="512"/>
			<point x="411" y="474"/>
			<point x="411" y="442" type="qcurve"/>
			<point x="411" y="376"/>
			<point x="311" y="307"/>
			<point x="230" y="307" type="qcurve"/>
			<point x="190" y="307"/>
			<point x="133" y="323"/>
			<point x="113" y="334" type="qcurve"/>
			<point x="140" y="390" type="line"/>
			<point x="157" y="382"/>
			<point x="206" y="368"/>
		</contour>
	</outline>
</glyph>
<glyph name="acute" format="2">
	<unicode hex="00B4"/>
	<advance width="376"/>
	<outline>
		<contour>
			<point x="471" y="708" type="line"/>
			<point x="302" y="580" type="line"/>
			<point x="262" y="629" type="line"/>
			<point x="420" y="780" type="line"/>
		</contour>
	</outline>
	<guideline y="580"/>
</glyph>
<glyph name="mu" format="2">
	<unicode hex="00B5"/>
	<advance width="572"/>
	<outline>
		<contour>
			<point x="427" y="115" type="qcurve"/>
			<point x="427" y="141"/>
			<point x="432" y="191"/>
			<point x="439" y="219" type="qcurve"/>
			<point x="511" y="520" type="line"/>
			<point x="604" y="520" type="line"/>
			<point x="530" y="211" type="line"/>
			<point x="525" y="188"/>
			<point x="517" y="148"/>
			<point x="517" y="131" type="qcurve"/>
			<point x="517" y="105"/>
			<point x="542" y="71"/>
			<point x="574" y="66" type="qcurve"/>
			<point x="553" y="-9" type="line"/>
			<point x="511" y="-8"/>
			<point x="461" y="19"/>
			<point x="446" y="44" type="qcurve"/>
			<point x="410" y="16"/>
			<point x="322" y="-10"/>
			<point x="273" y="-10" type="qcurve"/>
			<point x="242" y="-10"/>
			<point x="188" y="15"/>
			<point x="174" y="38" type="qcurve"/>
			<point x="170" y="12"/>
			<point x="157" y="-51"/>
			<point x="149" y="-82" type="qcurve"/>
			<point x="124" y="-185" type="line"/>
			<point x="32" y="-185" type="line"/>
			<point x="201" y="520" type="line"/>
			<point x="294" y="520" type="line"/>
			<point x="235" y="274" type="line"/>
			<point x="230" y="251"/>
			<point x="214" y="189"/>
			<point x="214" y="158" type="qcurve"/>
			<point x="214" y="140"/>
			<point x="221" y="107"/>
			<point x="241" y="82"/>
			<point x="273" y="67"/>
			<point x="299" y="67" type="qcurve"/>
			<point x="337" y="67"/>
			<point x="400" y="92"/>
		</contour>
	</outline>
</glyph>
<glyph name="paragraph" format="2">
	<unicode hex="00B6"/>
	<advance width="650"/>
	<outline>
		<contour>
			<point x="538" y="623" type="qcurve"/>
			<point x="530" y="623"/>
			<point x="511" y="623"/>
			<point x="505" y="622" type="qcurve"/>
			<point x="311" y="-185" type="line"/>
			<point x="233" y="-185" type="line"/>
			<point x="340" y="262" type="line"/>
			<point x="239" y="269"/>
			<point x="153" y="353"/>
			<point x="153" y="424" type="qcurve"/>
			<point x="153" y="499"/>
			<point x="221" y="604"/>
			<point x="330" y="670"/>
			<point x="466" y="700"/>
			<point x="534" y="700" type="qcurve"/>
			<point x="576" y="700"/>
			<point x="670" y="693"/>
			<point x="708" y="683" type="qcurve"/>
			<point x="500" y="-185" type="line"/>
			<point x="422" y="-185" type="line"/>
			<point x="615" y="618" type="line"/>
			<point x="590" y="623"/>
		</contour>
	</outline>
</glyph>
<glyph name="cedilla" format="2">
	<unicode hex="00B8"/>
	<advance width="376"/>
	<outline>
		<contour>
			<point x="189" y="-38" type="qcurve"/>
			<point x="209" y="-49"/>
			<point x="229" y="-75"/>
			<point x="229" y="-98" type="qcurve"/>
			<point x="229" y="-143"/>
			<point x="167" y="-189"/>
			<point x="113" y="-189" type="qcurve"/>
			<point x="84" y="-189"/>
			<point x="45" y="-180"/>
			<point x="32" y="-174" type="qcurve"/>
			<point x="55" y="-119" type="line"/>
			<point x="63" y="-123"/>
			<point x="89" y="-130"/>
			<point x="108" y="-130" type="qcurve"/>
			<point x="125" y="-130"/>
			<point x="147" y="-119"/>
			<point x="147" y="-105" type="qcurve"/>
			<point x="147" y="-93"/>
			<point x="131" y="-81"/>
			<point x="112" y="-72" type="qcurve"/>
			<point x="106" y="-69" type="line"/>
			<point x="112" y="-59"/>
			<point x="130" y="-32"/>
			<point x="148" y="-6"/>
			<point x="164" y="15"/>
			<point x="168" y="20" type="qcurve"/>
			<point x="232" y="20" type="line"/>
			<point x="224" y="9"/>
			<point x="197" y="-26"/>
		</contour>
	</outline>
</glyph>
<glyph name="onesuperior" format="2">
	<unicode hex="00B9"/>
	<advance width="359"/>
	<outline>
		<contour>
			<point x="199" y="621" type="line"/>
			<point x="245" y="635"/>
			<point x="326" y="676"/>
			<point x="357" y="701" type="qcurve"/>
			<point x="407" y="701" type="line"/>
			<point x="314" y="315" type="line"/>
			<point x="243" y="315" type="line"/>
			<point x="313" y="605" type="line"/>
			<point x="287" y="591"/>
			<point x="228" y="570"/>
			<point x="208" y="564" type="qcurve"/>
		</contour>
	</outline>
</glyph>
<glyph name="ordmasculine" format="2">
	<unicode hex="00BA"/>
	<advance width="446"/>
	<outline>
		<contour>
			<point x="386" y="709" type="qcurve"/>
			<point x="446" y="709"/>
			<point x="515" y="642"/>
			<point x="515" y="581" type="qcurve"/>
			<point x="515" y="541"/>
			<point x="491" y="452"/>
			<point x="438" y="377"/>
			<point x="353" y="328"/>
			<point x="292" y="328" type="qcurve"/>
			<point x="232" y="328"/>
			<point x="163" y="395"/>
			<point x="163" y="456" type="qcurve"/>
			<point x="163" y="496"/>
			<point x="187" y="585"/>
			<point x="240" y="660"/>
			<point x="325" y="709"/>
		</contour>
		<contour>
			<point x="305" y="390" type="qcurve"/>
			<point x="337" y="390"/>
			<point x="387" y="425"/>
			<point x="422" y="479"/>
			<point x="440" y="545"/>
			<point x="440" y="575" type="qcurve"/>
			<point x="440" y="607"/>
			<point x="408" y="647"/>
			<point x="373" y="647" type="qcurve"/>
			<point x="341" y="647"/>
			<point x="291" y="612"/>
			<point x="256" y="558"/>
			<point x="238" y="492"/>
			<point x="238" y="462" type="qcurve"/>
			<point x="238" y="430"/>
			<point x="270" y="390"/>
		</contour>
	</outline>
</glyph>
<glyph name="questiondown" format="2">
	<unicode hex="00BF"/>
	<advance width="384"/>
	<outline>
		<contour>
			<point x="207" y="-188" type="curve" smooth="yes"/>
			<point x="267" y="-188"/>
			<point x="327" y="-172"/>
			<point x="359" y="-153" type="curve"/>
			<point x="349" y="-81" type="line"/>
			<point x="325" y="-93"/>
			<point x="283" y="-112"/>
			<point x="219" y="-112" type="curve" smooth="yes"/>
			<point x="144" y="-112"/>
			<point x="132" y="-70"/>
			<point x="132" y="-40" type="curve" smooth="yes"/>
			<point x="132" y="21"/>
			<point x="182" y="60"/>
			<point x="229" y="97" type="curve" smooth="yes"/>
			<point x="280" y="136"/>
			<point x="332" y="182"/>
			<point x="348" y="250" type="curve" smooth="yes"/>
			<point x="351" y="263"/>
			<point x="352" y="275"/>
			<point x="353" y="291" type="curve"/>
			<point x="272" y="291" type="line"/>
			<point x="272" y="288"/>
			<point x="272" y="281"/>
			<point x="269" y="273" type="curve"/>
			<point x="254" y="214"/>
			<point x="209" y="176"/>
			<point x="165" y="141" type="curve" smooth="yes"/>
			<point x="93" y="85"/>
			<point x="39" y="36"/>
			<point x="39" y="-52" type="curve" smooth="yes"/>
			<point x="39" y="-125"/>
			<point x="82" y="-188"/>
		</contour>
		<contour>
			<point x="323" y="386" type="curve" smooth="yes"/>
			<point x="358" y="386"/>
			<point x="395" y="414"/>
			<point x="395" y="459" type="curve" smooth="yes"/>
			<point x="395" y="499"/>
			<point x="371" y="520"/>
			<point x="334" y="520" type="curve" smooth="yes"/>
			<point x="297" y="520"/>
			<point x="263" y="493"/>
			<point x="263" y="445" type="curve" smooth="yes"/>
			<point x="263" y="406"/>
			<point x="286" y="386"/>
		</contour>
	</outline>
</glyph>
<glyph name="Aring" format="2">
	<unicode hex="00C5"/>
	<advance width="636"/>
	<outline>
		<contour>
			<point x="534" y="0" type="line"/>
			<point x="529" y="45"/>
			<point x="521" y="136"/>
			<point x="516" y="178" type="qcurve"/>
			<point x="214" y="178" type="line"/>
			<point x="116" y="0" type="line"/>
			<point x="10" y="0" type="line"/>
			<point x="116" y="191"/>
			<point x="318" y="517"/>
			<point x="417" y="662" type="qcurve"/>
			<point x="403" y="675"/>
			<point x="386" y="713"/>
			<point x="386" y="737" type="qcurve"/>
			<point x="386" y="761"/>
			<point x="403" y="798"/>
			<point x="431" y="825"/>
			<point x="468" y="839"/>
			<point x="489" y="839" type="qcurve"/>
			<point x="510" y="839"/>
			<point x="547" y="825"/>
			<point x="575" y="798"/>
			<point x="592" y="761"/>
			<point x="592" y="737" type="qcurve"/>
			<point x="592" y="706"/>
			<point x="565" y="661"/>
			<point x="543" y="648" type="qcurve"/>
			<point x="556" y="578"/>
			<point x="578" y="435"/>
			<point x="599" y="277"/>
			<point x="620" y="102"/>
			<point x="632" y="0" type="qcurve"/>
		</contour>
		<contour>
			<point x="542" y="737" type="qcurve"/>
			<point x="542" y="763"/>
			<point x="511" y="792"/>
			<point x="489" y="792" type="qcurve"/>
			<point x="467" y="792"/>
			<point x="436" y="763"/>
			<point x="436" y="737" type="qcurve"/>
			<point x="436" y="711"/>
			<point x="467" y="682"/>
			<point x="489" y="682" type="qcurve"/>
			<point x="511" y="682"/>
			<point x="542" y="711"/>
		</contour>
		<contour>
			<point x="464" y="582" type="qcurve"/>
			<point x="429" y="531"/>
			<point x="325" y="370"/>
			<point x="259" y="256" type="qcurve"/>
			<point x="507" y="256" type="line"/>
			<point x="499" y="337"/>
			<point x="478" y="497"/>
		</contour>
	</outline>
</glyph>
<glyph name="AE" format="2">
	<unicode hex="00C6"/>
	<advance width="928"/>
	<outline>
		<contour>
			<point x="510" y="178" type="line"/>
			<point x="245" y="178" type="line"/>
			<point x="211" y="133"/>
			<point x="146" y="45"/>
			<point x="114" y="0" type="qcurve"/>
			<point x="3" y="0" type="line"/>
			<point x="82" y="108"/>
			<point x="231" y="299"/>
			<point x="374" y="469"/>
			<point x="513" y="622"/>
			<point x="582" y="693" type="qcurve"/>
			<point x="1027" y="693" type="line"/>
			<point x="1008" y="612" type="line"/>
			<point x="710" y="612" type="line"/>
			<point x="660" y="403" type="line"/>
			<point x="923" y="403" type="line"/>
			<point x="904" y="324" type="line"/>
			<point x="642" y="324" type="line"/>
			<point x="583" y="81" type="line"/>
			<point x="904" y="81" type="line"/>
			<point x="885" y="0" type="line"/>
			<point x="468" y="0" type="line"/>
		</contour>
		<contour>
			<point x="615" y="613" type="line"/>
			<point x="537" y="531"/>
			<point x="381" y="352"/>
			<point x="306" y="256" type="qcurve"/>
			<point x="529" y="256" type="line"/>
		</contour>
	</outline>
</glyph>
<glyph name="Ccedilla" format="2">
	<unicode hex="00C7"/>
	<advance width="600"/>
	<outline>
		<contour>
			<point x="382" y="-15" type="line"/>
			<point x="377" y="-20"/>
			<point x="370" y="-32"/>
			<point x="366" y="-38" type="qcurve"/>
			<point x="386" y="-49"/>
			<point x="406" y="-75"/>
			<point x="406" y="-98" type="qcurve"/>
			<point x="406" y="-143"/>
			<point x="344" y="-189"/>
			<point x="290" y="-189" type="qcurve"/>
			<point x="261" y="-189"/>
			<point x="222" y="-180"/>
			<point x="209" y="-174" type="qcurve"/>
			<point x="232" y="-119" type="line"/>
			<point x="240" y="-123"/>
			<point x="266" y="-130"/>
			<point x="285" y="-130" type="qcurve"/>
			<point x="302" y="-130"/>
			<point x="324" y="-119"/>
			<point x="324" y="-105" type="qcurve"/>
			<point x="324" y="-93"/>
			<point x="308" y="-81"/>
			<point x="289" y="-72" type="qcurve"/>
			<point x="283" y="-69" type="line"/>
			<point x="290" y="-57"/>
			<point x="312" y="-23"/>
			<point x="323" y="-9" type="qcurve"/>
			<point x="223" y="8"/>
			<point x="124" y="145"/>
			<point x="124" y="254" type="qcurve"/>
			<point x="124" y="344"/>
			<point x="181" y="508"/>
			<point x="286" y="634"/>
			<point x="434" y="709"/>
			<point x="525" y="709" type="qcurve"/>
			<point x="603" y="709"/>
			<point x="696" y="677"/>
			<point x="716" y="663" type="qcurve"/>
			<point x="676" y="583" type="line"/>
			<point x="653" y="598"/>
			<point x="574" y="625"/>
			<point x="520" y="625" type="qcurve"/>
			<point x="451" y="625"/>
			<point x="341" y="560"/>
			<point x="265" y="457"/>
			<point x="225" y="328"/>
			<point x="225" y="265" type="qcurve"/>
			<point x="225" y="70"/>
			<point x="394" y="70" type="qcurve"/>
			<point x="430" y="70"/>
			<point x="487" y="80"/>
			<point x="531" y="93"/>
			<point x="565" y="109"/>
			<point x="578" y="115" type="qcurve"/>
			<point x="590" y="31" type="line"/>
			<point x="578" y="24"/>
			<point x="539" y="8"/>
			<point x="487" y="-6"/>
			<point x="423" y="-15"/>
			<point x="387" y="-15" type="qcurve"/>
		</contour>
	</outline>
</glyph>
<glyph name="Eth" format="2">
	<unicode hex="00D0"/>
	<advance width="710"/>
	<outline>
		<contour>
			<point x="442" y="700" type="qcurve"/>
			<point x="596" y="700"/>
			<point x="748" y="555"/>
			<point x="748" y="432" type="qcurve"/>
			<point x="748" y="346"/>
			<point x="694" y="187"/>
			<point x="580" y="65"/>
			<point x="403" y="-7"/>
			<point x="280" y="-7" type="qcurve"/>
			<point x="238" y="-7"/>
			<point x="140" y="1"/>
			<point x="103" y="11" type="qcurve"/>
			<point x="178" y="324" type="line"/>
			<point x="97" y="324" type="line"/>
			<point x="115" y="399" type="line"/>
			<point x="196" y="399" type="line"/>
			<point x="264" y="684" type="line"/>
			<point x="306" y="694"/>
			<point x="400" y="700"/>
		</contour>
		<contour>
			<point x="434" y="618" type="qcurve"/>
			<point x="359" y="618"/>
			<point x="344" y="614" type="qcurve"/>
			<point x="292" y="399" type="line"/>
			<point x="422" y="399" type="line"/>
			<point x="404" y="324" type="line"/>
			<point x="274" y="324" type="line"/>
			<point x="216" y="80" type="line"/>
			<point x="224" y="78"/>
			<point x="262" y="75"/>
			<point x="305" y="75" type="qcurve"/>
			<point x="384" y="75"/>
			<point x="511" y="128"/>
			<point x="599" y="223"/>
			<point x="647" y="354"/>
			<point x="647" y="432" type="qcurve"/>
			<point x="647" y="520"/>
			<point x="545" y="618"/>
		</contour>
	</outline>
</glyph>
<glyph name="multiply" format="2">
	<unicode hex="00D7"/>
	<advance width="564"/>
	<outline>
		<contour>
			<point x="452" y="98" type="line"/>
			<point x="515" y="149" type="line"/>
			<point x="406" y="293" type="line"/>
			<point x="588" y="440" type="line"/>
			<point x="541" y="500" type="line"/>
			<point x="361" y="353" type="line"/>
			<point x="252" y="497" type="line"/>
			<point x="189" y="446" type="line"/>
			<point x="298" y="302" type="line"/>
			<point x="116" y="155" type="line"/>
			<point x="163" y="95" type="line"/>
			<point x="343" y="242" type="line"/>
		</contour>
	</outline>
</glyph>
<glyph name="Oslash" format="2">
	<unicode hex="00D8"/>
	<advance width="739"/>
	<outline>
		<contour>
			<point x="525" y="709" type="qcurve"/>
			<point x="617" y="709"/>
			<point x="681" y="663" type="qcurve"/>
			<point x="740" y="730" type="line"/>
			<point x="796" y="687" type="line"/>
			<point x="731" y="613" type="line"/>
			<point x="753" y="581"/>
			<point x="777" y="499"/>
			<point x="777" y="445" type="qcurve"/>
			<point x="777" y="362"/>
			<point x="726" y="198"/>
			<point x="626" y="67"/>
			<point x="476" y="-15"/>
			<point x="376" y="-15" type="qcurve"/>
			<point x="282" y="-15"/>
			<point x="219" y="30" type="qcurve"/>
			<point x="161" y="-36" type="line"/>
			<point x="104" y="7" type="line"/>
			<point x="169" y="81" type="line"/>
			<point x="124" y="145"/>
			<point x="124" y="249" type="qcurve"/>
			<point x="124" y="331"/>
			<point x="174" y="496"/>
			<point x="275" y="627"/>
			<point x="425" y="709"/>
		</contour>
		<contour>
			<point x="386" y="69" type="qcurve"/>
			<point x="453" y="69"/>
			<point x="561" y="134"/>
			<point x="636" y="238"/>
			<point x="676" y="368"/>
			<point x="676" y="433" type="qcurve"/>
			<point x="676" y="462"/>
			<point x="670" y="512"/>
			<point x="662" y="534" type="qcurve"/>
			<point x="281" y="101" type="line"/>
			<point x="300" y="84"/>
			<point x="353" y="69"/>
		</contour>
		<contour>
			<point x="225" y="261" type="qcurve"/>
			<point x="225" y="232"/>
			<point x="231" y="180"/>
			<point x="239" y="160" type="qcurve"/>
			<point x="619" y="593" type="line"/>
			<point x="581" y="625"/>
			<point x="515" y="625" type="qcurve"/>
			<point x="447" y="625"/>
			<point x="340" y="560"/>
			<point x="265" y="456"/>
			<point x="225" y="326"/>
		</contour>
	</outline>
</glyph>
<glyph name="Thorn" format="2">
	<unicode hex="00DE"/>
	<advance width="594"/>
	<outline>
		<contour>
			<point x="344" y="693" type="line"/>
			<point x="317" y="579" type="line"/>
			<point x="336" y="581"/>
			<point x="377" y="582"/>
			<point x="396" y="582" type="qcurve"/>
			<point x="517" y="582"/>
			<point x="638" y="492"/>
			<point x="638" y="404" type="qcurve"/>
			<point x="638" y="336"/>
			<point x="587" y="237"/>
			<point x="493" y="173"/>
			<point x="361" y="142"/>
			<point x="280" y="142" type="qcurve"/>
			<point x="211" y="142" type="line"/>
			<point x="177" y="0" type="line"/>
			<point x="80" y="0" type="line"/>
			<point x="247" y="693" type="line"/>
		</contour>
		<contour>
			<point x="382" y="500" type="qcurve"/>
			<point x="345" y="500"/>
			<point x="303" y="497"/>
			<point x="296" y="496" type="qcurve"/>
			<point x="231" y="223" type="line"/>
			<point x="293" y="223" type="line"/>
			<point x="335" y="223"/>
			<point x="423" y="238"/>
			<point x="493" y="276"/>
			<point x="538" y="343"/>
			<point x="538" y="396" type="qcurve"/>
			<point x="538" y="453"/>
			<point x="454" y="500"/>
		</contour>
	</outline>
</glyph>
<glyph name="germandbls" format="2">
	<unicode hex="00DF"/>
	<advance width="600"/>
	<outline>
		<contour>
			<point x="194" y="112" type="line"/>
			<point x="182" y="61"/>
			<point x="164" y="-19"/>
			<point x="139" y="-89"/>
			<point x="98" y="-154"/>
			<point x="63" y="-189" type="qcurve"/>
			<point x="-19" y="-177" type="line"/>
			<point x="11" y="-138"/>
			<point x="45" y="-84"/>
			<point x="68" y="-28"/>
			<point x="85" y="45"/>
			<point x="99" y="103" type="qcurve"/>
			<point x="207" y="554" type="line"/>
			<point x="235" y="672"/>
			<point x="365" y="776"/>
			<point x="471" y="776" type="qcurve"/>
			<point x="511" y="776"/>
			<point x="571" y="754"/>
			<point x="611" y="717"/>
			<point x="631" y="668"/>
			<point x="631" y="641" type="qcurve"/>
			<point x="631" y="612"/>
			<point x="618" y="569"/>
			<point x="591" y="531"/>
			<point x="552" y="494"/>
			<point x="526" y="470" type="qcurve"/>
			<point x="509" y="455"/>
			<point x="484" y="433"/>
			<point x="468" y="413"/>
			<point x="460" y="390"/>
			<point x="460" y="375" type="qcurve"/>
			<point x="460" y="354"/>
			<point x="493" y="326"/>
			<point x="522" y="306" type="qcurve"/>
			<point x="541" y="293"/>
			<point x="573" y="267"/>
			<point x="597" y="235"/>
			<point x="611" y="195"/>
			<point x="611" y="168" type="qcurve"/>
			<point x="611" y="123"/>
			<point x="578" y="55"/>
			<point x="521" y="10"/>
			<point x="441" y="-12"/>
			<point x="395" y="-12" type="qcurve"/>
			<point x="338" y="-12"/>
			<point x="261" y="14"/>
			<point x="251" y="22" type="qcurve"/>
			<point x="286" y="97" type="line"/>
			<point x="297" y="90"/>
			<point x="356" y="66"/>
			<point x="402" y="66" type="qcurve"/>
			<point x="453" y="66"/>
			<point x="518" y="114"/>
			<point x="518" y="162" type="qcurve"/>
			<point x="518" y="192"/>
			<point x="485" y="233"/>
			<point x="443" y="259" type="qcurve"/>
			<point x="417" y="275"/>
			<point x="387" y="302"/>
			<point x="371" y="328"/>
			<point x="367" y="354"/>
			<point x="367" y="369" type="qcurve"/>
			<point x="367" y="412"/>
			<point x="422" y="478"/>
			<point x="460" y="510" type="qcurve"/>
			<point x="478" y="525"/>
			<point x="507" y="551"/>
			<point x="528" y="578"/>
			<point x="539" y="610"/>
			<point x="539" y="630" type="qcurve"/>
			<point x="539" y="660"/>
			<point x="499" y="696"/>
			<point x="459" y="696" type="qcurve"/>
			<point x="334" y="696"/>
			<point x="300" y="552" type="qcurve"/>
		</contour>
	</outline>
</glyph>
<glyph name="ae" format="2">
	<unicode hex="00E6"/>
	<advance width="836"/>
	<outline>
		<contour>
			<point x="786" y="23" type="line"/>
			<point x="760" y="9"/>
			<point x="673" y="-13"/>
			<point x="625" y="-13" type="qcurve"/>
			<point x="598" y="-13"/>
			<point x="545" y="-3"/>
			<point x="499" y="20"/>
			<point x="462" y="57"/>
			<point x="451" y="85" type="qcurve"/>
			<point x="416" y="39"/>
			<point x="308" y="-13"/>
			<point x="245" y="-13" type="qcurve"/>
			<point x="216" y="-13"/>
			<point x="162" y="2"/>
			<point x="122" y="33"/>
			<point x="98" y="81"/>
			<point x="98" y="114" type="qcurve"/>
			<point x="98" y="184"/>
			<point x="167" y="263"/>
			<point x="272" y="301"/>
			<point x="396" y="312"/>
			<point x="452" y="315" type="qcurve"/>
			<point x="453" y="323"/>
			<point x="454" y="338"/>
			<point x="454" y="346" type="qcurve"/>
			<point x="454" y="400"/>
			<point x="394" y="449"/>
			<point x="328" y="449" type="qcurve"/>
			<point x="308" y="449"/>
			<point x="268" y="441"/>
			<point x="232" y="431"/>
			<point x="203" y="419"/>
			<point x="196" y="415" type="qcurve"/>
			<point x="188" y="494" type="line"/>
			<point x="211" y="506"/>
			<point x="298" y="530"/>
			<point x="346" y="530" type="qcurve"/>
			<point x="372" y="530"/>
			<point x="424" y="520"/>
			<point x="471" y="498"/>
			<point x="510" y="459"/>
			<point x="523" y="431" type="qcurve"/>
			<point x="542" y="456"/>
			<point x="590" y="493"/>
			<point x="644" y="518"/>
			<point x="700" y="530"/>
			<point x="727" y="530" type="qcurve"/>
			<point x="757" y="530"/>
			<point x="812" y="516"/>
			<point x="852" y="485"/>
			<point x="876" y="437"/>
			<point x="876" y="403" type="qcurve"/>
			<point x="876" y="356"/>
			<point x="844" y="291"/>
			<point x="790" y="247"/>
			<point x="719" y="223"/>
			<point x="640" y="209"/>
			<point x="559" y="204"/>
			<point x="522" y="202" type="qcurve"/>
			<point x="521" y="194"/>
			<point x="520" y="179"/>
			<point x="520" y="172" type="qcurve"/>
			<point x="520" y="115"/>
			<point x="580" y="68"/>
			<point x="646" y="68" type="qcurve"/>
			<point x="665" y="68"/>
			<point x="706" y="75"/>
			<point x="743" y="86"/>
			<point x="772" y="97"/>
			<point x="778" y="102" type="qcurve"/>
		</contour>
		<contour>
			<point x="441" y="244" type="qcurve"/>
			<point x="370" y="242"/>
			<point x="274" y="226"/>
			<point x="215" y="196"/>
			<point x="189" y="154"/>
			<point x="189" y="127" type="qcurve"/>
			<point x="189" y="95"/>
			<point x="231" y="64"/>
			<point x="265" y="64" type="qcurve"/>
			<point x="331" y="64"/>
			<point x="424" y="157"/>
		</contour>
		<contour>
			<point x="533" y="273" type="qcurve"/>
			<point x="603" y="274"/>
			<point x="700" y="291"/>
			<point x="759" y="321"/>
			<point x="785" y="363"/>
			<point x="785" y="390" type="qcurve"/>
			<point x="785" y="422"/>
			<point x="743" y="453"/>
			<point x="709" y="453" type="qcurve"/>
			<point x="643" y="453"/>
			<point x="550" y="360"/>
		</contour>
	</outline>
</glyph>
<glyph name="ccedilla" format="2">
	<unicode hex="00E7"/>
	<advance width="451"/>
	<outline>
		<contour>
			<point x="100" y="186" type="qcurve"/>
			<point x="100" y="254"/>
			<point x="141" y="380"/>
			<point x="221" y="476"/>
			<point x="337" y="533"/>
			<point x="412" y="533" type="qcurve"/>
			<point x="445" y="533"/>
			<point x="505" y="524"/>
			<point x="532" y="511" type="qcurve"/>
			<point x="497" y="433" type="line"/>
			<point x="481" y="442"/>
			<point x="438" y="452"/>
			<point x="404" y="452" type="qcurve"/>
			<point x="355" y="452"/>
			<point x="277" y="409"/>
			<point x="222" y="338"/>
			<point x="193" y="245"/>
			<point x="193" y="195" type="qcurve"/>
			<point x="193" y="169"/>
			<point x="204" y="123"/>
			<point x="232" y="88"/>
			<point x="279" y="68"/>
			<point x="315" y="68" type="qcurve"/>
			<point x="333" y="68"/>
			<point x="373" y="75"/>
			<point x="407" y="85"/>
			<point x="434" y="96"/>
			<point x="440" y="101" type="qcurve"/>
			<point x="448" y="22" type="line"/>
			<point x="429" y="10"/>
			<point x="349" y="-12"/>
			<point x="300" y="-13" type="qcurve"/>
			<point x="295" y="-20"/>
			<point x="287" y="-32"/>
			<point x="283" y="-38" type="qcurve"/>
			<point x="303" y="-49"/>
			<point x="323" y="-75"/>
			<point x="323" y="-98" type="qcurve"/>
			<point x="323" y="-143"/>
			<point x="261" y="-189"/>
			<point x="207" y="-189" type="qcurve"/>
			<point x="178" y="-189"/>
			<point x="139" y="-180"/>
			<point x="126" y="-174" type="qcurve"/>
			<point x="149" y="-119" type="line"/>
			<point x="157" y="-123"/>
			<point x="183" y="-130"/>
			<point x="202" y="-130" type="qcurve"/>
			<point x="219" y="-130"/>
			<point x="241" y="-119"/>
			<point x="241" y="-105" type="qcurve"/>
			<point x="241" y="-93"/>
			<point x="225" y="-81"/>
			<point x="206" y="-72" type="qcurve"/>
			<point x="200" y="-69" type="line"/>
			<point x="207" y="-56"/>
			<point x="231" y="-21"/>
			<point x="241" y="-7" type="qcurve"/>
			<point x="172" y="9"/>
			<point x="100" y="111"/>
		</contour>
	</outline>
</glyph>
<glyph name="eth" format="2">
	<unicode hex="00F0"/>
	<advance width="569"/>
	<outline>
		<contour>
			<point x="589" y="427" type="qcurve"/>
			<point x="589" y="397"/>
			<point x="581" y="308"/>
			<point x="557" y="211"/>
			<point x="514" y="113"/>
			<point x="446" y="36"/>
			<point x="349" y="-13"/>
			<point x="282" y="-13" type="qcurve"/>
			<point x="243" y="-13"/>
			<point x="176" y="12"/>
			<point x="128" y="58"/>
			<point x="100" y="126"/>
			<point x="100" y="168" type="qcurve"/>
			<point x="100" y="237"/>
			<point x="137" y="355"/>
			<point x="209" y="441"/>
			<point x="316" y="490"/>
			<point x="386" y="490" type="qcurve"/>
			<point x="422" y="490"/>
			<point x="478" y="471"/>
			<point x="496" y="460" type="qcurve"/>
			<point x="494" y="492"/>
			<point x="480" y="559"/>
			<point x="466" y="592" type="qcurve"/>
			<point x="336" y="551" type="line"/>
			<point x="328" y="614" type="line"/>
			<point x="438" y="649" type="line"/>
			<point x="422" y="675"/>
			<point x="387" y="710"/>
			<point x="367" y="729" type="qcurve"/>
			<point x="437" y="776" type="line"/>
			<point x="456" y="762"/>
			<point x="502" y="712"/>
			<point x="524" y="676" type="qcurve"/>
			<point x="655" y="718" type="line"/>
			<point x="663" y="655" type="line"/>
			<point x="553" y="620" type="line"/>
			<point x="569" y="581"/>
			<point x="589" y="485"/>
		</contour>
		<contour>
			<point x="295" y="67" type="qcurve"/>
			<point x="341" y="67"/>
			<point x="411" y="120"/>
			<point x="460" y="205"/>
			<point x="489" y="314"/>
			<point x="494" y="370" type="qcurve"/>
			<point x="468" y="392"/>
			<point x="408" y="409"/>
			<point x="379" y="409" type="qcurve"/>
			<point x="288" y="409"/>
			<point x="193" y="286"/>
			<point x="193" y="177" type="qcurve"/>
			<point x="193" y="123"/>
			<point x="246" y="67"/>
		</contour>
	</outline>
</glyph>
<glyph name="divide" format="2">
	<unicode hex="00F7"/>
	<advance width="564"/>
	<outline>
		<contour>
			<point x="368" y="120" type="curve" smooth="yes"/>
			<point x="368" y="148"/>
			<point x="348" y="167"/>
			<point x="319" y="167" type="curve" smooth="yes"/>
			<point x="275" y="167"/>
			<point x="244" y="129"/>
			<point x="244" y="90" type="curve" smooth="yes"/>
			<point x="244" y="62"/>
			<point x="264" y="43"/>
			<point x="293" y="43" type="curve" smooth="yes"/>
			<point x="337" y="43"/>
			<point x="368" y="81"/>
		</contour>
		<contour>
			<point x="460" y="504" type="curve" smooth="yes"/>
			<point x="460" y="532"/>
			<point x="440" y="551"/>
			<point x="411" y="551" type="curve" smooth="yes"/>
			<point x="367" y="551"/>
			<point x="336" y="513"/>
			<point x="336" y="474" type="curve" smooth="yes"/>
			<point x="336" y="446"/>
			<point x="356" y="427"/>
			<point x="385" y="427" type="curve" smooth="yes"/>
			<point x="429" y="427"/>
			<point x="460" y="465"/>
		</contour>
		<contour>
			<point x="135" y="337" type="line"/>
			<point x="116" y="258" type="line"/>
			<point x="565" y="258" type="line"/>
			<point x="584" y="337" type="line"/>
		</contour>
	</outline>
</glyph>
<glyph name="oslash" format="2">
	<unicode hex="00F8"/>
	<advance width="555"/>
	<outline>
		<contour>
			<point x="575" y="351" type="qcurve"/>
			<point x="575" y="293"/>
			<point x="542" y="165"/>
			<point x="470" y="57"/>
			<point x="356" y="-13"/>
			<point x="275" y="-13" type="qcurve"/>
			<point x="209" y="-13"/>
			<point x="166" y="18" type="qcurve"/>
			<point x="119" y="-36" type="line"/>
			<point x="69" y="1" type="line"/>
			<point x="124" y="64" type="line"/>
			<point x="100" y="106"/>
			<point x="100" y="169" type="qcurve"/>
			<point x="100" y="227"/>
			<point x="133" y="355"/>
			<point x="206" y="463"/>
			<point x="320" y="533"/>
			<point x="401" y="533" type="qcurve"/>
			<point x="466" y="533"/>
			<point x="509" y="502" type="qcurve"/>
			<point x="555" y="554" type="line"/>
			<point x="606" y="517" type="line"/>
			<point x="551" y="454" type="line"/>
			<point x="562" y="433"/>
			<point x="575" y="382"/>
		</contour>
		<contour>
			<point x="191" y="176" type="qcurve"/>
			<point x="191" y="167"/>
			<point x="191" y="151"/>
			<point x="193" y="143" type="qcurve"/>
			<point x="450" y="435" type="line"/>
			<point x="424" y="455"/>
			<point x="384" y="455" type="qcurve"/>
			<point x="339" y="455"/>
			<point x="267" y="402"/>
			<point x="217" y="321"/>
			<point x="191" y="222"/>
		</contour>
		<contour>
			<point x="291" y="65" type="qcurve"/>
			<point x="336" y="65"/>
			<point x="408" y="118"/>
			<point x="458" y="199"/>
			<point x="484" y="298"/>
			<point x="484" y="344" type="qcurve"/>
			<point x="484" y="352"/>
			<point x="484" y="368"/>
			<point x="482" y="376" type="qcurve"/>
			<point x="225" y="84" type="line"/>
			<point x="247" y="65"/>
		</contour>
	</outline>
</glyph>
<glyph name="thorn" format="2">
	<unicode hex="00FE"/>
	<advance width="546"/>
	<outline>
		<contour>
			<point x="379" y="533" type="qcurve"/>
			<point x="428" y="533"/>
			<point x="499" y="505"/>
			<point x="545" y="456"/>
			<point x="568" y="389"/>
			<point x="568" y="349" type="qcurve"/>
			<point x="568" y="280"/>
			<point x="526" y="151"/>
			<point x="439" y="51"/>
			<point x="306" y="-9"/>
			<point x="215" y="-9" type="qcurve"/>
			<point x="204" y="-9"/>
			<point x="178" y="-7"/>
			<point x="168" y="-5" type="qcurve"/>
			<point x="125" y="-185" type="line"/>
			<point x="32" y="-185" type="line"/>
			<point x="259" y="760" type="line"/>
			<point x="356" y="776" type="line"/>
			<point x="295" y="521" type="line"/>
			<point x="344" y="533"/>
		</contour>
		<contour>
			<point x="356" y="454" type="qcurve"/>
			<point x="331" y="454"/>
			<point x="289" y="445"/>
			<point x="275" y="441" type="qcurve"/>
			<point x="187" y="73" type="line"/>
			<point x="197" y="71"/>
			<point x="220" y="70"/>
			<point x="231" y="70" type="qcurve"/>
			<point x="288" y="70"/>
			<point x="378" y="114"/>
			<point x="441" y="189"/>
			<point x="475" y="286"/>
			<point x="475" y="339" type="qcurve"/>
			<point x="475" y="361"/>
			<point x="465" y="403"/>
			<point x="438" y="435"/>
			<point x="392" y="454"/>
		</contour>
	</outline>
</glyph>
<glyph name="Aogonek" format="2">
	<unicode hex="0104"/>
	<advance width="636"/>
	<outline>
		<contour>
			<point x="632" y="4" type="curve"/>
			<point x="600" y="294"/>
			<point x="574" y="493"/>
			<point x="534" y="693" type="curve"/>
			<point x="439" y="693" type="line"/>
			<point x="300" y="492"/>
			<point x="159" y="269"/>
			<point x="10" y="0" type="curve"/>
			<point x="116" y="0" type="line"/>
			<point x="214" y="178" type="line"/>
			<point x="516" y="178" type="line"/>
			<point x="523" y="117"/>
			<point x="527" y="59"/>
			<point x="534" y="-1" type="curve"/>
			<point x="525" y="-8"/>
			<point x="513" y="-16"/>
			<point x="500" y="-27" type="curve" smooth="yes"/>
			<point x="468" y="-54"/>
			<point x="440" y="-88"/>
			<point x="440" y="-124" type="curve" smooth="yes"/>
			<point x="440" y="-161"/>
			<point x="466" y="-187"/>
			<point x="539" y="-187" type="curve" smooth="yes"/>
			<point x="562" y="-187"/>
			<point x="582" y="-183"/>
			<point x="597" y="-176" type="curve"/>
			<point x="605" y="-116" type="line"/>
			<point x="593" y="-120"/>
			<point x="578" y="-123"/>
			<point x="565" y="-123" type="curve" smooth="yes"/>
			<point x="538" y="-123"/>
			<point x="528" y="-114"/>
			<point x="528" y="-101" type="curve" smooth="yes"/>
			<point x="528" y="-74"/>
			<point x="558" y="-52"/>
			<point x="574" y="-39" type="curve" smooth="yes"/>
			<point x="597" y="-20"/>
			<point x="616" y="-7"/>
		</contour>
		<contour>
			<point x="464" y="582" type="curve"/>
			<point x="483" y="469"/>
			<point x="496" y="363"/>
			<point x="507" y="256" type="curve"/>
			<point x="259" y="256" type="line"/>
			<point x="347" y="407"/>
			<point x="417" y="514"/>
		</contour>
	</outline>
</glyph>
<glyph name="aogonek" format="2">
	<unicode hex="0105"/>
	<advance width="544"/>
	<outline>
		<contour>
			<point x="438" y="-187" type="qcurve"/>
			<point x="383" y="-187"/>
			<point x="339" y="-152"/>
			<point x="339" y="-124" type="qcurve"/>
			<point x="339" y="-97"/>
			<point x="375" y="-47"/>
			<point x="399" y="-27" type="qcurve"/>
			<point x="407" y="-20"/>
			<point x="425" y="-7"/>
			<point x="432" y="-2" type="qcurve"/>
			<point x="427" y="9"/>
			<point x="418" y="34"/>
			<point x="415" y="48" type="qcurve"/>
			<point x="404" y="38"/>
			<point x="374" y="16"/>
			<point x="336" y="-2"/>
			<point x="291" y="-13"/>
			<point x="264" y="-13" type="qcurve"/>
			<point x="220" y="-13"/>
			<point x="157" y="15"/>
			<point x="117" y="65"/>
			<point x="98" y="133"/>
			<point x="98" y="174" type="qcurve"/>
			<point x="98" y="241"/>
			<point x="143" y="369"/>
			<point x="233" y="469"/>
			<point x="369" y="531"/>
			<point x="460" y="531" type="qcurve"/>
			<point x="487" y="531"/>
			<point x="559" y="519"/>
			<point x="585" y="505" type="qcurve"/>
			<point x="508" y="191" type="line"/>
			<point x="503" y="168"/>
			<point x="496" y="126"/>
			<point x="496" y="103" type="qcurve"/>
			<point x="496" y="80"/>
			<point x="505" y="32"/>
			<point x="518" y="0" type="qcurve"/>
			<point x="506" y="-9"/>
			<point x="486" y="-24"/>
			<point x="474" y="-35" type="qcurve"/>
			<point x="457" y="-49"/>
			<point x="427" y="-82"/>
			<point x="427" y="-101" type="qcurve"/>
			<point x="427" y="-111"/>
			<point x="444" y="-123"/>
			<point x="464" y="-123" type="qcurve"/>
			<point x="474" y="-123"/>
			<point x="495" y="-119"/>
			<point x="504" y="-116" type="qcurve"/>
			<point x="496" y="-176" type="line"/>
			<point x="472" y="-187"/>
		</contour>
		<contour>
			<point x="283" y="66" type="qcurve"/>
			<point x="325" y="66"/>
			<point x="385" y="102"/>
			<point x="407" y="126" type="qcurve"/>
			<point x="408" y="143"/>
			<point x="413" y="180"/>
			<point x="417" y="199" type="qcurve"/>
			<point x="477" y="447" type="line"/>
			<point x="472" y="449"/>
			<point x="449" y="451"/>
			<point x="440" y="451" type="qcurve"/>
			<point x="383" y="451"/>
			<point x="291" y="407"/>
			<point x="226" y="334"/>
			<point x="191" y="237"/>
			<point x="191" y="184" type="qcurve"/>
			<point x="191" y="163"/>
			<point x="199" y="120"/>
			<point x="220" y="87"/>
			<point x="255" y="66"/>
		</contour>
	</outline>
</glyph>
<glyph name="dcroat" format="2">
	<unicode hex="0111"/>
	<advance width="551"/>
	<outline>
		<contour>
			<point x="499" y="103" type="qcurve"/>
			<point x="499" y="80"/>
			<point x="507" y="33"/>
			<point x="517" y="6" type="qcurve"/>
			<point x="435" y="-6" type="line"/>
			<point x="425" y="13"/>
			<point x="417" y="46" type="qcurve"/>
			<point x="395" y="26"/>
			<point x="322" y="-13"/>
			<point x="268" y="-13" type="qcurve"/>
			<point x="224" y="-13"/>
			<point x="160" y="14"/>
			<point x="118" y="64"/>
			<point x="98" y="133"/>
			<point x="98" y="174" type="qcurve"/>
			<point x="98" y="241"/>
			<point x="143" y="368"/>
			<point x="232" y="467"/>
			<point x="365" y="527"/>
			<point x="454" y="527" type="qcurve"/>
			<point x="465" y="527"/>
			<point x="487" y="525"/>
			<point x="499" y="523" type="qcurve"/>
			<point x="521" y="614" type="line"/>
			<point x="364" y="614" type="line"/>
			<point x="380" y="683" type="line"/>
			<point x="537" y="683" type="line"/>
			<point x="556" y="760" type="line"/>
			<point x="653" y="776" type="line"/>
			<point x="630" y="683" type="line"/>
			<point x="704" y="683" type="line"/>
			<point x="688" y="614" type="line"/>
			<point x="614" y="614" type="line"/>
			<point x="512" y="191" type="line"/>
			<point x="507" y="168"/>
			<point x="499" y="126"/>
		</contour>
		<contour>
			<point x="287" y="66" type="qcurve"/>
			<point x="329" y="66"/>
			<point x="388" y="101"/>
			<point x="410" y="124" type="qcurve"/>
			<point x="411" y="140"/>
			<point x="416" y="177"/>
			<point x="421" y="199" type="qcurve"/>
			<point x="480" y="446" type="line"/>
			<point x="471" y="448"/>
			<point x="449" y="449"/>
			<point x="439" y="449" type="qcurve"/>
			<point x="382" y="449"/>
			<point x="291" y="406"/>
			<point x="226" y="333"/>
			<point x="191" y="237"/>
			<point x="191" y="184" type="qcurve"/>
			<point x="191" y="161"/>
			<point x="201" y="119"/>
			<point x="223" y="86"/>
			<point x="260" y="66"/>
		</contour>
	</outline>
</glyph>
<glyph name="Eogonek" format="2">
	<unicode hex="0118"/>
	<advance width="557"/>
	<outline>
		<contour>
			<point x="419" y="-187" type="curve" smooth="yes"/>
			<point x="442" y="-187"/>
			<point x="462" y="-183"/>
			<point x="477" y="-176" type="curve"/>
			<point x="485" y="-116" type="line"/>
			<point x="473" y="-120"/>
			<point x="458" y="-123"/>
			<point x="445" y="-123" type="curve" smooth="yes"/>
			<point x="418" y="-123"/>
			<point x="408" y="-114"/>
			<point x="408" y="-101" type="curve" smooth="yes"/>
			<point x="408" y="-74"/>
			<point x="438" y="-52"/>
			<point x="454" y="-39" type="curve" smooth="yes"/>
			<point x="477" y="-19"/>
			<point x="498" y="-6"/>
			<point x="515" y="5" type="curve"/>
			<point x="533" y="81" type="line"/>
			<point x="197" y="81" type="line"/>
			<point x="256" y="324" type="line"/>
			<point x="533" y="324" type="line"/>
			<point x="552" y="403" type="line"/>
			<point x="274" y="403" type="line"/>
			<point x="324" y="612" type="line"/>
			<point x="637" y="612" type="line"/>
			<point x="656" y="693" type="line"/>
			<point x="247" y="693" type="line"/>
			<point x="81" y="0" type="line"/>
			<point x="416" y="0" type="line"/>
			<point x="407" y="-7"/>
			<point x="393" y="-16"/>
			<point x="380" y="-27" type="curve" smooth="yes"/>
			<point x="348" y="-54"/>
			<point x="320" y="-88"/>
			<point x="320" y="-124" type="curve" smooth="yes"/>
			<point x="320" y="-161"/>
			<point x="346" y="-187"/>
		</contour>
	</outline>
</glyph>
<glyph name="eogonek" format="2">
	<unicode hex="0119"/>
	<advance width="518"/>
	<outline>
		<contour>
			<point x="100" y="173" type="curve" smooth="yes"/>
			<point x="100" y="65"/>
			<point x="162" y="-11"/>
			<point x="297" y="-11" type="curve" smooth="yes"/>
			<point x="309" y="-11"/>
			<point x="331" y="-11"/>
			<point x="340" y="-8" type="curve"/>
			<point x="331" y="-13"/>
			<point x="319" y="-22"/>
			<point x="312" y="-27" type="curve" smooth="yes"/>
			<point x="280" y="-54"/>
			<point x="252" y="-88"/>
			<point x="252" y="-124" type="curve" smooth="yes"/>
			<point x="252" y="-161"/>
			<point x="278" y="-187"/>
			<point x="351" y="-187" type="curve" smooth="yes"/>
			<point x="374" y="-187"/>
			<point x="394" y="-183"/>
			<point x="409" y="-176" type="curve"/>
			<point x="417" y="-116" type="line"/>
			<point x="405" y="-120"/>
			<point x="390" y="-123"/>
			<point x="377" y="-123" type="curve" smooth="yes"/>
			<point x="350" y="-123"/>
			<point x="340" y="-114"/>
			<point x="340" y="-101" type="curve" smooth="yes"/>
			<point x="340" y="-75"/>
			<point x="373" y="-48"/>
			<point x="387" y="-36" type="curve" smooth="yes"/>
			<point x="422" y="-7"/>
			<point x="443" y="10"/>
			<point x="466" y="22" type="curve"/>
			<point x="460" y="102" type="line"/>
			<point x="443" y="90"/>
			<point x="379" y="68"/>
			<point x="328" y="68" type="curve" smooth="yes"/>
			<point x="214" y="68"/>
			<point x="191" y="120"/>
			<point x="191" y="181" type="curve" smooth="yes"/>
			<point x="191" y="185"/>
			<point x="191" y="191"/>
			<point x="192" y="202" type="curve"/>
			<point x="340" y="210"/>
			<point x="558" y="215"/>
			<point x="558" y="403" type="curve" smooth="yes"/>
			<point x="558" y="471"/>
			<point x="512" y="532"/>
			<point x="403" y="532" type="curve" smooth="yes"/>
			<point x="215" y="532"/>
			<point x="100" y="361"/>
		</contour>
		<contour>
			<point x="204" y="273" type="curve"/>
			<point x="228" y="368"/>
			<point x="297" y="453"/>
			<point x="391" y="453" type="curve" smooth="yes"/>
			<point x="451" y="453"/>
			<point x="467" y="420"/>
			<point x="467" y="396" type="curve" smooth="yes"/>
			<point x="467" y="297"/>
			<point x="358" y="278"/>
		</contour>
	</outline>
</glyph>
<glyph name="hbar" format="2">
	<unicode hex="0127"/>
	<advance width="552"/>
	<outline>
		<contour>
			<point x="76" y="0" type="line"/>
			<point x="224" y="614" type="line"/>
			<point x="150" y="614" type="line"/>
			<point x="166" y="683" type="line"/>
			<point x="240" y="683" type="line"/>
			<point x="259" y="760" type="line"/>
			<point x="356" y="776" type="line"/>
			<point x="333" y="683" type="line"/>
			<point x="490" y="683" type="line"/>
			<point x="474" y="614" type="line"/>
			<point x="316" y="614" type="line"/>
			<point x="291" y="509" type="line"/>
			<point x="314" y="517"/>
			<point x="365" y="527"/>
			<point x="391" y="527" type="qcurve"/>
			<point x="436" y="527"/>
			<point x="501" y="502"/>
			<point x="541" y="459"/>
			<point x="560" y="398"/>
			<point x="560" y="362" type="qcurve"/>
			<point x="560" y="318"/>
			<point x="546" y="262" type="qcurve"/>
			<point x="483" y="0" type="line"/>
			<point x="390" y="0" type="line"/>
			<point x="448" y="242" type="line"/>
			<point x="455" y="270"/>
			<point x="468" y="328"/>
			<point x="468" y="354" type="qcurve"/>
			<point x="468" y="394"/>
			<point x="424" y="447"/>
			<point x="364" y="447" type="qcurve"/>
			<point x="340" y="447"/>
			<point x="289" y="438"/>
			<point x="272" y="430" type="qcurve"/>
			<point x="169" y="0" type="line"/>
		</contour>
	</outline>
</glyph>
<glyph name="Iogonek" format="2">
	<unicode hex="012E"/>
	<advance width="263"/>
	<outline>
		<contour>
			<point x="247" y="693" type="line"/>
			<point x="344" y="693" type="line"/>
			<point x="178" y="0" type="line"/>
			<point x="167" y="-6"/>
			<point x="140" y="-23"/>
			<point x="124" y="-37" type="qcurve"/>
			<point x="118" y="-42"/>
			<point x="101" y="-56"/>
			<point x="86" y="-72"/>
			<point x="76" y="-91"/>
			<point x="76" y="-101" type="qcurve"/>
			<point x="76" y="-111"/>
			<point x="93" y="-123"/>
			<point x="113" y="-123" type="qcurve"/>
			<point x="123" y="-123"/>
			<point x="144" y="-119"/>
			<point x="153" y="-116" type="qcurve"/>
			<point x="145" y="-176" type="line"/>
			<point x="121" y="-187"/>
			<point x="87" y="-187" type="qcurve"/>
			<point x="32" y="-187"/>
			<point x="-12" y="-152"/>
			<point x="-12" y="-124" type="qcurve"/>
			<point x="-12" y="-97"/>
			<point x="24" y="-47"/>
			<point x="48" y="-27" type="qcurve"/>
			<point x="57" y="-19"/>
			<point x="73" y="-7"/>
			<point x="81" y="-1" type="qcurve"/>
		</contour>
	</outline>
</glyph>
<glyph name="iogonek" format="2">
	<unicode hex="012F"/>
	<advance width="249"/>
	<outline>
		<contour>
			<point x="80" y="-187" type="qcurve"/>
			<point x="25" y="-187"/>
			<point x="-19" y="-152"/>
			<point x="-19" y="-124" type="qcurve"/>
			<point x="-19" y="-97"/>
			<point x="17" y="-47"/>
			<point x="41" y="-27" type="qcurve"/>
			<point x="49" y="-20"/>
			<point x="68" y="-5"/>
			<point x="76" y="0" type="qcurve"/>
			<point x="201" y="520" type="line"/>
			<point x="294" y="520" type="line"/>
			<point x="169" y="0" type="line"/>
			<point x="158" y="-8"/>
			<point x="130" y="-26"/>
			<point x="115" y="-39" type="qcurve"/>
			<point x="109" y="-44"/>
			<point x="93" y="-57"/>
			<point x="79" y="-73"/>
			<point x="69" y="-91"/>
			<point x="69" y="-101" type="qcurve"/>
			<point x="69" y="-111"/>
			<point x="86" y="-123"/>
			<point x="106" y="-123" type="qcurve"/>
			<point x="116" y="-123"/>
			<point x="137" y="-119"/>
			<point x="146" y="-116" type="qcurve"/>
			<point x="138" y="-176" type="line"/>
			<point x="114" y="-187"/>
		</contour>
		<contour>
			<point x="277" y="614" type="qcurve"/>
			<point x="254" y="614"/>
			<point x="223" y="642"/>
			<point x="223" y="667" type="qcurve"/>
			<point x="223" y="699"/>
			<point x="263" y="736"/>
			<point x="288" y="736" type="qcurve"/>
			<point x="311" y="736"/>
			<point x="343" y="707"/>
			<point x="343" y="681" type="qcurve"/>
			<point x="343" y="651"/>
			<point x="301" y="614"/>
		</contour>
	</outline>
</glyph>
<glyph name="dotlessi" format="2">
	<unicode hex="0131"/>
	<advance width="249"/>
	<outline>
		<contour>
			<point x="169" y="0" type="line"/>
			<point x="76" y="0" type="line"/>
			<point x="201" y="520" type="line"/>
			<point x="294" y="520" type="line"/>
		</contour>
	</outline>
</glyph>
<glyph name="Lslash" format="2">
	<unicode hex="0141"/>
	<advance width="527"/>
	<outline>
		<contour>
			<point x="524" y="81" type="line"/>
			<point x="505" y="0" type="line"/>
			<point x="101" y="0" type="line"/>
			<point x="169" y="283" type="line"/>
			<point x="92" y="247" type="line"/>
			<point x="76" y="316" type="line"/>
			<point x="189" y="370" type="line"/>
			<point x="267" y="693" type="line"/>
			<point x="364" y="693" type="line"/>
			<point x="296" y="412" type="line"/>
			<point x="422" y="472" type="line"/>
			<point x="438" y="403" type="line"/>
			<point x="276" y="326" type="line"/>
			<point x="217" y="81" type="line"/>
		</contour>
	</outline>
</glyph>
<glyph name="lslash" format="2">
	<unicode hex="0142"/>
	<advance width="318"/>
	<outline>
		<contour>
			<point x="302" y="468" type="line"/>
			<point x="379" y="504" type="line"/>
			<point x="395" y="435" type="line"/>
			<point x="281" y="381" type="line"/>
			<point x="245" y="229" type="line"/>
			<point x="240" y="207"/>
			<point x="230" y="165"/>
			<point x="230" y="146" type="qcurve"/>
			<point x="230" y="112"/>
			<point x="263" y="72"/>
			<point x="308" y="67" type="qcurve"/>
			<point x="287" y="-9" type="line"/>
			<point x="246" y="-8"/>
			<point x="189" y="15"/>
			<point x="154" y="53"/>
			<point x="138" y="105"/>
			<point x="138" y="136" type="qcurve"/>
			<point x="138" y="159"/>
			<point x="146" y="209"/>
			<point x="153" y="236" type="qcurve"/>
			<point x="179" y="341" type="line"/>
			<point x="109" y="308" type="line"/>
			<point x="93" y="377" type="line"/>
			<point x="199" y="427" type="line"/>
			<point x="279" y="760" type="line"/>
			<point x="376" y="776" type="line"/>
		</contour>
	</outline>
</glyph>
<glyph name="Eng" format="2">
	<unicode hex="014A"/>
	<advance width="698"/>
	<outline>
		<contour>
			<point x="613" y="0" type="line"/>
			<point x="602" y="-46"/>
			<point x="577" y="-116"/>
			<point x="537" y="-163"/>
			<point x="474" y="-187"/>
			<point x="425" y="-187" type="qcurve"/>
			<point x="411" y="-187"/>
			<point x="371" y="-179"/>
			<point x="363" y="-174" type="qcurve"/>
			<point x="387" y="-104" type="line"/>
			<point x="393" y="-107"/>
			<point x="415" y="-112"/>
			<point x="429" y="-112" type="qcurve"/>
			<point x="469" y="-112"/>
			<point x="503" y="-62"/>
			<point x="514" y="-17" type="qcurve"/>
			<point x="523" y="21" type="line"/>
			<point x="505" y="80"/>
			<point x="455" y="223"/>
			<point x="398" y="368"/>
			<point x="337" y="503"/>
			<point x="309" y="554" type="qcurve"/>
			<point x="176" y="0" type="line"/>
			<point x="81" y="0" type="line"/>
			<point x="247" y="693" type="line"/>
			<point x="330" y="693" type="line"/>
			<point x="362" y="639"/>
			<point x="429" y="502"/>
			<point x="490" y="358"/>
			<point x="542" y="220"/>
			<point x="559" y="165" type="qcurve"/>
			<point x="683" y="693" type="line"/>
			<point x="778" y="693" type="line"/>
		</contour>
	</outline>
</glyph>
<glyph name="eng" format="2">
	<unicode hex="014B"/>
	<advance width="551"/>
	<outline>
		<contour>
			<point x="448" y="246" type="line"/>
			<point x="455" y="274"/>
			<point x="468" y="332"/>
			<point x="468" y="358" type="qcurve"/>
			<point x="468" y="398"/>
			<point x="424" y="451"/>
			<point x="364" y="451" type="qcurve"/>
			<point x="339" y="451"/>
			<point x="291" y="445"/>
			<point x="275" y="440" type="qcurve"/>
			<point x="169" y="0" type="line"/>
			<point x="76" y="0" type="line"/>
			<point x="196" y="500" type="line"/>
			<point x="242" y="514"/>
			<point x="349" y="531"/>
			<point x="391" y="531" type="qcurve"/>
			<point x="436" y="531"/>
			<point x="501" y="506"/>
			<point x="541" y="463"/>
			<point x="560" y="402"/>
			<point x="560" y="366" type="qcurve"/>
			<point x="560" y="343"/>
			<point x="552" y="292"/>
			<point x="546" y="266" type="qcurve"/>
			<point x="482" y="0" type="line"/>
			<point x="471" y="-46"/>
			<point x="447" y="-116"/>
			<point x="406" y="-163"/>
			<point x="344" y="-187"/>
			<point x="295" y="-187" type="qcurve"/>
			<point x="281" y="-187"/>
			<point x="241" y="-179"/>
			<point x="233" y="-174" type="qcurve"/>
			<point x="257" y="-104" type="line"/>
			<point x="263" y="-107"/>
			<point x="285" y="-112"/>
			<point x="299" y="-112" type="qcurve"/>
			<point x="338" y="-112"/>
			<point x="374" y="-62"/>
			<point x="385" y="-17" type="qcurve"/>
		</contour>
	</outline>
</glyph>
<glyph name="OE" format="2">
	<unicode hex="0152"/>
	<advance width="960"/>
	<outline>
		<contour>
			<point x="430" y="-7" type="qcurve"/>
			<point x="353" y="-7"/>
			<point x="238" y="31"/>
			<point x="162" y="101"/>
			<point x="124" y="200"/>
			<point x="124" y="262" type="qcurve"/>
			<point x="124" y="348"/>
			<point x="178" y="507"/>
			<point x="292" y="628"/>
			<point x="469" y="700"/>
			<point x="592" y="700" type="qcurve"/>
			<point x="618" y="700"/>
			<point x="667" y="696"/>
			<point x="687" y="693" type="qcurve"/>
			<point x="1059" y="693" type="line"/>
			<point x="1040" y="612" type="line"/>
			<point x="742" y="612" type="line"/>
			<point x="692" y="403" type="line"/>
			<point x="955" y="403" type="line"/>
			<point x="936" y="324" type="line"/>
			<point x="674" y="324" type="line"/>
			<point x="615" y="81" type="line"/>
			<point x="936" y="81" type="line"/>
			<point x="917" y="0" type="line"/>
			<point x="534" y="0" type="line"/>
			<point x="506" y="-3"/>
			<point x="450" y="-7"/>
		</contour>
		<contour>
			<point x="567" y="618" type="qcurve"/>
			<point x="488" y="618"/>
			<point x="361" y="565"/>
			<point x="273" y="471"/>
			<point x="225" y="340"/>
			<point x="225" y="262" type="qcurve"/>
			<point x="225" y="174"/>
			<point x="327" y="75"/>
			<point x="438" y="75" type="qcurve"/>
			<point x="462" y="75"/>
			<point x="505" y="78"/>
			<point x="519" y="80" type="qcurve"/>
			<point x="646" y="613" type="line"/>
			<point x="635" y="615"/>
			<point x="599" y="618"/>
		</contour>
	</outline>
</glyph>
<glyph name="oe" format="2">
	<unicode hex="0153"/>
	<advance width="881"/>
	<outline>
		<contour>
			<point x="291" y="66" type="qcurve"/>
			<point x="336" y="66"/>
			<point x="407" y="118"/>
			<point x="456" y="199"/>
			<point x="482" y="297"/>
			<point x="482" y="343" type="qcurve"/>
			<point x="482" y="394"/>
			<point x="438" y="454"/>
			<point x="384" y="454" type="qcurve"/>
			<point x="339" y="454"/>
			<point x="268" y="402"/>
			<point x="219" y="321"/>
			<point x="193" y="223"/>
			<point x="193" y="177" type="qcurve"/>
			<point x="193" y="126"/>
			<point x="237" y="66"/>
		</contour>
		<contour>
			<point x="567" y="273" type="qcurve"/>
			<point x="625" y="275"/>
			<point x="721" y="286"/>
			<point x="791" y="313"/>
			<point x="830" y="359"/>
			<point x="830" y="396" type="qcurve"/>
			<point x="830" y="405"/>
			<point x="823" y="425"/>
			<point x="806" y="442"/>
			<point x="776" y="453"/>
			<point x="754" y="453" type="qcurve"/>
			<point x="719" y="453"/>
			<point x="658" y="423"/>
			<point x="610" y="374"/>
			<point x="576" y="309"/>
		</contour>
		<contour>
			<point x="667" y="-13" type="qcurve"/>
			<point x="598" y="-13"/>
			<point x="503" y="45"/>
			<point x="488" y="97" type="qcurve"/>
			<point x="456" y="52"/>
			<point x="350" y="-13"/>
			<point x="275" y="-13" type="qcurve"/>
			<point x="193" y="-13"/>
			<point x="100" y="84"/>
			<point x="100" y="169" type="qcurve"/>
			<point x="100" y="227"/>
			<point x="133" y="355"/>
			<point x="205" y="463"/>
			<point x="319" y="533"/>
			<point x="400" y="533" type="qcurve"/>
			<point x="463" y="533"/>
			<point x="543" y="473"/>
			<point x="553" y="422" type="qcurve"/>
			<point x="588" y="470"/>
			<point x="694" y="532"/>
			<point x="766" y="532" type="qcurve"/>
			<point x="807" y="532"/>
			<point x="866" y="511"/>
			<point x="903" y="475"/>
			<point x="921" y="428"/>
			<point x="921" y="403" type="qcurve"/>
			<point x="921" y="356"/>
			<point x="887" y="291"/>
			<point x="831" y="247"/>
			<point x="756" y="223"/>
			<point x="675" y="209"/>
			<point x="592" y="204"/>
			<point x="555" y="202" type="qcurve"/>
			<point x="555" y="197"/>
			<point x="554" y="189"/>
			<point x="554" y="184" type="qcurve"/>
			<point x="554" y="149"/>
			<point x="574" y="105"/>
			<point x="611" y="78"/>
			<point x="664" y="68"/>
			<point x="697" y="68" type="qcurve"/>
			<point x="716" y="68"/>
			<point x="755" y="76"/>
			<point x="790" y="86"/>
			<point x="817" y="98"/>
			<point x="823" y="102" type="qcurve"/>
			<point x="831" y="23" type="line"/>
			<point x="822" y="17"/>
			<point x="788" y="5"/>
			<point x="744" y="-6"/>
			<point x="694" y="-13"/>
		</contour>
	</outline>
</glyph>
<glyph name="Scedilla" format="2">
	<unicode hex="015E"/>
	<advance width="517"/>
	<outline>
		<contour>
			<point x="256" y="-38" type="curve"/>
			<point x="261" y="-30"/>
			<point x="266" y="-22"/>
			<point x="273" y="-13" type="curve"/>
			<point x="413" y="-2"/>
			<point x="515" y="73"/>
			<point x="515" y="206" type="curve" smooth="yes"/>
			<point x="515" y="312"/>
			<point x="449" y="350"/>
			<point x="369" y="390" type="curve" smooth="yes"/>
			<point x="304" y="423"/>
			<point x="260" y="443"/>
			<point x="260" y="512" type="curve" smooth="yes"/>
			<point x="260" y="592"/>
			<point x="327" y="626"/>
			<point x="411" y="626" type="curve" smooth="yes"/>
			<point x="479" y="626"/>
			<point x="531" y="608"/>
			<point x="554" y="589" type="curve"/>
			<point x="599" y="665" type="line"/>
			<point x="577" y="681"/>
			<point x="507" y="709"/>
			<point x="428" y="709" type="curve" smooth="yes"/>
			<point x="257" y="709"/>
			<point x="162" y="624"/>
			<point x="162" y="503" type="curve" smooth="yes"/>
			<point x="162" y="398"/>
			<point x="230" y="359"/>
			<point x="292" y="327" type="curve" smooth="yes"/>
			<point x="363" y="290"/>
			<point x="416" y="264"/>
			<point x="416" y="197" type="curve" smooth="yes"/>
			<point x="416" y="101"/>
			<point x="329" y="69"/>
			<point x="246" y="69" type="curve" smooth="yes"/>
			<point x="162" y="69"/>
			<point x="107" y="98"/>
			<point x="82" y="115" type="curve"/>
			<point x="37" y="36" type="line"/>
			<point x="60" y="19"/>
			<point x="117" y="-10"/>
			<point x="210" y="-14" type="curve"/>
			<point x="195" y="-33"/>
			<point x="181" y="-54"/>
			<point x="173" y="-69" type="curve"/>
			<point x="179" y="-72" type="line" smooth="yes"/>
			<point x="204" y="-84"/>
			<point x="214" y="-89"/>
			<point x="214" y="-105" type="curve" smooth="yes"/>
			<point x="214" y="-124"/>
			<point x="198" y="-130"/>
			<point x="175" y="-130" type="curve" smooth="yes"/>
			<point x="150" y="-130"/>
			<point x="133" y="-124"/>
			<point x="122" y="-119" type="curve"/>
			<point x="99" y="-174" type="line"/>
			<point x="116" y="-182"/>
			<point x="141" y="-189"/>
			<point x="180" y="-189" type="curve" smooth="yes"/>
			<point x="251" y="-189"/>
			<point x="296" y="-157"/>
			<point x="296" y="-98" type="curve" smooth="yes"/>
			<point x="296" y="-67"/>
			<point x="283" y="-53"/>
		</contour>
	</outline>
</glyph>
<glyph name="scedilla" format="2">
	<unicode hex="015F"/>
	<advance width="412"/>
	<outline>
		<contour>
			<point x="215" y="-38" type="qcurve"/>
			<point x="235" y="-49"/>
			<point x="255" y="-75"/>
			<point x="255" y="-98" type="qcurve"/>
			<point x="255" y="-143"/>
			<point x="193" y="-189"/>
			<point x="139" y="-189" type="qcurve"/>
			<point x="110" y="-189"/>
			<point x="71" y="-180"/>
			<point x="58" y="-174" type="qcurve"/>
			<point x="81" y="-119" type="line"/>
			<point x="89" y="-123"/>
			<point x="115" y="-130"/>
			<point x="134" y="-130" type="qcurve"/>
			<point x="151" y="-130"/>
			<point x="173" y="-119"/>
			<point x="173" y="-105" type="qcurve"/>
			<point x="173" y="-93"/>
			<point x="157" y="-81"/>
			<point x="138" y="-72" type="qcurve"/>
			<point x="132" y="-69" type="line"/>
			<point x="138" y="-58"/>
			<point x="160" y="-25"/>
			<point x="170" y="-11" type="qcurve"/>
			<point x="116" y="-7"/>
			<point x="49" y="17"/>
			<point x="38" y="25" type="qcurve"/>
			<point x="74" y="101" type="line"/>
			<point x="81" y="97"/>
			<point x="106" y="85"/>
			<point x="141" y="73"/>
			<point x="183" y="65"/>
			<point x="206" y="65" type="qcurve"/>
			<point x="227" y="65"/>
			<point x="270" y="73"/>
			<point x="303" y="91"/>
			<point x="324" y="122"/>
			<point x="324" y="145" type="qcurve"/>
			<point x="324" y="160"/>
			<point x="314" y="183"/>
			<point x="292" y="203"/>
			<point x="259" y="222"/>
			<point x="236" y="234" type="qcurve"/>
			<point x="213" y="245"/>
			<point x="175" y="267"/>
			<point x="146" y="297"/>
			<point x="130" y="338"/>
			<point x="130" y="367" type="qcurve"/>
			<point x="130" y="442"/>
			<point x="238" y="533"/>
			<point x="341" y="533" type="qcurve"/>
			<point x="389" y="533"/>
			<point x="462" y="514"/>
			<point x="476" y="506" type="qcurve"/>
			<point x="441" y="430" type="line"/>
			<point x="427" y="438"/>
			<point x="365" y="456"/>
			<point x="327" y="456" type="qcurve"/>
			<point x="308" y="456"/>
			<point x="270" y="448"/>
			<point x="239" y="429"/>
			<point x="220" y="398"/>
			<point x="220" y="376" type="qcurve"/>
			<point x="220" y="349"/>
			<point x="262" y="314"/>
			<point x="304" y="295" type="qcurve"/>
			<point x="330" y="283"/>
			<point x="371" y="258"/>
			<point x="400" y="227"/>
			<point x="415" y="185"/>
			<point x="415" y="156" type="qcurve"/>
			<point x="415" y="118"/>
			<point x="388" y="58"/>
			<point x="340" y="16"/>
			<point x="273" y="-9"/>
			<point x="233" y="-12" type="qcurve"/>
			<point x="222" y="-26"/>
		</contour>
	</outline>
</glyph>
<glyph name="uni0162" format="2">
	<unicode hex="0162"/>
	<advance width="555"/>
	<outline>
		<contour>
			<point x="699" y="693" type="line"/>
			<point x="680" y="612" type="line"/>
			<point x="471" y="612" type="line"/>
			<point x="324" y="0" type="line"/>
			<point x="313" y="0" type="line"/>
			<point x="305" y="-10"/>
			<point x="291" y="-30"/>
			<point x="286" y="-38" type="qcurve"/>
			<point x="306" y="-49"/>
			<point x="326" y="-75"/>
			<point x="326" y="-98" type="qcurve"/>
			<point x="326" y="-143"/>
			<point x="264" y="-189"/>
			<point x="210" y="-189" type="qcurve"/>
			<point x="181" y="-189"/>
			<point x="142" y="-180"/>
			<point x="129" y="-174" type="qcurve"/>
			<point x="152" y="-119" type="line"/>
			<point x="160" y="-123"/>
			<point x="186" y="-130"/>
			<point x="205" y="-130" type="qcurve"/>
			<point x="222" y="-130"/>
			<point x="244" y="-119"/>
			<point x="244" y="-105" type="qcurve"/>
			<point x="244" y="-93"/>
			<point x="228" y="-81"/>
			<point x="209" y="-72" type="qcurve"/>
			<point x="203" y="-69" type="line"/>
			<point x="211" y="-55"/>
			<point x="238" y="-15"/>
			<point x="249" y="0" type="qcurve"/>
			<point x="227" y="0" type="line"/>
			<point x="374" y="612" type="line"/>
			<point x="165" y="612" type="line"/>
			<point x="184" y="693" type="line"/>
		</contour>
	</outline>
</glyph>
<glyph name="uni0163" format="2">
	<unicode hex="0163"/>
	<advance width="389"/>
	<outline>
		<contour>
			<point x="273" y="-13" type="qcurve"/>
			<point x="268" y="-20"/>
			<point x="260" y="-32"/>
			<point x="256" y="-38" type="qcurve"/>
			<point x="276" y="-49"/>
			<point x="296" y="-75"/>
			<point x="296" y="-98" type="qcurve"/>
			<point x="296" y="-143"/>
			<point x="234" y="-189"/>
			<point x="180" y="-189" type="qcurve"/>
			<point x="151" y="-189"/>
			<point x="112" y="-180"/>
			<point x="99" y="-174" type="qcurve"/>
			<point x="122" y="-119" type="line"/>
			<point x="130" y="-123"/>
			<point x="156" y="-130"/>
			<point x="175" y="-130" type="qcurve"/>
			<point x="192" y="-130"/>
			<point x="214" y="-119"/>
			<point x="214" y="-105" type="qcurve"/>
			<point x="214" y="-93"/>
			<point x="198" y="-81"/>
			<point x="179" y="-72" type="qcurve"/>
			<point x="173" y="-69" type="line"/>
			<point x="179" y="-57"/>
			<point x="200" y="-24"/>
			<point x="211" y="-10" type="qcurve"/>
			<point x="109" y="6"/>
			<point x="109" y="115" type="qcurve"/>
			<point x="109" y="156"/>
			<point x="123" y="220" type="qcurve"/>
			<point x="230" y="665" type="line"/>
			<point x="327" y="681" type="line"/>
			<point x="288" y="520" type="line"/>
			<point x="465" y="520" type="line"/>
			<point x="446" y="442" type="line"/>
			<point x="269" y="442" type="line"/>
			<point x="214" y="212" type="line"/>
			<point x="202" y="165"/>
			<point x="202" y="130" type="qcurve"/>
			<point x="202" y="97"/>
			<point x="238" y="68"/>
			<point x="280" y="68" type="qcurve"/>
			<point x="309" y="68"/>
			<point x="365" y="87"/>
			<point x="380" y="95" type="qcurve"/>
			<point x="387" y="16" type="line"/>
			<point x="373" y="8"/>
			<point x="312" y="-11"/>
		</contour>
	</outline>
</glyph>
<glyph name="Tbar" format="2">
	<unicode hex="0166"/>
	<advance width="555"/>
	<outline>
		<contour>
			<point x="184" y="693" type="line"/>
			<point x="165" y="612" type="line"/>
			<point x="374" y="612" type="line"/>
			<point x="321" y="393" type="line"/>
			<point x="198" y="393" type="line"/>
			<point x="180" y="318" type="line"/>
			<point x="303" y="318" type="line"/>
			<point x="227" y="0" type="line"/>
			<point x="324" y="0" type="line"/>
			<point x="400" y="318" type="line"/>
			<point x="526" y="318" type="line"/>
			<point x="544" y="393" type="line"/>
			<point x="418" y="393" type="line"/>
			<point x="471" y="612" type="line"/>
			<point x="680" y="612" type="line"/>
			<point x="699" y="693" type="line"/>
		</contour>
	</outline>
</glyph>
<glyph name="tbar" format="2">
	<unicode hex="0167"/>
	<advance width="389"/>
	<outline>
		<contour>
			<point x="254" y="-14" type="qcurve"/>
			<point x="179" y="-14"/>
			<point x="109" y="52"/>
			<point x="109" y="115" type="qcurve"/>
			<point x="109" y="156"/>
			<point x="123" y="220" type="qcurve"/>
			<point x="230" y="665" type="line"/>
			<point x="327" y="681" type="line"/>
			<point x="288" y="520" type="line"/>
			<point x="465" y="520" type="line"/>
			<point x="446" y="442" type="line"/>
			<point x="269" y="442" type="line"/>
			<point x="236" y="306" type="line"/>
			<point x="413" y="306" type="line"/>
			<point x="396" y="236" type="line"/>
			<point x="220" y="236" type="line"/>
			<point x="214" y="212" type="line"/>
			<point x="202" y="165"/>
			<point x="202" y="130" type="qcurve"/>
			<point x="202" y="97"/>
			<point x="238" y="68"/>
			<point x="280" y="68" type="qcurve"/>
			<point x="309" y="68"/>
			<point x="365" y="87"/>
			<point x="380" y="95" type="qcurve"/>
			<point x="387" y="16" type="line"/>
			<point x="372" y="7"/>
			<point x="300" y="-14"/>
		</contour>
	</outline>
</glyph>
<glyph name="Uogonek" format="2">
	<unicode hex="0172"/>
	<advance width="666"/>
	<outline>
		<contour>
			<point x="381" y="-187" type="qcurve"/>
			<point x="326" y="-187"/>
			<point x="282" y="-152"/>
			<point x="282" y="-124" type="qcurve"/>
			<point x="282" y="-97"/>
			<point x="318" y="-47"/>
			<point x="342" y="-27" type="qcurve"/>
			<point x="346" y="-24"/>
			<point x="357" y="-15"/>
			<point x="361" y="-13" type="qcurve"/>
			<point x="355" y="-14"/>
			<point x="340" y="-14"/>
			<point x="334" y="-14" type="qcurve"/>
			<point x="282" y="-14"/>
			<point x="206" y="16"/>
			<point x="156" y="70"/>
			<point x="132" y="142"/>
			<point x="132" y="184" type="qcurve"/>
			<point x="132" y="206"/>
			<point x="140" y="260"/>
			<point x="145" y="283" type="qcurve"/>
			<point x="243" y="693" type="line"/>
			<point x="340" y="693" type="line"/>
			<point x="240" y="277" type="line"/>
			<point x="235" y="258"/>
			<point x="229" y="212"/>
			<point x="229" y="192" type="qcurve"/>
			<point x="229" y="166"/>
			<point x="241" y="122"/>
			<point x="270" y="89"/>
			<point x="316" y="70"/>
			<point x="349" y="70" type="qcurve"/>
			<point x="434" y="70"/>
			<point x="528" y="165"/>
			<point x="552" y="269" type="qcurve"/>
			<point x="654" y="693" type="line"/>
			<point x="751" y="693" type="line"/>
			<point x="647" y="258" type="line"/>
			<point x="637" y="217"/>
			<point x="613" y="143"/>
			<point x="578" y="80"/>
			<point x="528" y="31"/>
			<point x="492" y="14" type="qcurve"/>
			<point x="474" y="6"/>
			<point x="434" y="-23"/>
			<point x="416" y="-38" type="qcurve"/>
			<point x="403" y="-49"/>
			<point x="370" y="-82"/>
			<point x="370" y="-101" type="qcurve"/>
			<point x="370" y="-111"/>
			<point x="387" y="-123"/>
			<point x="407" y="-123" type="qcurve"/>
			<point x="417" y="-123"/>
			<point x="438" y="-119"/>
			<point x="447" y="-116" type="qcurve"/>
			<point x="439" y="-176" type="line"/>
			<point x="415" y="-187"/>
		</contour>
	</outline>
</glyph>
<glyph name="uogonek" format="2">
	<unicode hex="0173"/>
	<advance width="550"/>
	<outline>
		<contour>
			<point x="503" y="103" type="qcurve"/>
			<point x="503" y="80"/>
			<point x="511" y="32"/>
			<point x="524" y="0" type="qcurve"/>
			<point x="512" y="-9"/>
			<point x="492" y="-26"/>
			<point x="480" y="-36" type="qcurve"/>
			<point x="474" y="-41"/>
			<point x="458" y="-55"/>
			<point x="443" y="-72"/>
			<point x="433" y="-91"/>
			<point x="433" y="-101" type="qcurve"/>
			<point x="433" y="-111"/>
			<point x="450" y="-123"/>
			<point x="470" y="-123" type="qcurve"/>
			<point x="480" y="-123"/>
			<point x="501" y="-119"/>
			<point x="510" y="-116" type="qcurve"/>
			<point x="502" y="-176" type="line"/>
			<point x="478" y="-187"/>
			<point x="444" y="-187" type="qcurve"/>
			<point x="389" y="-187"/>
			<point x="345" y="-152"/>
			<point x="345" y="-124" type="qcurve"/>
			<point x="345" y="-97"/>
			<point x="381" y="-47"/>
			<point x="405" y="-27" type="qcurve"/>
			<point x="413" y="-20"/>
			<point x="431" y="-7"/>
			<point x="438" y="-2" type="qcurve"/>
			<point x="427" y="22"/>
			<point x="421" y="49" type="qcurve"/>
			<point x="410" y="39"/>
			<point x="380" y="17"/>
			<point x="341" y="-1"/>
			<point x="294" y="-13"/>
			<point x="266" y="-13" type="qcurve"/>
			<point x="222" y="-13"/>
			<point x="163" y="13"/>
			<point x="126" y="57"/>
			<point x="110" y="117"/>
			<point x="110" y="151" type="qcurve"/>
			<point x="110" y="177"/>
			<point x="119" y="228"/>
			<point x="125" y="254" type="qcurve"/>
			<point x="189" y="520" type="line"/>
			<point x="282" y="520" type="line"/>
			<point x="223" y="274" type="line"/>
			<point x="218" y="251"/>
			<point x="202" y="189"/>
			<point x="202" y="158" type="qcurve"/>
			<point x="202" y="140"/>
			<point x="209" y="107"/>
			<point x="228" y="82"/>
			<point x="260" y="67"/>
			<point x="284" y="67" type="qcurve"/>
			<point x="327" y="67"/>
			<point x="392" y="104"/>
			<point x="414" y="129" type="qcurve"/>
			<point x="415" y="145"/>
			<point x="419" y="179"/>
			<point x="424" y="199" type="qcurve"/>
			<point x="501" y="520" type="line"/>
			<point x="594" y="520" type="line"/>
			<point x="515" y="191" type="line"/>
			<point x="510" y="168"/>
			<point x="503" y="126"/>
		</contour>
	</outline>
</glyph>
<glyph name="uni0180" format="2">
	<unicode hex="0180"/>
	<advance width="555"/>
	<outline>
		<contour>
			<point x="239" y="683" type="line"/>
			<point x="258" y="760" type="line"/>
			<point x="355" y="776" type="line"/>
			<point x="333" y="683" type="line"/>
			<point x="490" y="683" type="line"/>
			<point x="474" y="614" type="line"/>
			<point x="316" y="614" type="line"/>
			<point x="288" y="494" type="line"/>
			<point x="311" y="508"/>
			<point x="371" y="528"/>
			<point x="405" y="528" type="qcurve"/>
			<point x="448" y="528"/>
			<point x="513" y="501"/>
			<point x="556" y="453"/>
			<point x="577" y="386"/>
			<point x="577" y="347" type="qcurve"/>
			<point x="577" y="278"/>
			<point x="533" y="149"/>
			<point x="443" y="49"/>
			<point x="308" y="-11"/>
			<point x="217" y="-11" type="qcurve"/>
			<point x="202" y="-11"/>
			<point x="166" y="-8"/>
			<point x="129" y="0"/>
			<point x="94" y="12"/>
			<point x="81" y="20" type="qcurve"/>
			<point x="223" y="614" type="line"/>
			<point x="150" y="614" type="line"/>
			<point x="166" y="683" type="line"/>
		</contour>
		<contour>
			<point x="382" y="449" type="qcurve"/>
			<point x="352" y="449"/>
			<point x="293" y="428"/>
			<point x="267" y="409" type="qcurve"/>
			<point x="187" y="75" type="line"/>
			<point x="197" y="73"/>
			<point x="223" y="69"/>
			<point x="236" y="69" type="qcurve"/>
			<point x="293" y="69"/>
			<point x="385" y="113"/>
			<point x="449" y="187"/>
			<point x="484" y="284"/>
			<point x="484" y="337" type="qcurve"/>
			<point x="484" y="359"/>
			<point x="475" y="400"/>
			<point x="451" y="431"/>
			<point x="412" y="449"/>
		</contour>
	</outline>
</glyph>
<glyph name="uni0181" format="2">
	<unicode hex="0181"/>
	<advance width="724"/>
	<outline>
		<contour>
			<point x="432" y="618" type="line"/>
			<point x="451" y="619"/>
			<point x="477" y="620"/>
			<point x="516" y="620" type="curve" smooth="yes"/>
			<point x="620" y="620"/>
			<point x="670" y="597"/>
			<point x="670" y="529" type="curve" smooth="yes"/>
			<point x="670" y="425"/>
			<point x="561" y="400"/>
			<point x="474" y="400" type="curve" smooth="yes"/>
			<point x="379" y="400" type="line"/>
		</contour>
		<contour>
			<point x="190" y="11" type="line"/>
			<point x="239" y="-2"/>
			<point x="316" y="-7"/>
			<point x="369" y="-7" type="curve" smooth="yes"/>
			<point x="569" y="-7"/>
			<point x="728" y="52"/>
			<point x="728" y="237" type="curve" smooth="yes"/>
			<point x="728" y="300"/>
			<point x="689" y="346"/>
			<point x="632" y="367" type="curve"/>
			<point x="717" y="398"/>
			<point x="769" y="463"/>
			<point x="769" y="544" type="curve" smooth="yes"/>
			<point x="769" y="657"/>
			<point x="672" y="700"/>
			<point x="537" y="700" type="curve" smooth="yes"/>
			<point x="334" y="700"/>
			<point x="140" y="694"/>
			<point x="140" y="507" type="curve" smooth="yes"/>
			<point x="140" y="504"/>
			<point x="140" y="497"/>
			<point x="141" y="492" type="curve"/>
			<point x="219" y="501" type="line"/>
			<point x="219" y="570"/>
			<point x="257" y="607"/>
			<point x="334" y="612" type="curve"/>
		</contour>
		<contour>
			<point x="481" y="324" type="line"/>
			<point x="585" y="324"/>
			<point x="629" y="292"/>
			<point x="629" y="227" type="curve" smooth="yes"/>
			<point x="629" y="95"/>
			<point x="490" y="73"/>
			<point x="391" y="73" type="curve" smooth="yes"/>
			<point x="346" y="73"/>
			<point x="317" y="75"/>
			<point x="302" y="78" type="curve"/>
			<point x="360" y="324" type="line"/>
		</contour>
	</outline>
</glyph>
<glyph name="uni0184" format="2">
	<unicode hex="0184"/>
	<advance width="555"/>
	<outline>
		<contour>
			<point x="383" y="454" type="curve" smooth="yes"/>
			<point x="463" y="454"/>
			<point x="484" y="399"/>
			<point x="484" y="339" type="curve" smooth="yes"/>
			<point x="484" y="199"/>
			<point x="388" y="69"/>
			<point x="236" y="69" type="curve" smooth="yes"/>
			<point x="219" y="69"/>
			<point x="200" y="72"/>
			<point x="187" y="75" type="curve"/>
			<point x="268" y="414" type="line"/>
			<point x="303" y="439"/>
			<point x="343" y="454"/>
		</contour>
		<contour>
			<point x="81" y="20" type="line"/>
			<point x="117" y="-2"/>
			<point x="177" y="-11"/>
			<point x="217" y="-11" type="curve" smooth="yes"/>
			<point x="460" y="-11"/>
			<point x="577" y="166"/>
			<point x="577" y="349" type="curve" smooth="yes"/>
			<point x="577" y="454"/>
			<point x="522" y="533"/>
			<point x="406" y="533" type="curve" smooth="yes"/>
			<point x="361" y="533"/>
			<point x="320" y="518"/>
			<point x="289" y="499" type="curve"/>
			<point x="355" y="776" type="line"/>
			<point x="292" y="761"/>
			<point x="229" y="736"/>
			<point x="176" y="708" type="curve"/>
			<point x="228" y="633" type="line"/>
		</contour>
	</outline>
</glyph>
<glyph name="uni0185" format="2">
	<unicode hex="0185"/>
	<advance width="613"/>
	<outline>
		<contour>
			<point x="293" y="441" type="line"/>
			<point x="314" y="443"/>
			<point x="356" y="444"/>
			<point x="374" y="444" type="qcurve"/>
			<point x="501" y="444"/>
			<point x="622" y="352"/>
			<point x="622" y="264" type="qcurve"/>
			<point x="622" y="195"/>
			<point x="571" y="93"/>
			<point x="479" y="26"/>
			<point x="354" y="-7"/>
			<point x="279" y="-7" type="qcurve"/>
			<point x="257" y="-7"/>
			<point x="207" y="-5"/>
			<point x="157" y="-1"/>
			<point x="110" y="5"/>
			<point x="92" y="10" type="qcurve"/>
			<point x="223" y="555" type="line"/>
			<point x="171" y="631" type="line"/>
			<point x="187" y="640"/>
			<point x="230" y="659"/>
			<point x="279" y="678"/>
			<point x="331" y="694"/>
			<point x="355" y="700" type="qcurve"/>
		</contour>
		<contour>
			<point x="288" y="75" type="qcurve"/>
			<point x="334" y="75"/>
			<point x="420" y="93"/>
			<point x="484" y="136"/>
			<point x="523" y="205"/>
			<point x="523" y="256" type="qcurve"/>
			<point x="523" y="314"/>
			<point x="434" y="363"/>
			<point x="361" y="363" type="qcurve"/>
			<point x="323" y="363"/>
			<point x="280" y="360"/>
			<point x="273" y="359" type="qcurve"/>
			<point x="206" y="80" type="line"/>
			<point x="226" y="75"/>
		</contour>
	</outline>
</glyph>
<glyph name="uni0186" format="2">
	<unicode hex="0186"/>
	<advance width="594"/>
	<outline>
		<contour>
			<point x="379" y="709" type="qcurve"/>
			<point x="439" y="709"/>
			<point x="533" y="673"/>
			<point x="598" y="607"/>
			<point x="632" y="514"/>
			<point x="632" y="457" type="qcurve"/>
			<point x="632" y="363"/>
			<point x="581" y="192"/>
			<point x="481" y="62"/>
			<point x="330" y="-15"/>
			<point x="231" y="-15" type="qcurve"/>
			<point x="187" y="-15"/>
			<point x="119" y="-3"/>
			<point x="69" y="14"/>
			<point x="40" y="30"/>
			<point x="35" y="34" type="qcurve"/>
			<point x="80" y="113" type="line"/>
			<point x="87" y="108"/>
			<point x="116" y="93"/>
			<point x="155" y="79"/>
			<point x="205" y="70"/>
			<point x="235" y="70" type="qcurve"/>
			<point x="310" y="70"/>
			<point x="421" y="135"/>
			<point x="495" y="240"/>
			<point x="531" y="372"/>
			<point x="531" y="440" type="qcurve"/>
			<point x="531" y="534"/>
			<point x="447" y="623"/>
			<point x="362" y="623" type="qcurve"/>
			<point x="299" y="623"/>
			<point x="215" y="598"/>
			<point x="193" y="587" type="qcurve"/>
			<point x="186" y="671" type="line"/>
			<point x="192" y="675"/>
			<point x="224" y="688"/>
			<point x="274" y="700"/>
			<point x="340" y="709"/>
		</contour>
	</outline>
</glyph>
<glyph name="uni0187" format="2">
	<unicode hex="0187"/>
	<advance width="657"/>
	<outline>
		<contour>
			<point x="525" y="709" type="qcurve"/>
			<point x="557" y="709"/>
			<point x="622" y="699"/>
			<point x="644" y="689" type="qcurve"/>
			<point x="672" y="741"/>
			<point x="745" y="786"/>
			<point x="800" y="786" type="qcurve"/>
			<point x="822" y="786"/>
			<point x="859" y="776"/>
			<point x="869" y="771" type="qcurve"/>
			<point x="838" y="703" type="line"/>
			<point x="831" y="706"/>
			<point x="811" y="711"/>
			<point x="797" y="711" type="qcurve"/>
			<point x="770" y="711"/>
			<point x="735" y="690"/>
			<point x="710" y="656"/>
			<point x="690" y="610"/>
			<point x="678" y="585" type="qcurve"/>
			<point x="661" y="595"/>
			<point x="580" y="625"/>
			<point x="520" y="625" type="qcurve"/>
			<point x="451" y="625"/>
			<point x="341" y="560"/>
			<point x="265" y="457"/>
			<point x="225" y="328"/>
			<point x="225" y="265" type="qcurve"/>
			<point x="225" y="70"/>
			<point x="394" y="70" type="qcurve"/>
			<point x="430" y="70"/>
			<point x="487" y="80"/>
			<point x="531" y="93"/>
			<point x="565" y="109"/>
			<point x="578" y="115" type="qcurve"/>
			<point x="590" y="31" type="line"/>
			<point x="578" y="24"/>
			<point x="539" y="8"/>
			<point x="487" y="-6"/>
			<point x="423" y="-15"/>
			<point x="387" y="-15" type="qcurve"/>
			<point x="322" y="-15"/>
			<point x="223" y="23"/>
			<point x="157" y="93"/>
			<point x="124" y="192"/>
			<point x="124" y="254" type="qcurve"/>
			<point x="124" y="344"/>
			<point x="181" y="508"/>
			<point x="286" y="634"/>
			<point x="434" y="709"/>
		</contour>
	</outline>
</glyph>
<glyph name="uni0188" format="2">
	<unicode hex="0188"/>
	<advance width="486"/>
	<outline>
		<contour>
			<point x="413" y="532" type="curve" smooth="yes"/>
			<point x="212" y="532"/>
			<point x="100" y="367"/>
			<point x="100" y="186" type="curve" smooth="yes"/>
			<point x="100" y="69"/>
			<point x="170" y="-13"/>
			<point x="298" y="-13" type="curve" smooth="yes"/>
			<point x="365" y="-13"/>
			<point x="423" y="6"/>
			<point x="448" y="22" type="curve"/>
			<point x="440" y="101" type="line"/>
			<point x="424" y="88"/>
			<point x="364" y="68"/>
			<point x="315" y="68" type="curve" smooth="yes"/>
			<point x="219" y="68"/>
			<point x="193" y="126"/>
			<point x="193" y="195" type="curve" smooth="yes"/>
			<point x="193" y="328"/>
			<point x="273" y="452"/>
			<point x="404" y="452" type="curve" smooth="yes"/>
			<point x="451" y="452"/>
			<point x="480" y="444"/>
			<point x="499" y="435" type="curve"/>
			<point x="523" y="496"/>
			<point x="542" y="558"/>
			<point x="600" y="558" type="curve" smooth="yes"/>
			<point x="617" y="558"/>
			<point x="631" y="553"/>
			<point x="640" y="549" type="curve"/>
			<point x="670" y="615" type="line"/>
			<point x="657" y="622"/>
			<point x="635" y="629"/>
			<point x="603" y="629" type="curve" smooth="yes"/>
			<point x="543" y="629"/>
			<point x="497" y="606"/>
			<point x="462" y="527" type="curve"/>
			<point x="454" y="530"/>
			<point x="429" y="532"/>
		</contour>
	</outline>
</glyph>
<glyph name="uni018A" format="2">
	<unicode hex="018A"/>
	<advance width="797"/>
	<outline>
		<contour>
			<point x="524" y="619" type="qcurve"/>
			<point x="489" y="619"/>
			<point x="446" y="618"/>
			<point x="432" y="617" type="qcurve"/>
			<point x="303" y="80" type="line"/>
			<point x="311" y="78"/>
			<point x="349" y="75"/>
			<point x="392" y="75" type="qcurve"/>
			<point x="471" y="75"/>
			<point x="598" y="128"/>
			<point x="686" y="223"/>
			<point x="734" y="354"/>
			<point x="734" y="432" type="qcurve"/>
			<point x="734" y="520"/>
			<point x="633" y="619"/>
		</contour>
		<contour>
			<point x="334" y="612" type="line"/>
			<point x="219" y="605"/>
			<point x="219" y="501" type="qcurve"/>
			<point x="141" y="492" type="line"/>
			<point x="140" y="496"/>
			<point x="140" y="505"/>
			<point x="140" y="507" type="qcurve"/>
			<point x="140" y="577"/>
			<point x="207" y="655"/>
			<point x="316" y="692"/>
			<point x="456" y="700"/>
			<point x="529" y="700" type="qcurve"/>
			<point x="683" y="700"/>
			<point x="835" y="555"/>
			<point x="835" y="432" type="qcurve"/>
			<point x="835" y="346"/>
			<point x="781" y="187"/>
			<point x="667" y="65"/>
			<point x="490" y="-7"/>
			<point x="367" y="-7" type="qcurve"/>
			<point x="325" y="-7"/>
			<point x="227" y="1"/>
			<point x="190" y="11" type="qcurve"/>
		</contour>
	</outline>
</glyph>
<glyph name="uni018B" format="2">
	<unicode hex="018B"/>
	<advance width="604"/>
	<outline>
		<contour>
			<point x="93" y="173" type="qcurve"/>
			<point x="93" y="239"/>
			<point x="143" y="338"/>
			<point x="232" y="402"/>
			<point x="356" y="434"/>
			<point x="431" y="434" type="qcurve"/>
			<point x="526" y="434" type="line"/>
			<point x="569" y="612" type="line"/>
			<point x="237" y="612" type="line"/>
			<point x="255" y="693" type="line"/>
			<point x="686" y="693" type="line"/>
			<point x="521" y="10" type="line"/>
			<point x="500" y="5"/>
			<point x="450" y="-1"/>
			<point x="401" y="-5"/>
			<point x="355" y="-7"/>
			<point x="337" y="-7" type="qcurve"/>
			<point x="218" y="-5"/>
			<point x="93" y="80"/>
		</contour>
		<contour>
			<point x="352" y="75" type="qcurve"/>
			<point x="388" y="75"/>
			<point x="429" y="77"/>
			<point x="441" y="79" type="qcurve"/>
			<point x="507" y="354" type="line"/>
			<point x="426" y="354" type="line"/>
			<point x="378" y="354"/>
			<point x="294" y="336"/>
			<point x="230" y="295"/>
			<point x="193" y="229"/>
			<point x="193" y="181" type="qcurve"/>
			<point x="193" y="151"/>
			<point x="216" y="110"/>
			<point x="258" y="85"/>
			<point x="317" y="75"/>
		</contour>
	</outline>
</glyph>
<glyph name="uni018C" format="2">
	<unicode hex="018C"/>
	<advance width="548"/>
	<outline>
		<contour>
			<point x="652" y="771" type="line"/>
			<point x="290" y="771" type="line"/>
			<point x="271" y="693" type="line"/>
			<point x="540" y="693" type="line"/>
			<point x="500" y="526" type="line"/>
			<point x="484" y="529"/>
			<point x="470" y="530"/>
			<point x="455" y="530" type="curve" smooth="yes"/>
			<point x="218" y="530"/>
			<point x="98" y="353"/>
			<point x="98" y="174" type="curve" smooth="yes"/>
			<point x="98" y="64"/>
			<point x="151" y="-13"/>
			<point x="268" y="-13" type="curve" smooth="yes"/>
			<point x="339" y="-13"/>
			<point x="388" y="19"/>
			<point x="417" y="46" type="curve"/>
			<point x="422" y="25"/>
			<point x="428" y="7"/>
			<point x="435" y="-6" type="curve"/>
			<point x="517" y="6" type="line"/>
			<point x="504" y="42"/>
			<point x="499" y="72"/>
			<point x="499" y="103" type="curve" smooth="yes"/>
			<point x="499" y="134"/>
			<point x="505" y="160"/>
			<point x="512" y="191" type="curve" smooth="yes"/>
		</contour>
		<contour>
			<point x="287" y="66" type="curve" smooth="yes"/>
			<point x="215" y="66"/>
			<point x="191" y="124"/>
			<point x="191" y="184" type="curve" smooth="yes"/>
			<point x="191" y="325"/>
			<point x="288" y="452"/>
			<point x="440" y="452" type="curve" smooth="yes"/>
			<point x="453" y="452"/>
			<point x="469" y="452"/>
			<point x="481" y="449" type="curve"/>
			<point x="421" y="199" type="line" smooth="yes"/>
			<point x="414" y="170"/>
			<point x="411" y="145"/>
			<point x="410" y="124" type="curve"/>
			<point x="381" y="93"/>
			<point x="342" y="66"/>
		</contour>
	</outline>
</glyph>
<glyph name="uni018D" format="2">
	<unicode hex="018D"/>
	<advance width="552"/>
	<outline>
		<contour>
			<point x="578" y="349" type="qcurve"/>
			<point x="578" y="292"/>
			<point x="544" y="199"/>
			<point x="485" y="126"/>
			<point x="407" y="73"/>
			<point x="362" y="55" type="qcurve"/>
			<point x="388" y="35"/>
			<point x="414" y="-10"/>
			<point x="414" y="-44" type="qcurve"/>
			<point x="414" y="-85"/>
			<point x="380" y="-140"/>
			<point x="322" y="-173"/>
			<point x="246" y="-188"/>
			<point x="204" y="-188" type="qcurve"/>
			<point x="149" y="-188"/>
			<point x="73" y="-168"/>
			<point x="47" y="-154" type="qcurve"/>
			<point x="80" y="-81" type="line"/>
			<point x="93" y="-90"/>
			<point x="166" y="-115"/>
			<point x="212" y="-115" type="qcurve"/>
			<point x="229" y="-115"/>
			<point x="269" y="-111"/>
			<point x="303" y="-97"/>
			<point x="325" y="-73"/>
			<point x="325" y="-52" type="qcurve"/>
			<point x="325" y="-36"/>
			<point x="311" y="-12"/>
			<point x="283" y="11"/>
			<point x="240" y="38"/>
			<point x="212" y="57" type="qcurve"/>
			<point x="166" y="88"/>
			<point x="111" y="177"/>
			<point x="111" y="241" type="qcurve"/>
			<point x="111" y="302"/>
			<point x="150" y="409"/>
			<point x="224" y="488"/>
			<point x="330" y="533"/>
			<point x="397" y="533" type="qcurve"/>
			<point x="445" y="533"/>
			<point x="514" y="502"/>
			<point x="557" y="451"/>
			<point x="578" y="385"/>
		</contour>
		<contour>
			<point x="201" y="244" type="qcurve"/>
			<point x="201" y="193"/>
			<point x="249" y="129"/>
			<point x="300" y="101" type="qcurve"/>
			<point x="340" y="115"/>
			<point x="409" y="159"/>
			<point x="458" y="218"/>
			<point x="486" y="293"/>
			<point x="486" y="338" type="qcurve"/>
			<point x="486" y="360"/>
			<point x="476" y="401"/>
			<point x="452" y="433"/>
			<point x="415" y="453"/>
			<point x="388" y="453" type="qcurve"/>
			<point x="344" y="453"/>
			<point x="274" y="422"/>
			<point x="226" y="366"/>
			<point x="201" y="290"/>
		</contour>
	</outline>
</glyph>
<glyph name="uni018E" format="2">
	<unicode hex="018E"/>
	<advance width="557"/>
	<outline>
		<contour>
			<point x="228" y="693" type="line"/>
			<point x="209" y="612" type="line"/>
			<point x="522" y="612" type="line"/>
			<point x="471" y="403" type="line"/>
			<point x="194" y="403" type="line"/>
			<point x="175" y="324" type="line"/>
			<point x="453" y="324" type="line"/>
			<point x="395" y="81" type="line"/>
			<point x="63" y="81" type="line"/>
			<point x="44" y="0" type="line"/>
			<point x="472" y="0" type="line"/>
			<point x="638" y="693" type="line"/>
		</contour>
	</outline>
</glyph>
